<svg width="20" height="20" viewBox="0 0 20 20" fill="none" xmlns="http://www.w3.org/2000/svg">
<path d="M10 2C14.4183 2 18 5.58172 18 10C18 14.4183 14.4183 18 10 18C8.31185 18 6.74683 17.4757 5.45605 16.583L2.67676 17.1621C2.32418 17.2355 2.01162 16.9229 2.08496 16.5703L2.74902 13.3799C2.26953 12.353 2 11.2082 2 10C2 5.58172 5.58172 2 10 2Z" fill="#246BEB"/>
<path d="M9.06721 12.2349V12.1241C9.07005 11.6099 9.11834 11.2008 9.21209 10.8968C9.30868 10.5928 9.44505 10.3485 9.62118 10.1638C9.79732 9.97634 10.0118 9.80447 10.2646 9.64822C10.4379 9.54026 10.5928 9.42236 10.7291 9.29452C10.8683 9.16384 10.9777 9.01895 11.0573 8.85986C11.1368 8.69793 11.1766 8.51753 11.1766 8.31867C11.1766 8.09424 11.124 7.89964 11.0189 7.73486C10.9138 7.57009 10.7718 7.44225 10.5928 7.35134C10.4166 7.26043 10.2192 7.21498 10.0004 7.21498C9.79874 7.21498 9.60698 7.25901 9.42516 7.34708C9.24618 7.43231 9.09703 7.56299 8.97772 7.73912C8.86124 7.91242 8.7959 8.13259 8.78169 8.39964H7.26465C7.27885 7.85986 7.40953 7.40816 7.65669 7.04452C7.90669 6.68089 8.23624 6.40816 8.64533 6.22634C9.05726 6.04452 9.51181 5.95361 10.009 5.95361C10.5516 5.95361 11.0289 6.04878 11.4408 6.23912C11.8556 6.42947 12.178 6.70077 12.4081 7.05305C12.6411 7.40248 12.7575 7.81725 12.7575 8.29736C12.7575 8.62123 12.705 8.911 12.5999 9.16668C12.4976 9.42236 12.3513 9.64964 12.161 9.8485C11.9706 10.0474 11.7448 10.2249 11.4834 10.3812C11.2533 10.5232 11.0644 10.6709 10.9166 10.8244C10.7718 10.9778 10.6638 11.1582 10.5928 11.3655C10.5246 11.5701 10.4891 11.8229 10.4862 12.1241V12.2349H9.06721ZM9.80868 14.894C9.553 14.894 9.33283 14.803 9.14817 14.6212C8.96351 14.4394 8.87118 14.2178 8.87118 13.9565C8.87118 13.7008 8.96351 13.482 9.14817 13.3002C9.33283 13.1184 9.553 13.0275 9.80868 13.0275C10.0615 13.0275 10.2803 13.1184 10.4649 13.3002C10.6524 13.482 10.7462 13.7008 10.7462 13.9565C10.7462 14.1298 10.7021 14.2874 10.6141 14.4295C10.5289 14.5715 10.4152 14.6851 10.2732 14.7704C10.134 14.8528 9.97914 14.894 9.80868 14.894Z" fill="white"/>
</svg>
