<svg width="20" height="20" viewBox="0 0 20 20" fill="none" xmlns="http://www.w3.org/2000/svg">
<path d="M5.28571 17C4.95808 17 4.66685 16.8987 4.41202 16.6961C4.1572 16.4934 3.98125 16.2325 3.88417 15.9132L2.02758 9.09737C1.96691 8.86404 2.00634 8.64912 2.14589 8.45263C2.28544 8.25614 2.47656 8.15789 2.71925 8.15789H6.17761L9.38114 3.33158C9.44181 3.23333 9.52675 3.15351 9.63596 3.09211C9.74517 3.0307 9.86045 3 9.9818 3C10.1031 3 10.2184 3.0307 10.3276 3.09211C10.4368 3.15351 10.5218 3.23333 10.5825 3.33158L13.786 8.15789H17.2808C17.5234 8.15789 17.7146 8.25614 17.8541 8.45263C17.9937 8.64912 18.0331 8.86404 17.9724 9.09737L16.1158 15.9132C16.0188 16.2325 15.8428 16.4934 15.588 16.6961C15.3331 16.8987 15.0419 17 14.7143 17H5.28571ZM5.26751 15.5263H14.7325L16.3343 9.63158H3.66575L5.26751 15.5263ZM7.94319 8.15789H12.0386L9.9818 5.06316L7.94319 8.15789Z" fill="#2D2D2D"/>
<path d="M5.28571 17C4.95808 17 4.66685 16.8987 4.41202 16.6961C4.1572 16.4934 3.98125 16.2325 3.88417 15.9132L2.02758 9.09737C1.96691 8.86404 2.00634 8.64912 2.14589 8.45263C2.28544 8.25614 2.47656 8.15789 2.71925 8.15789H6.17761L9.38114 3.33158C9.44181 3.23333 9.52675 3.15351 9.63596 3.09211C9.74517 3.0307 9.86045 3 9.9818 3C10.1031 3 10.2184 3.0307 10.3276 3.09211C10.4368 3.15351 10.5218 3.23333 10.5825 3.33158L13.786 8.15789H17.2808C17.5234 8.15789 17.7146 8.25614 17.8541 8.45263C17.9937 8.64912 18.0331 8.86404 17.9724 9.09737L16.1158 15.9132C16.0188 16.2325 15.8428 16.4934 15.588 16.6961C15.3331 16.8987 15.0419 17 14.7143 17H5.28571ZM5.26751 15.5263H14.7325L16.3343 9.63158H3.66575L5.26751 15.5263ZM7.94319 8.15789H12.0386L9.9818 5.06316L7.94319 8.15789Z" fill="black" fill-opacity="0.2"/>
<path d="M5.28571 17C4.95808 17 4.66685 16.8987 4.41202 16.6961C4.1572 16.4934 3.98125 16.2325 3.88417 15.9132L2.02758 9.09737C1.96691 8.86404 2.00634 8.64912 2.14589 8.45263C2.28544 8.25614 2.47656 8.15789 2.71925 8.15789H6.17761L9.38114 3.33158C9.44181 3.23333 9.52675 3.15351 9.63596 3.09211C9.74517 3.0307 9.86045 3 9.9818 3C10.1031 3 10.2184 3.0307 10.3276 3.09211C10.4368 3.15351 10.5218 3.23333 10.5825 3.33158L13.786 8.15789H17.2808C17.5234 8.15789 17.7146 8.25614 17.8541 8.45263C17.9937 8.64912 18.0331 8.86404 17.9724 9.09737L16.1158 15.9132C16.0188 16.2325 15.8428 16.4934 15.588 16.6961C15.3331 16.8987 15.0419 17 14.7143 17H5.28571ZM5.26751 15.5263H14.7325L16.3343 9.63158H3.66575L5.26751 15.5263ZM7.94319 8.15789H12.0386L9.9818 5.06316L7.94319 8.15789Z" fill="black" fill-opacity="0.2"/>
</svg>
