<svg width="40" height="40" viewBox="0 0 40 40" fill="none" xmlns="http://www.w3.org/2000/svg">
<rect x="0.5" y="0.5" width="39.0008" height="39" rx="19.5" fill="white"/>
<rect x="0.5" y="0.5" width="39.0008" height="39" rx="19.5" stroke="#E4E4E4"/>
<path d="M14.3642 18.642C13.9841 18.642 13.6761 18.9409 13.6761 19.3097C13.6761 19.6784 13.9841 19.9787 14.3642 19.9787C14.7442 19.9787 15.0522 19.6798 15.0522 19.3097C15.0522 18.9395 14.7442 18.642 14.3642 18.642Z" fill="black"/>
<path d="M21.1669 18.5721C20.7572 18.5721 20.4252 18.8943 20.4252 19.2918C20.4252 19.6894 20.7572 20.0116 21.1669 20.0116C21.5766 20.0116 21.9087 19.6894 21.9087 19.2918C21.9087 18.8943 21.5766 18.5721 21.1669 18.5721Z" fill="black"/>
<path d="M24.9971 19.2918C24.9971 18.9039 25.3221 18.5886 25.7219 18.5886C26.1217 18.5886 26.4467 18.9039 26.4467 19.2918C26.4467 19.6798 26.1217 19.9951 25.7219 19.9951C25.3221 19.9951 24.9971 19.6798 24.9971 19.2918Z" fill="black"/>
<path fill-rule="evenodd" clip-rule="evenodd" d="M12.6759 12H27.3255C28.8033 12 30.0014 13.1625 30.0014 14.5965V23.0331C30.0014 24.467 28.8033 25.6296 27.3255 25.6296H22.1984L20.438 29.6532C20.438 29.6532 20.3179 30.0014 20.024 30.0014C19.7316 30.0014 19.6101 29.6532 19.6101 29.6532L17.8497 25.6296H12.6759C11.1981 25.6296 10 24.467 10 23.0331V14.5965C10 13.1625 11.1981 12 12.6759 12ZM14.6313 21.0439C14.6313 21.0439 16.2744 21 16.2828 19.4577H16.2814C16.2814 19.4577 16.5032 17.655 14.7316 17.4946C14.7316 17.4946 13.9178 17.4864 13.6366 17.9525V16.1209C13.6366 16.1209 12.5148 16.1347 12.44 16.1237V16.1209C12.4343 16.1223 12.44 16.1237 12.44 16.1237V20.9136H13.6366V20.6353C13.6366 20.6353 13.9955 21.0439 14.6313 21.0439ZM18.3894 20.9219V17.6427C18.3894 17.6427 18.5236 16.0401 16.653 15.966V17.1107C16.653 17.1107 17.2181 17.2341 17.2181 17.6756V20.9219H18.3894ZM19.2018 19.2932C19.2018 20.2611 20.0805 21.0466 21.1656 21.0466C22.2506 21.0466 23.1294 20.2611 23.1294 19.2932C23.1294 18.3254 22.2506 17.5398 21.1656 17.5398C20.0805 17.5398 19.2018 18.3254 19.2018 19.2932ZM25.8548 22.7123C27.5996 22.7123 27.5826 21.0466 27.5826 21.0466V17.5864H26.3945V17.9374C26.0059 17.4302 25.3744 17.496 25.3744 17.496C23.7737 17.6097 23.7398 19.041 23.7398 19.041V19.5647C23.7398 20.9452 25.1978 21.0466 25.1978 21.0466C26.2263 21.0466 26.369 20.6024 26.369 20.6024C26.3775 21.6992 25.6442 21.6334 25.6442 21.6334H25.3235V22.7123H25.8548Z" fill="black"/>
</svg>
