<svg width="48" height="48" viewBox="0 0 48 48" fill="none" xmlns="http://www.w3.org/2000/svg">
<path d="M41.9949 23.5569C41.9404 21.3441 41.4777 19.1589 40.6296 17.1116C39.7251 14.9278 38.3994 12.9434 36.728 11.272C35.0566 9.60056 33.0722 8.27494 30.8884 7.37036C28.7046 6.46578 26.3638 6 24 6C21.6362 6 19.2954 6.46578 17.1116 7.37036C14.9278 8.27494 12.9434 9.60056 11.272 11.272C9.60056 12.9434 8.27494 14.9278 7.37036 17.1116C6.46578 19.2954 6 21.6362 6 24C6 26.3638 6.46578 28.7046 7.37036 30.8884C8.27494 33.0722 9.60056 35.0566 11.272 36.728C12.9434 38.3994 14.9278 39.7251 17.1116 40.6296C19.2954 41.5342 21.6362 42 24 42C26.3638 42 28.7046 41.5342 30.8884 40.6296C33.0722 39.7251 35.0566 38.3994 36.728 36.728C38.3994 35.0566 39.7251 33.0722 40.6296 30.8884C41.5342 28.7046 42 26.3638 42 24L41.9949 23.5569ZM48 24C48 27.1517 47.3795 30.2728 46.1733 33.1846C44.9672 36.0964 43.1988 38.7416 40.9702 40.9702C38.7416 43.1988 36.0964 44.9672 33.1846 46.1733C30.2728 47.3795 27.1517 48 24 48C20.8483 48 17.7272 47.3795 14.8154 46.1733C11.9036 44.9672 9.25838 43.1988 7.02979 40.9702C4.8012 38.7416 3.03277 36.0964 1.82666 33.1846C0.620548 30.2728 0 27.1517 0 24C2.75533e-07 20.8483 0.620547 17.7272 1.82666 14.8154C3.03277 11.9036 4.8012 9.25838 7.02979 7.02979C9.25838 4.8012 11.9036 3.03277 14.8154 1.82666C17.7272 0.620548 20.8483 0 24 0C27.1517 4.13299e-07 30.2728 0.620547 33.1846 1.82666C36.0964 3.03277 38.7416 4.8012 40.9702 7.02979C43.1988 9.25838 44.9672 11.9036 46.1733 14.8154C47.3795 17.7272 48 20.8483 48 24Z" fill="#E6E8EA"/>
<path d="M42 24C42 21.6362 41.5342 19.2954 40.6296 17.1116C39.7251 14.9278 38.3994 12.9434 36.728 11.272C35.0566 9.60056 33.0722 8.27494 30.8884 7.37036C28.7046 6.46578 26.3638 6 24 6C22.3431 6 21 4.65685 21 3C21 1.34315 22.3431 7.24234e-08 24 0C27.1517 0 30.2728 0.620547 33.1846 1.82666C36.0964 3.03277 38.7416 4.8012 40.9702 7.02979C43.1988 9.25838 44.9672 11.9036 46.1733 14.8154C47.3795 17.7272 48 20.8483 48 24C48 25.6569 46.6569 27 45 27C43.3431 27 42 25.6569 42 24Z" fill="#58616A"/>
</svg>
