<svg width="16" height="16" viewBox="0 0 16 16" fill="none" xmlns="http://www.w3.org/2000/svg">
<path d="M12.6668 3.33324H1V13.25C1 14.2166 1.7834 15 2.75 15H10.9168C11.8834 15 12.6668 14.2166 12.6668 13.25V3.33324ZM2.16676 4.5H11.5V13.25C11.5 13.5721 11.2389 13.8332 10.9168 13.8332H2.75C2.42789 13.8332 2.16676 13.5721 2.16676 13.25V4.5ZM13.8332 12.5593V2.16676H3.33324V1H15V10.9168C14.997 11.6556 14.53 12.3132 13.8332 12.5593Z" fill="#2D2D2D"/>
<path d="M12.6668 3.33324H1V13.25C1 14.2166 1.7834 15 2.75 15H10.9168C11.8834 15 12.6668 14.2166 12.6668 13.25V3.33324ZM2.16676 4.5H11.5V13.25C11.5 13.5721 11.2389 13.8332 10.9168 13.8332H2.75C2.42789 13.8332 2.16676 13.5721 2.16676 13.25V4.5ZM13.8332 12.5593V2.16676H3.33324V1H15V10.9168C14.997 11.6556 14.53 12.3132 13.8332 12.5593Z" fill="black" fill-opacity="0.2"/>
<path d="M12.6668 3.33324H1V13.25C1 14.2166 1.7834 15 2.75 15H10.9168C11.8834 15 12.6668 14.2166 12.6668 13.25V3.33324ZM2.16676 4.5H11.5V13.25C11.5 13.5721 11.2389 13.8332 10.9168 13.8332H2.75C2.42789 13.8332 2.16676 13.5721 2.16676 13.25V4.5ZM13.8332 12.5593V2.16676H3.33324V1H15V10.9168C14.997 11.6556 14.53 12.3132 13.8332 12.5593Z" fill="black" fill-opacity="0.2"/>
</svg>
