<svg width="20" height="20" viewBox="0 0 20 20" fill="none" xmlns="http://www.w3.org/2000/svg">
<rect x="0.7" y="-0.7" width="14.6" height="14.6" rx="7.3" transform="matrix(1 0 0 -1 2 16.6)" fill="white"/>
<rect x="0.7" y="-0.7" width="14.6" height="14.6" rx="7.3" transform="matrix(1 0 0 -1 2 16.6)" stroke="#2D2D2D" stroke-width="1.4"/>
<rect x="0.7" y="-0.7" width="14.6" height="14.6" rx="7.3" transform="matrix(1 0 0 -1 2 16.6)" stroke="black" stroke-opacity="0.2" stroke-width="1.4"/>
<rect x="0.7" y="-0.7" width="14.6" height="14.6" rx="7.3" transform="matrix(1 0 0 -1 2 16.6)" stroke="black" stroke-opacity="0.2" stroke-width="1.4"/>
<rect x="9.1001" y="5.8501" width="1.8" height="5.5" fill="#2D2D2D"/>
<rect x="9.1001" y="5.8501" width="1.8" height="5.5" fill="black" fill-opacity="0.2"/>
<rect x="9.1001" y="5.8501" width="1.8" height="5.5" fill="black" fill-opacity="0.2"/>
<rect x="9.1001" y="12.3501" width="1.8" height="1.8" fill="#2D2D2D"/>
<rect x="9.1001" y="12.3501" width="1.8" height="1.8" fill="black" fill-opacity="0.2"/>
<rect x="9.1001" y="12.3501" width="1.8" height="1.8" fill="black" fill-opacity="0.2"/>
</svg>
