<svg width="20" height="20" viewBox="0 0 20 20" fill="none" xmlns="http://www.w3.org/2000/svg">
<path d="M12.8291 11L10.0007 8.17157L7.17225 11" stroke="#2D2D2D" stroke-width="1.4" stroke-linecap="round" stroke-linejoin="round"/>
<path d="M12.8291 11L10.0007 8.17157L7.17225 11" stroke="black" stroke-opacity="0.2" stroke-width="1.4" stroke-linecap="round" stroke-linejoin="round"/>
<path d="M12.8291 11L10.0007 8.17157L7.17225 11" stroke="black" stroke-opacity="0.2" stroke-width="1.4" stroke-linecap="round" stroke-linejoin="round"/>
<path d="M10 2.7002C14.0316 2.7002 17.2998 5.96832 17.2998 10C17.2998 14.0316 14.0316 17.2998 10 17.2998C5.96832 17.2998 2.7002 14.0316 2.7002 10C2.7002 5.96832 5.96832 2.7002 10 2.7002Z" stroke="#2D2D2D" stroke-width="1.4" stroke-linecap="round" stroke-linejoin="round"/>
<path d="M10 2.7002C14.0316 2.7002 17.2998 5.96832 17.2998 10C17.2998 14.0316 14.0316 17.2998 10 17.2998C5.96832 17.2998 2.7002 14.0316 2.7002 10C2.7002 5.96832 5.96832 2.7002 10 2.7002Z" stroke="black" stroke-opacity="0.2" stroke-width="1.4" stroke-linecap="round" stroke-linejoin="round"/>
<path d="M10 2.7002C14.0316 2.7002 17.2998 5.96832 17.2998 10C17.2998 14.0316 14.0316 17.2998 10 17.2998C5.96832 17.2998 2.7002 14.0316 2.7002 10C2.7002 5.96832 5.96832 2.7002 10 2.7002Z" stroke="black" stroke-opacity="0.2" stroke-width="1.4" stroke-linecap="round" stroke-linejoin="round"/>
</svg>
