<svg width="145" height="48" viewBox="0 0 145 48" fill="none" xmlns="http://www.w3.org/2000/svg">
<g clip-path="url(#clip0_3928_123458)">
<mask id="mask0_3928_123458" style="mask-type:luminance" maskUnits="userSpaceOnUse" x="0" y="0" width="145" height="48">
<path d="M145 0H0V48H145V0Z" fill="white"/>
</mask>
<g mask="url(#mask0_3928_123458)">
<path d="M23.8487 47.9616C37.0199 47.9616 47.6974 37.225 47.6974 23.9808C47.6974 10.7366 37.0199 0 23.8487 0C10.6774 0 0 10.7366 0 23.9808C0 37.225 10.6774 47.9616 23.8487 47.9616Z" fill="white"/>
<path d="M35.0871 22.327C31.5097 19.831 26.5969 20.7238 24.1167 24.3238C24.0308 24.439 23.9545 24.5638 23.8782 24.6886C21.5315 28.3846 16.6568 29.4598 12.9841 27.1077C11.3338 26.0518 10.1413 24.4102 9.62619 22.5094L9.60711 22.423C9.60711 22.423 9.58803 22.3558 9.5785 22.327C9.28277 21.3094 9.13968 20.2438 9.17784 19.1782C9.17784 12.0742 16.4278 4.15415 26.8736 4.15415C37.3193 4.15415 43.6821 12.343 45.2657 16.8934C45.2371 16.8166 45.218 16.7302 45.1894 16.6534C41.1351 4.81655 28.314 -1.48105 16.5519 2.58935C7.47027 5.72855 1.36501 14.3302 1.35547 23.9974C1.35547 35.1717 9.36863 44.743 20.4917 44.743C28.2759 45.0022 35.3542 40.2118 38.0538 32.8486C39.6469 29.0758 38.4068 24.6886 35.0871 22.3174" fill="#003863"/>
<path d="M45.3892 17.3371C42.5656 9.47465 35.1725 4.21385 26.8636 4.15625C16.4179 4.15625 9.16785 12.0666 9.16785 19.1707C9.13923 20.2363 9.27278 21.3019 9.56851 22.3195C9.43496 21.7915 9.36818 21.2443 9.35864 20.7067C9.35864 13.3051 16.7231 8.17865 24.2975 8.17865C34.5429 8.17865 42.8613 16.5307 42.8613 26.8507C42.8613 34.6651 38.4731 41.8075 31.5188 45.2923C40.4287 42.0475 46.3718 33.5323 46.3718 23.9995C46.3718 21.7435 46.0475 19.4971 45.3797 17.3371" fill="#E4032E"/>
<path d="M81.3057 27.3197H77.9382V10.4141H81.3057V17.0573H84.759V20.2829H81.3057V27.3197ZM63.3428 28.5389V34.0493H82.0307V37.0349H59.9754V28.5389H63.3428ZM70.6978 20.9261V13.9757H59.5175V10.9613H73.9698V20.9261H70.6978ZM74.9142 23.4221V26.3789H58.7734V23.4221H64.23V17.5181H67.4067V23.4221H74.9238H74.9142Z" fill="#575756"/>
<path d="M111.222 10.4141H114.465V37.5821H111.222V10.4141ZM105.555 10.4429H108.675V37.4285H105.555V23.3837H102.197V20.3405H105.555V10.4429ZM96.4737 10.5965L104.019 32.7149L101.205 33.8669L96.4832 19.9181L91.8184 34.0781L88.9375 32.9165L96.4832 10.5965H96.4737Z" fill="#575756"/>
<path d="M141.643 24.8813V19.7069H136.921V16.8173H141.643V10.4237H145.001V24.8909H141.643V24.8813ZM139.401 31.7645C139.41 30.7757 139.01 29.8253 138.294 29.1437C137.598 28.4333 136.644 28.0301 135.642 28.0493C133.601 28.0205 131.922 29.6525 131.893 31.7069C131.865 33.7613 133.486 35.4509 135.528 35.4797C135.566 35.4797 135.604 35.4797 135.642 35.4797C136.634 35.4989 137.588 35.1053 138.294 34.4045C139.019 33.7229 139.42 32.7629 139.401 31.7741M142.702 31.7933C142.702 32.6861 142.511 33.5597 142.139 34.3661C141.767 35.1533 141.261 35.8733 140.641 36.4781C140.002 37.1021 139.239 37.5917 138.418 37.9277C136.663 38.6381 134.707 38.6381 132.952 37.9277C132.122 37.5917 131.359 37.1021 130.71 36.4781C130.09 35.8733 129.575 35.1533 129.213 34.3661C128.469 32.7341 128.469 30.8525 129.213 29.2205C129.575 28.4237 130.09 27.7133 130.71 27.0989C131.359 26.4749 132.122 25.9853 132.952 25.6493C134.707 24.9389 136.663 24.9389 138.418 25.6493C139.248 25.9853 140.002 26.4749 140.641 27.0989C141.271 27.7037 141.776 28.4237 142.139 29.2205C142.511 30.0269 142.702 30.9005 142.702 31.7933ZM121.133 15.5021V12.6701H127.467V10.0781H131.044V12.6701H137.073V15.5021H130.501L137.312 22.4525L135.127 24.5261L129.251 18.3725L123.432 25.0157L121.19 22.9133L128.039 15.5117H121.133V15.5021Z" fill="#575756"/>
</g>
</g>
<defs>
<clipPath id="clip0_3928_123458">
<rect width="145" height="48" fill="white"/>
</clipPath>
</defs>
</svg>
