<svg width="168" height="48" viewBox="0 0 168 48" fill="none" xmlns="http://www.w3.org/2000/svg">
<g clip-path="url(#clip0_3830_139158)">
<path d="M24.0534 48C37.3378 48 48.1069 37.2548 48.1069 24C48.1069 10.7452 37.3378 0 24.0534 0C10.7691 0 0 10.7452 0 24C0 37.2548 10.7691 48 24.0534 48Z" fill="white"/>
<path d="M35.5296 22.1712C31.6447 19.536 26.6735 20.6107 24.064 24.5725C21.8827 27.8822 18.5926 28.2915 17.3172 28.2915C13.1663 28.2915 10.3224 25.3775 9.47962 22.36C9.47061 22.3286 9.4661 22.3061 9.45709 22.2746C9.44808 22.2431 9.43906 22.2072 9.43005 22.1712C9.10104 20.912 9.01541 20.3095 9.01541 18.9739C9.01541 11.7608 16.4293 3.72936 27.1152 3.72936C37.8011 3.72936 44.3136 12.0396 45.9271 16.658C45.9001 16.577 45.873 16.4961 45.846 16.4106C42.7452 7.37635 34.1595 0.882812 24.055 0.882812C11.332 0.882812 1.01562 11.1717 1.01562 23.8665C1.01562 35.2122 9.21822 44.9255 20.5937 44.9255C29.6661 44.9255 35.764 39.8485 38.5628 32.8558C40.0951 29.029 39.009 24.5321 35.5251 22.1712H35.5296Z" fill="#003964"/>
<path d="M46.0748 17.1082C44.7273 12.6023 38.4221 3.73438 27.1232 3.73438C16.4373 3.73438 9.02344 11.7659 9.02344 18.9789C9.02344 20.3145 9.10456 20.9171 9.43807 22.1762C9.29836 21.6276 9.22625 21.0745 9.22625 20.5348C9.22625 13.0205 16.7663 7.81757 24.5137 7.81757C35.0058 7.81757 43.5059 16.3032 43.5059 26.7675C43.5059 34.9744 38.7736 42.0705 31.9006 45.4837C40.7657 42.2864 47.0934 33.8187 47.0934 23.8715C47.0934 21.5196 46.7779 19.4421 46.0793 17.1082H46.0748Z" fill="#ED1A3B"/>
<path d="M61.648 13.1198L66.2541 7.98887H68.494L63.5544 13.4706L68.476 19.0288H66.173L61.648 13.8978V19.0288H59.8047V7.98438H61.648V13.1153V13.1198Z" fill="#58595B"/>
<path d="M72.4907 19.2177C71.3279 19.2177 70.3319 18.8175 69.5116 18.0215C68.6914 17.2256 68.2812 16.2408 68.2812 15.0671C68.2812 13.8934 68.6914 12.9086 69.5116 12.1036C70.3319 11.2987 71.3234 10.8984 72.4907 10.8984C73.658 10.8984 74.6585 11.2987 75.4743 12.1036C76.2901 12.9041 76.6957 13.8934 76.6957 15.0671C76.6957 16.2408 76.2901 17.2256 75.4743 18.0215C74.6585 18.8175 73.6625 19.2177 72.4907 19.2177ZM72.4907 17.7292C73.1442 17.7292 73.7121 17.4774 74.1808 16.9783C74.6495 16.4791 74.8884 15.8405 74.8884 15.0671C74.8884 14.2936 74.654 13.673 74.1808 13.1604C73.7076 12.6477 73.1442 12.3914 72.4907 12.3914C71.8372 12.3914 71.2874 12.6477 70.8141 13.1604C70.3409 13.673 70.1066 14.3071 70.1066 15.0671C70.1066 15.827 70.3409 16.4746 70.8141 16.9783C71.2874 17.4819 71.8417 17.7292 72.4907 17.7292Z" fill="#58595B"/>
<path d="M78.25 19.0284V11.0913H79.9491V12.2785C80.215 11.8873 80.535 11.586 80.9181 11.3747C81.3733 11.1003 81.9096 10.9609 82.5226 10.9609H82.6488V12.5753H82.4595C81.7068 12.5753 81.1074 12.8002 80.6657 13.2544C80.2556 13.6996 80.0483 14.3921 80.0483 15.3319V19.0239H78.2545L78.25 19.0284Z" fill="#58595B"/>
<path d="M85.096 15.8585C85.1997 16.3442 85.4295 16.7399 85.7766 17.0457C86.2859 17.5089 86.9574 17.7427 87.7912 17.7427C88.67 17.7427 89.4903 17.419 90.2519 16.7759L90.7928 18.107C89.9365 18.8445 88.9179 19.2177 87.7461 19.2177C86.403 19.2177 85.3079 18.8355 84.4651 18.0755C83.6223 17.3155 83.2031 16.3172 83.2031 15.0806C83.2031 13.8439 83.5727 12.8681 84.3208 12.0766C85.0645 11.2897 86.0425 10.8984 87.2503 10.8984C88.4582 10.8984 89.4092 11.2897 90.1618 12.0721C90.919 12.8546 91.2976 13.8214 91.2976 14.9726C91.2976 15.2874 91.2705 15.5842 91.2164 15.8585H85.087H85.096ZM85.0645 14.433H89.4768C89.4542 13.9159 89.2379 13.4437 88.8278 13.0165C88.4131 12.5893 87.8903 12.3734 87.2548 12.3734C86.6194 12.3734 86.0605 12.6073 85.6369 13.0704C85.3304 13.4167 85.1411 13.8709 85.0645 14.433Z" fill="#58595B"/>
<path d="M96.2642 13.9069H98.139C98.139 13.3897 97.9362 13.003 97.5351 12.7422C97.134 12.4813 96.5526 12.3554 95.7864 12.3554H95.7414C95.0203 12.3554 94.2586 12.5263 93.4564 12.8636L92.9967 11.4516C93.8304 11.0918 94.7543 10.9074 95.7594 10.8984H95.7909C97.125 10.8984 98.1481 11.1548 98.8647 11.6674C99.5813 12.1801 99.9373 12.994 99.9373 14.1137V19.0244H98.2247V18.152C97.8867 18.4892 97.472 18.75 96.9808 18.9344C96.4895 19.1188 95.9892 19.2132 95.48 19.2132C94.529 19.2132 93.7583 18.9614 93.1679 18.4622C92.5775 17.9586 92.2891 17.347 92.2891 16.614C92.2891 15.8001 92.6541 15.13 93.3842 14.6039C94.0603 14.1407 95.0248 13.9069 96.2732 13.9069H96.2642ZM95.7729 17.7877C96.2371 17.7877 96.6968 17.6753 97.152 17.4459C97.6072 17.2166 97.9362 16.9558 98.139 16.6635V15.3189H96.5346C95.6242 15.3189 94.9887 15.4358 94.6282 15.6652C94.2766 15.9305 94.1054 16.2453 94.1054 16.614C94.1054 16.9513 94.2541 17.2301 94.5515 17.4549C94.849 17.6753 95.2546 17.7877 95.7729 17.7877Z" fill="#58595B"/>
<path d="M111.715 17.6643C112.869 17.6643 113.919 17.2955 114.874 16.5535L115.636 17.8981C114.649 18.775 113.342 19.2157 111.715 19.2157C110.088 19.2157 108.763 18.6671 107.659 17.5743C106.554 16.4816 106 15.128 106 13.5091C106 11.8902 106.554 10.5232 107.659 9.43043C108.767 8.33769 110.119 7.78906 111.715 7.78906C113.31 7.78906 114.608 8.23426 115.573 9.12015L114.825 10.4647C113.883 9.71374 112.846 9.3405 111.715 9.3405C110.656 9.3405 109.75 9.73173 109.002 10.5142C108.24 11.3281 107.857 12.3264 107.857 13.5091C107.857 14.6918 108.235 15.6856 109.002 16.4861C109.754 17.2685 110.66 17.6598 111.715 17.6598V17.6643Z" fill="#58595B"/>
<path d="M122.368 15.0792V11.0859H124.18V19.023H122.449V17.9752C122.228 18.3664 121.931 18.6632 121.561 18.8611C121.128 19.0949 120.678 19.2119 120.213 19.2119C119.281 19.2119 118.532 18.8926 117.964 18.263C117.397 17.6289 117.117 16.7745 117.117 15.6953V11.0859H118.911V15.2501C118.911 16.082 119.051 16.7071 119.33 17.1118C119.61 17.5165 120.038 17.7234 120.606 17.7234C120.889 17.7234 121.178 17.6244 121.462 17.4311C121.75 17.2332 121.967 16.9724 122.115 16.6486C122.282 16.2574 122.368 15.7357 122.368 15.0792Z" fill="#58595B"/>
<path d="M125.544 17.5539L126.67 16.3982C126.986 16.8299 127.337 17.1671 127.716 17.41C128.09 17.6303 128.482 17.7427 128.906 17.7427C129.329 17.7427 129.649 17.6618 129.929 17.4954C130.208 17.3335 130.348 17.1132 130.348 16.8389C130.348 16.5645 130.213 16.3487 129.942 16.1958C129.672 16.0429 129.352 15.899 128.982 15.7596C128.545 15.6202 128.103 15.4673 127.648 15.3009C127.035 15.0806 126.585 14.7928 126.296 14.4465C126.012 14.0957 125.868 13.7 125.868 13.2593C125.868 12.6073 126.175 12.0451 126.787 11.5865C127.4 11.1278 128.126 10.8984 128.964 10.8984C129.852 10.8984 130.578 11.1098 131.141 11.5325C131.43 11.7528 131.655 12.0272 131.826 12.3554L130.713 13.4347C130.564 13.1829 130.393 12.976 130.19 12.8186C129.843 12.5128 129.401 12.3599 128.874 12.3599C128.568 12.3599 128.302 12.4364 128.072 12.5893C127.842 12.7422 127.729 12.9265 127.729 13.1334C127.729 13.3672 127.856 13.5606 128.113 13.718C128.365 13.8754 128.743 14.0283 129.239 14.1767C129.42 14.2306 129.622 14.2936 129.857 14.3656C130.627 14.6174 131.213 14.9457 131.61 15.3459C132.006 15.7461 132.205 16.2273 132.205 16.7894C132.205 17.4414 131.889 18.0125 131.254 18.4937C130.618 18.9749 129.807 19.2132 128.825 19.2132C128 19.2132 127.27 19.0244 126.634 18.6421C126.211 18.3903 125.846 18.026 125.539 17.5494L125.544 17.5539Z" fill="#58595B"/>
<path d="M135.949 8.53906V11.0888H137.679V12.5458H135.949V16.584C135.949 16.9663 136.039 17.2271 136.228 17.3665C136.413 17.5104 136.674 17.5823 137.012 17.5823H137.679V19.0259H136.584C135.728 19.0259 135.101 18.837 134.709 18.4547C134.317 18.077 134.123 17.5104 134.123 16.7594V12.5458H132.758V11.0888H134.123V8.53906H135.949Z" fill="#58595B"/>
<path d="M142.834 19.2177C141.672 19.2177 140.676 18.8175 139.855 18.0215C139.035 17.2256 138.625 16.2408 138.625 15.0671C138.625 13.8934 139.035 12.9086 139.855 12.1036C140.676 11.2987 141.667 10.8984 142.834 10.8984C144.002 10.8984 145.002 11.2987 145.818 12.1036C146.634 12.9041 147.039 13.8934 147.039 15.0671C147.039 16.2408 146.634 17.2256 145.818 18.0215C145.002 18.8175 144.006 19.2177 142.834 19.2177ZM142.834 17.7292C143.488 17.7292 144.056 17.4774 144.525 16.9783C144.998 16.4746 145.232 15.8405 145.232 15.0671C145.232 14.2936 144.998 13.673 144.525 13.1604C144.051 12.6477 143.488 12.3914 142.834 12.3914C142.181 12.3914 141.631 12.6477 141.158 13.1604C140.689 13.673 140.45 14.3071 140.45 15.0671C140.45 15.827 140.685 16.4746 141.158 16.9783C141.631 17.4819 142.185 17.7292 142.834 17.7292Z" fill="#58595B"/>
<path d="M157.046 10.9041C157.979 10.9041 158.705 11.2234 159.223 11.862C159.741 12.5005 160.003 13.3549 160.003 14.4207V19.03H158.223V14.8794C158.223 14.034 158.11 13.4089 157.88 12.9997C157.65 12.595 157.281 12.3881 156.762 12.3881C156.456 12.3881 156.186 12.4735 155.96 12.6489C155.73 12.8243 155.55 13.0806 155.415 13.4179C155.266 13.7641 155.194 14.2498 155.194 14.8749V19.0255H153.414V14.8749C153.414 14.0295 153.297 13.4044 153.067 12.9952C152.832 12.5905 152.463 12.3836 151.954 12.3836C151.647 12.3836 151.386 12.469 151.169 12.6444C150.953 12.8198 150.768 13.0761 150.624 13.4134C150.466 13.8046 150.385 14.3218 150.385 14.9648V14.9468V19.0165H148.609V11.0795H150.29V12.1408C150.737 11.3088 151.422 10.8906 152.355 10.8906C153.351 10.8906 154.081 11.3718 154.545 12.3341C154.82 11.8575 155.149 11.5022 155.537 11.2549C155.924 11.012 156.429 10.8906 157.051 10.8906L157.046 10.9041Z" fill="#58595B"/>
<path d="M161.333 17.5539L162.459 16.3982C162.775 16.8299 163.126 17.1671 163.505 17.41C163.875 17.6303 164.276 17.7427 164.695 17.7427C165.114 17.7427 165.438 17.6618 165.718 17.4954C165.997 17.3335 166.137 17.1132 166.137 16.8389C166.137 16.5645 166.002 16.3487 165.731 16.1958C165.461 16.0429 165.141 15.899 164.771 15.7596C164.334 15.6202 163.893 15.4673 163.437 15.3009C162.824 15.0806 162.374 14.7928 162.085 14.4465C161.801 14.0957 161.657 13.7 161.657 13.2593C161.657 12.6073 161.964 12.0451 162.577 11.5865C163.189 11.1278 163.915 10.8984 164.753 10.8984C165.641 10.8984 166.367 11.1098 166.93 11.5325C167.219 11.7528 167.444 12.0272 167.615 12.3554L166.502 13.4347C166.353 13.1829 166.178 12.976 165.979 12.8186C165.632 12.5128 165.191 12.3599 164.663 12.3599C164.357 12.3599 164.091 12.4364 163.861 12.5893C163.631 12.7422 163.518 12.9265 163.518 13.1334C163.518 13.3672 163.645 13.5606 163.902 13.718C164.154 13.8754 164.533 14.0283 165.028 14.1767C165.209 14.2306 165.416 14.2936 165.646 14.3656C166.416 14.6174 167.002 14.9457 167.399 15.3459C167.796 15.7461 167.994 16.2273 167.994 16.7894C167.994 17.4414 167.678 18.0125 167.043 18.4937C166.407 18.9749 165.596 19.2132 164.614 19.2132C163.789 19.2132 163.059 19.0244 162.423 18.6421C162 18.3903 161.635 18.026 161.328 17.5494L161.333 17.5539Z" fill="#58595B"/>
<path d="M59.8125 37.171L60.9663 36.0018C61.2772 36.6584 61.6648 37.1441 62.1381 37.4543C62.6473 37.7916 63.1611 37.9625 63.6839 37.9625C64.2338 37.9625 64.7025 37.8186 65.0946 37.5263C65.4822 37.2475 65.6805 36.8787 65.6805 36.42C65.6805 36.0108 65.4822 35.6781 65.0901 35.4262C64.6935 35.1699 64.2653 34.9541 63.8101 34.7742C63.3504 34.6033 62.8682 34.4189 62.3679 34.2211C61.5657 33.9333 60.9933 33.551 60.6508 33.0833C60.3083 32.6157 60.1325 32.121 60.1325 31.6039C60.1325 30.7944 60.475 30.1064 61.1691 29.5308C61.8586 28.9552 62.7014 28.6719 63.702 28.6719C64.7521 28.6719 65.6084 28.9417 66.2664 29.4813C66.6044 29.7421 66.8433 30.0299 66.974 30.3492L65.9239 31.4555C65.8337 31.2756 65.6715 31.0732 65.4281 30.8394C64.9188 30.3807 64.3104 30.1514 63.6118 30.1514C63.1702 30.1514 62.7826 30.2728 62.449 30.5201C62.1155 30.7629 61.9443 31.0912 61.9443 31.5004C61.9443 32.121 62.6248 32.6696 63.9859 33.1463C64.2383 33.2272 64.4952 33.3172 64.7656 33.4161C65.676 33.7669 66.3565 34.1761 66.8117 34.6483C67.2669 35.1204 67.4923 35.7095 67.4923 36.4066C67.4923 37.234 67.1362 37.949 66.4287 38.5471C65.7256 39.1542 64.8242 39.46 63.7155 39.46C62.6969 39.46 61.8496 39.2306 61.1826 38.7719C60.5336 38.3222 60.0784 37.7871 59.817 37.171H59.8125Z" fill="#58595B"/>
<path d="M70.3205 36.2873C70.4197 36.746 70.636 37.1193 70.965 37.4116C71.4472 37.8523 72.0782 38.0681 72.8669 38.0681C73.6962 38.0681 74.4714 37.7623 75.1925 37.1552L75.7018 38.4144C74.8905 39.1114 73.9305 39.4622 72.8218 39.4622C71.5509 39.4622 70.5188 39.1024 69.7256 38.3829C68.9324 37.6634 68.5312 36.7235 68.5312 35.5543C68.5312 34.3851 68.8828 33.4633 69.5859 32.7168C70.2935 31.9748 71.2129 31.6016 72.3531 31.6016C73.4934 31.6016 74.3902 31.9703 75.1068 32.7078C75.8189 33.4453 76.1795 34.3582 76.1795 35.4464C76.1795 35.7432 76.1525 36.0265 76.1029 36.2828H70.3115L70.3205 36.2873ZM70.2935 34.9383H74.4624C74.4443 34.4481 74.237 34.0029 73.8449 33.5982C73.4573 33.1935 72.9616 32.9911 72.3621 32.9911C71.7627 32.9911 71.2309 33.2115 70.8298 33.6477C70.5413 33.9759 70.3611 34.4076 70.289 34.9338L70.2935 34.9383Z" fill="#58595B"/>
<path d="M77.6406 39.2818V31.7855H79.2451V32.9097C79.4975 32.541 79.7994 32.2577 80.16 32.0553C80.5927 31.7945 81.0974 31.6641 81.6743 31.6641H81.796V33.193H81.6157C80.9036 33.193 80.3403 33.4089 79.9211 33.8361C79.529 34.2543 79.3352 34.9063 79.3352 35.7967V39.2818H77.6406Z" fill="#58595B"/>
<path d="M86.2032 37.8566L88.2133 31.7812H89.98L87.3705 39.2776H85.0314L82.4219 31.7812H84.1931L86.2032 37.8566Z" fill="#58595B"/>
<path d="M92.9527 29.6787C92.9527 29.9665 92.8445 30.2183 92.6282 30.4342C92.4119 30.65 92.155 30.7579 91.853 30.7579C91.551 30.7579 91.2941 30.65 91.0823 30.4342C90.866 30.2183 90.7578 29.9665 90.7578 29.6787C90.7578 29.3909 90.866 29.1211 91.0823 28.9097C91.2986 28.6939 91.5555 28.5859 91.853 28.5859C92.1505 28.5859 92.4119 28.6939 92.6282 28.9097C92.8445 29.1256 92.9527 29.3819 92.9527 29.6787ZM91.0147 39.2841V31.7877H92.7228V39.2841H91.0147Z" fill="#58595B"/>
<path d="M94.2779 35.5364C94.2779 34.4571 94.6836 33.5352 95.4993 32.7618C96.3151 31.9883 97.3472 31.6016 98.5956 31.6016C99.5736 31.6016 100.497 31.9163 101.354 32.5459L100.799 33.877C100.047 33.2969 99.3122 33.0091 98.5911 33.0091C97.8204 33.0091 97.1984 33.2519 96.7162 33.7421C96.234 34.2323 95.9951 34.8303 95.9951 35.5364C95.9951 36.2424 96.234 36.8405 96.7162 37.3261C97.1984 37.8118 97.8204 38.0501 98.5911 38.0501C99.3618 38.0501 100.065 37.7668 100.827 37.1957L101.381 38.5268C100.552 39.1474 99.6232 39.4532 98.5911 39.4532C97.3427 39.4532 96.3106 39.0709 95.4948 38.302C94.6791 37.533 94.2734 36.6111 94.2734 35.5319L94.2779 35.5364Z" fill="#58595B"/>
<path d="M104.18 36.2873C104.279 36.746 104.495 37.1193 104.824 37.4116C105.302 37.8523 105.938 38.0681 106.726 38.0681C107.556 38.0681 108.331 37.7623 109.052 37.1552L109.561 38.4144C108.75 39.1114 107.79 39.4622 106.681 39.4622C105.41 39.4622 104.378 39.1024 103.585 38.3829C102.792 37.6634 102.391 36.7235 102.391 35.5543C102.391 34.3851 102.742 33.4633 103.45 32.7168C104.157 31.9748 105.077 31.6016 106.217 31.6016C107.357 31.6016 108.254 31.9703 108.971 32.7078C109.687 33.4453 110.043 34.3582 110.043 35.4464C110.043 35.7432 110.016 36.0265 109.967 36.2828H104.175L104.18 36.2873ZM104.148 34.9383H108.317C108.299 34.4481 108.092 34.0029 107.7 33.5982C107.308 33.1935 106.816 32.9911 106.217 32.9911C105.618 32.9911 105.086 33.2115 104.689 33.6477C104.401 33.9759 104.22 34.4076 104.148 34.9338V34.9383Z" fill="#58595B"/>
</g>
<defs>
<clipPath id="clip0_3830_139158">
<rect width="168" height="48" fill="white"/>
</clipPath>
</defs>
</svg>
