<svg width="24" height="24" viewBox="0 0 24 24" fill="none" xmlns="http://www.w3.org/2000/svg">
<path d="M9.86876 2H17.3998C18.7254 2 19.7998 3.11914 19.7998 4.5V22H3.7998V8.32148L9.86876 2ZM9.40001 4.84492L6.53128 7.8332H9.40001V4.84492ZM18.1997 20.3332V4.5C18.1997 4.03984 17.8416 3.6668 17.3998 3.6668H10.9997V9.5H5.39992V20.3332H18.1997Z" fill="#2D2D2D"/>
<path d="M9.86876 2H17.3998C18.7254 2 19.7998 3.11914 19.7998 4.5V22H3.7998V8.32148L9.86876 2ZM9.40001 4.84492L6.53128 7.8332H9.40001V4.84492ZM18.1997 20.3332V4.5C18.1997 4.03984 17.8416 3.6668 17.3998 3.6668H10.9997V9.5H5.39992V20.3332H18.1997Z" fill="black" fill-opacity="0.2"/>
<path d="M9.86876 2H17.3998C18.7254 2 19.7998 3.11914 19.7998 4.5V22H3.7998V8.32148L9.86876 2ZM9.40001 4.84492L6.53128 7.8332H9.40001V4.84492ZM18.1997 20.3332V4.5C18.1997 4.03984 17.8416 3.6668 17.3998 3.6668H10.9997V9.5H5.39992V20.3332H18.1997Z" fill="black" fill-opacity="0.2"/>
</svg>
