<svg width="20" height="20" viewBox="0 0 20 20" fill="none" xmlns="http://www.w3.org/2000/svg">
<path d="M5 3L5 17" stroke="#2D2D2D" stroke-width="1.4" stroke-linecap="round"/>
<path d="M5 3L5 17" stroke="black" stroke-opacity="0.2" stroke-width="1.4" stroke-linecap="round"/>
<path d="M5 3L5 17" stroke="black" stroke-opacity="0.2" stroke-width="1.4" stroke-linecap="round"/>
<path d="M10 3L10 17" stroke="#2D2D2D" stroke-width="1.4" stroke-linecap="round"/>
<path d="M10 3L10 17" stroke="black" stroke-opacity="0.2" stroke-width="1.4" stroke-linecap="round"/>
<path d="M10 3L10 17" stroke="black" stroke-opacity="0.2" stroke-width="1.4" stroke-linecap="round"/>
<path d="M15 3L15 17" stroke="#2D2D2D" stroke-width="1.4" stroke-linecap="round"/>
<path d="M15 3L15 17" stroke="black" stroke-opacity="0.2" stroke-width="1.4" stroke-linecap="round"/>
<path d="M15 3L15 17" stroke="black" stroke-opacity="0.2" stroke-width="1.4" stroke-linecap="round"/>
<rect x="3.4998" y="7.7" width="3" height="3" rx="1.5" fill="white"/>
<rect x="3.4998" y="7.7" width="3" height="3" rx="1.5" stroke="#2D2D2D" stroke-width="1.4"/>
<rect x="3.4998" y="7.7" width="3" height="3" rx="1.5" stroke="black" stroke-opacity="0.2" stroke-width="1.4"/>
<rect x="3.4998" y="7.7" width="3" height="3" rx="1.5" stroke="black" stroke-opacity="0.2" stroke-width="1.4"/>
<rect x="8.4998" y="10.7" width="3" height="3" rx="1.5" fill="white"/>
<rect x="8.4998" y="10.7" width="3" height="3" rx="1.5" stroke="#2D2D2D" stroke-width="1.4"/>
<rect x="8.4998" y="10.7" width="3" height="3" rx="1.5" stroke="black" stroke-opacity="0.2" stroke-width="1.4"/>
<rect x="8.4998" y="10.7" width="3" height="3" rx="1.5" stroke="black" stroke-opacity="0.2" stroke-width="1.4"/>
<rect x="13.4998" y="5.7" width="3" height="3" rx="1.5" fill="white"/>
<rect x="13.4998" y="5.7" width="3" height="3" rx="1.5" stroke="#2D2D2D" stroke-width="1.4"/>
<rect x="13.4998" y="5.7" width="3" height="3" rx="1.5" stroke="black" stroke-opacity="0.2" stroke-width="1.4"/>
<rect x="13.4998" y="5.7" width="3" height="3" rx="1.5" stroke="black" stroke-opacity="0.2" stroke-width="1.4"/>
</svg>
