<svg width="20" height="20" viewBox="0 0 20 20" fill="none" xmlns="http://www.w3.org/2000/svg">
<path d="M2.50342 7.12695C2.46655 6.1433 2.79377 5.18386 3.41748 4.43262L3.54639 4.28516C4.2475 3.52087 5.21797 3.06442 6.24854 3.0127C6.80772 3.02389 7.35599 3.16369 7.85205 3.41992L8.06299 3.53809C8.61681 3.87216 9.07395 4.34706 9.38721 4.91602L10.0005 6.03027L10.6138 4.91602C10.8879 4.41818 11.2721 3.99247 11.7349 3.66992L11.937 3.53809C12.4861 3.20689 13.112 3.0256 13.7515 3.0127C14.7174 3.06103 15.6307 3.46487 16.3188 4.14453L16.4546 4.28516C17.1616 5.05598 17.5369 6.07781 17.4976 7.12695L17.4966 7.14062V7.15332C17.4966 8.136 17.0977 9.21514 16.4243 10.3223C15.7553 11.4222 14.8488 12.495 13.9146 13.4502C12.0849 15.3208 10.2128 16.6746 9.99951 16.8271C9.77271 16.6642 7.90809 15.3125 6.08545 13.4492C5.15127 12.4942 4.24466 11.422 3.57568 10.3223C2.90231 9.21529 2.50342 8.13597 2.50342 7.15332V7.12695Z" stroke="#2D2D2D" stroke-width="1.4"/>
<path d="M2.50342 7.12695C2.46655 6.1433 2.79377 5.18386 3.41748 4.43262L3.54639 4.28516C4.2475 3.52087 5.21797 3.06442 6.24854 3.0127C6.80772 3.02389 7.35599 3.16369 7.85205 3.41992L8.06299 3.53809C8.61681 3.87216 9.07395 4.34706 9.38721 4.91602L10.0005 6.03027L10.6138 4.91602C10.8879 4.41818 11.2721 3.99247 11.7349 3.66992L11.937 3.53809C12.4861 3.20689 13.112 3.0256 13.7515 3.0127C14.7174 3.06103 15.6307 3.46487 16.3188 4.14453L16.4546 4.28516C17.1616 5.05598 17.5369 6.07781 17.4976 7.12695L17.4966 7.14062V7.15332C17.4966 8.136 17.0977 9.21514 16.4243 10.3223C15.7553 11.4222 14.8488 12.495 13.9146 13.4502C12.0849 15.3208 10.2128 16.6746 9.99951 16.8271C9.77271 16.6642 7.90809 15.3125 6.08545 13.4492C5.15127 12.4942 4.24466 11.422 3.57568 10.3223C2.90231 9.21529 2.50342 8.13597 2.50342 7.15332V7.12695Z" stroke="black" stroke-opacity="0.2" stroke-width="1.4"/>
<path d="M2.50342 7.12695C2.46655 6.1433 2.79377 5.18386 3.41748 4.43262L3.54639 4.28516C4.2475 3.52087 5.21797 3.06442 6.24854 3.0127C6.80772 3.02389 7.35599 3.16369 7.85205 3.41992L8.06299 3.53809C8.61681 3.87216 9.07395 4.34706 9.38721 4.91602L10.0005 6.03027L10.6138 4.91602C10.8879 4.41818 11.2721 3.99247 11.7349 3.66992L11.937 3.53809C12.4861 3.20689 13.112 3.0256 13.7515 3.0127C14.7174 3.06103 15.6307 3.46487 16.3188 4.14453L16.4546 4.28516C17.1616 5.05598 17.5369 6.07781 17.4976 7.12695L17.4966 7.14062V7.15332C17.4966 8.136 17.0977 9.21514 16.4243 10.3223C15.7553 11.4222 14.8488 12.495 13.9146 13.4502C12.0849 15.3208 10.2128 16.6746 9.99951 16.8271C9.77271 16.6642 7.90809 15.3125 6.08545 13.4492C5.15127 12.4942 4.24466 11.422 3.57568 10.3223C2.90231 9.21529 2.50342 8.13597 2.50342 7.15332V7.12695Z" stroke="black" stroke-opacity="0.2" stroke-width="1.4"/>
</svg>
