<svg width="12" height="12" viewBox="0 0 12 12" fill="none" xmlns="http://www.w3.org/2000/svg">
<path d="M12 5V11C12 11.5523 11.5523 12 11 12H7.5V9C7.5 8.44771 7.05228 8 6.5 8H5.5C4.94772 8 4.5 8.44771 4.5 9V12H1C0.447715 12 0 11.5523 0 11V5L6 0L12 5Z" fill="#2D2D2D"/>
<path d="M12 5V11C12 11.5523 11.5523 12 11 12H7.5V9C7.5 8.44771 7.05228 8 6.5 8H5.5C4.94772 8 4.5 8.44771 4.5 9V12H1C0.447715 12 0 11.5523 0 11V5L6 0L12 5Z" fill="black" fill-opacity="0.2"/>
<path d="M12 5V11C12 11.5523 11.5523 12 11 12H7.5V9C7.5 8.44771 7.05228 8 6.5 8H5.5C4.94772 8 4.5 8.44771 4.5 9V12H1C0.447715 12 0 11.5523 0 11V5L6 0L12 5Z" fill="black" fill-opacity="0.2"/>
</svg>
