<svg width="16" height="16" viewBox="0 0 16 16" fill="none" xmlns="http://www.w3.org/2000/svg">
<path d="M15.9234 10.7988L14.1048 4.55488C13.1438 1.24912 9.55175 -0.688608 6.08198 0.226847C3.75777 0.840273 1.97879 2.62558 1.45716 4.86846L0.0503043 10.8987C-0.200838 11.9766 0.512918 13.0442 1.64404 13.2834C1.79322 13.3149 1.94535 13.3309 2.09813 13.3309H4.62103C5.00529 15.134 6.85148 16.299 8.74423 15.9329C10.1206 15.6668 11.196 14.6421 11.4756 13.3309H13.9028C15.0618 13.3302 16.0008 12.4351 16.0001 11.331C16.0001 11.1511 15.9739 10.9721 15.9234 10.7988ZM8.0485 14.6633C7.16262 14.6599 6.37411 14.1264 6.07903 13.3306H10.0183C9.72289 14.1264 8.93439 14.6595 8.0485 14.6633ZM14.4589 11.7348C14.3264 11.9019 14.1189 11.9997 13.8992 11.9981H2.09846C1.71224 11.9981 1.39913 11.6999 1.39913 11.3316C1.39913 11.2829 1.4047 11.2345 1.41585 11.187L2.82238 5.15675C3.43614 2.52688 6.17149 0.869008 8.93242 1.4537C10.7786 1.84474 12.2481 3.17311 12.7546 4.90907L14.5733 11.153C14.6336 11.3532 14.591 11.569 14.4589 11.7348Z" fill="#2D2D2D"/>
</svg>
