<svg width="20" height="20" viewBox="0 0 20 20" fill="none" xmlns="http://www.w3.org/2000/svg">
<circle cx="8" cy="6" r="2.3" stroke="#2D2D2D" stroke-width="1.4"/>
<circle cx="8" cy="6" r="2.3" stroke="black" stroke-opacity="0.2" stroke-width="1.4"/>
<circle cx="8" cy="6" r="2.3" stroke="black" stroke-opacity="0.2" stroke-width="1.4"/>
<path d="M8 11.7002C10.4315 11.7002 12.1768 12.3878 13.2432 12.9922L13.6592 13.2432C14.0631 13.5048 14.2998 14.0047 14.2998 14.6182V16.2998H1.7002V14.6182C1.7002 14.0815 1.88139 13.6318 2.19727 13.3525L2.34082 13.2432C3.33786 12.5976 5.22125 11.7002 8 11.7002Z" stroke="#2D2D2D" stroke-width="1.4"/>
<path d="M8 11.7002C10.4315 11.7002 12.1768 12.3878 13.2432 12.9922L13.6592 13.2432C14.0631 13.5048 14.2998 14.0047 14.2998 14.6182V16.2998H1.7002V14.6182C1.7002 14.0815 1.88139 13.6318 2.19727 13.3525L2.34082 13.2432C3.33786 12.5976 5.22125 11.7002 8 11.7002Z" stroke="black" stroke-opacity="0.2" stroke-width="1.4"/>
<path d="M8 11.7002C10.4315 11.7002 12.1768 12.3878 13.2432 12.9922L13.6592 13.2432C14.0631 13.5048 14.2998 14.0047 14.2998 14.6182V16.2998H1.7002V14.6182C1.7002 14.0815 1.88139 13.6318 2.19727 13.3525L2.34082 13.2432C3.33786 12.5976 5.22125 11.7002 8 11.7002Z" stroke="black" stroke-opacity="0.2" stroke-width="1.4"/>
<path d="M16 5V11" stroke="#2D2D2D" stroke-width="1.4"/>
<path d="M16 5V11" stroke="black" stroke-opacity="0.2" stroke-width="1.4"/>
<path d="M16 5V11" stroke="black" stroke-opacity="0.2" stroke-width="1.4"/>
<path d="M13 8H19" stroke="#2D2D2D" stroke-width="1.4"/>
<path d="M13 8H19" stroke="black" stroke-opacity="0.2" stroke-width="1.4"/>
<path d="M13 8H19" stroke="black" stroke-opacity="0.2" stroke-width="1.4"/>
</svg>
