<svg width="20" height="20" viewBox="0 0 20 20" fill="none" xmlns="http://www.w3.org/2000/svg">
<path d="M16.2998 6.7002V16C16.2998 16.718 15.718 17.2998 15 17.2998H5C4.28203 17.2998 3.7002 16.718 3.7002 16V6.7002H16.2998Z" stroke="#2D2D2D" stroke-width="1.4"/>
<path d="M16.2998 6.7002V16C16.2998 16.718 15.718 17.2998 15 17.2998H5C4.28203 17.2998 3.7002 16.718 3.7002 16V6.7002H16.2998Z" stroke="black" stroke-opacity="0.2" stroke-width="1.4"/>
<path d="M16.2998 6.7002V16C16.2998 16.718 15.718 17.2998 15 17.2998H5C4.28203 17.2998 3.7002 16.718 3.7002 16V6.7002H16.2998Z" stroke="black" stroke-opacity="0.2" stroke-width="1.4"/>
<mask id="path-2-inside-1_77_19289" fill="white">
<path d="M5 5C5 3.34315 6.34315 2 8 2H12C13.6569 2 15 3.34315 15 5V7H5V5Z"/>
</mask>
<path d="M3.6 5C3.6 2.56995 5.56995 0.6 8 0.6H12C14.4301 0.6 16.4 2.56995 16.4 5H13.6C13.6 4.11634 12.8837 3.4 12 3.4H8C7.11634 3.4 6.4 4.11634 6.4 5H3.6ZM15 7H5H15ZM3.6 7V5C3.6 2.56995 5.56995 0.6 8 0.6V3.4C7.11634 3.4 6.4 4.11634 6.4 5V7H3.6ZM12 0.6C14.4301 0.6 16.4 2.56995 16.4 5V7H13.6V5C13.6 4.11634 12.8837 3.4 12 3.4V0.6Z" fill="#2D2D2D" mask="url(#path-2-inside-1_77_19289)"/>
<path d="M3.6 5C3.6 2.56995 5.56995 0.6 8 0.6H12C14.4301 0.6 16.4 2.56995 16.4 5H13.6C13.6 4.11634 12.8837 3.4 12 3.4H8C7.11634 3.4 6.4 4.11634 6.4 5H3.6ZM15 7H5H15ZM3.6 7V5C3.6 2.56995 5.56995 0.6 8 0.6V3.4C7.11634 3.4 6.4 4.11634 6.4 5V7H3.6ZM12 0.6C14.4301 0.6 16.4 2.56995 16.4 5V7H13.6V5C13.6 4.11634 12.8837 3.4 12 3.4V0.6Z" fill="black" fill-opacity="0.2" mask="url(#path-2-inside-1_77_19289)"/>
<path d="M3.6 5C3.6 2.56995 5.56995 0.6 8 0.6H12C14.4301 0.6 16.4 2.56995 16.4 5H13.6C13.6 4.11634 12.8837 3.4 12 3.4H8C7.11634 3.4 6.4 4.11634 6.4 5H3.6ZM15 7H5H15ZM3.6 7V5C3.6 2.56995 5.56995 0.6 8 0.6V3.4C7.11634 3.4 6.4 4.11634 6.4 5V7H3.6ZM12 0.6C14.4301 0.6 16.4 2.56995 16.4 5V7H13.6V5C13.6 4.11634 12.8837 3.4 12 3.4V0.6Z" fill="black" fill-opacity="0.2" mask="url(#path-2-inside-1_77_19289)"/>
<line x1="9.98125" y1="10" x2="9.98125" y2="12" stroke="#2D2D2D" stroke-width="1.4"/>
<line x1="9.98125" y1="10" x2="9.98125" y2="12" stroke="black" stroke-opacity="0.2" stroke-width="1.4"/>
<line x1="9.98125" y1="10" x2="9.98125" y2="12" stroke="black" stroke-opacity="0.2" stroke-width="1.4"/>
</svg>
