<svg width="28" height="28" viewBox="0 0 28 28" fill="none" xmlns="http://www.w3.org/2000/svg">
<path d="M28 8.16536V19.832C28 21.2542 27.482 22.625 26.5417 23.6902C26.1135 24.1755 25.3762 24.2187 24.8955 23.7929C24.4113 23.3659 24.3658 22.6285 24.7917 22.1455C25.3552 21.5062 25.6667 20.6849 25.6667 19.8309V8.16536C25.6667 6.2357 24.0963 4.66536 22.1667 4.66536H5.83333C3.90367 4.66536 2.33333 6.2357 2.33333 8.16536V19.832C2.33333 21.7617 3.90367 23.332 5.83333 23.332H12.8333C13.4785 23.332 14 23.8547 14 24.4987C14 25.1427 13.4785 25.6654 12.8333 25.6654H5.83333C2.61683 25.6654 0 23.0485 0 19.832V8.16536C0 4.94886 2.61683 2.33203 5.83333 2.33203H22.1667C25.3832 2.33203 28 4.94886 28 8.16536ZM7 10.4987H21C21.6452 10.4987 22.1667 9.97603 22.1667 9.33203C22.1667 8.68803 21.6452 8.16536 21 8.16536H7C6.35483 8.16536 5.83333 8.68803 5.83333 9.33203C5.83333 9.97603 6.35483 10.4987 7 10.4987ZM23.9167 18.6654C23.9167 20.1295 23.2248 21.4222 22.1667 22.2785V27.2369C22.1667 27.9637 21.2438 28.2752 20.8028 27.6977L19.25 25.6642L17.6972 27.6977C17.2562 28.2752 16.3333 27.9637 16.3333 27.2369V22.2785C15.2752 21.4222 14.5833 20.1295 14.5833 18.6654C14.5833 16.0917 16.6763 13.9987 19.25 13.9987C21.8237 13.9987 23.9167 16.0917 23.9167 18.6654ZM16.9167 18.6654C16.9167 19.9522 17.9632 20.9987 19.25 20.9987C20.5368 20.9987 21.5833 19.9522 21.5833 18.6654C21.5833 17.3785 20.5368 16.332 19.25 16.332C17.9632 16.332 16.9167 17.3785 16.9167 18.6654ZM14 13.9987C14 13.3547 13.4785 12.832 12.8333 12.832H7C6.35483 12.832 5.83333 13.3547 5.83333 13.9987C5.83333 14.6427 6.35483 15.1654 7 15.1654H12.8333C13.4785 15.1654 14 14.6427 14 13.9987ZM7 17.4987C6.35483 17.4987 5.83333 18.0214 5.83333 18.6654C5.83333 19.3094 6.35483 19.832 7 19.832H10.5C11.1452 19.832 11.6667 19.3094 11.6667 18.6654C11.6667 18.0214 11.1452 17.4987 10.5 17.4987H7Z" fill="#2D2D2D"/>
</svg>
