<svg width="40" height="40" viewBox="0 0 40 40" fill="none" xmlns="http://www.w3.org/2000/svg">
<path d="M20.3223 36.793C20.1092 36.8463 19.8859 36.8466 19.6729 36.793L19.998 35.5L20.3223 36.793ZM19.9941 2.5C20.4039 2.5 20.7912 2.68823 21.0439 3.01074C22.9234 5.40978 25.808 6.96479 29.0781 6.96484H29.0859C30.4044 6.96484 31.6655 6.69682 32.8438 6.2334C33.2541 6.0721 33.7176 6.12478 34.082 6.37305C34.4465 6.62138 34.665 7.03356 34.665 7.47461V18.2002C34.665 25.6813 31.0646 30.367 27.4805 33.1406C25.7018 34.517 23.9291 35.4238 22.6025 35.9873C21.9376 36.2697 21.3803 36.4687 20.9834 36.5977C20.7849 36.6622 20.626 36.7092 20.5137 36.7412C20.4576 36.7572 20.4131 36.7697 20.3809 36.7783L20.3418 36.7881L20.3291 36.792L20.3252 36.793H20.3232C20.3219 36.7906 20.307 36.7348 19.998 35.5C19.6722 36.7929 19.6716 36.7931 19.6709 36.793L19.6689 36.792L19.665 36.791L19.6523 36.7881L19.6143 36.7773C19.5821 36.7687 19.5366 36.7563 19.4805 36.7402C19.3683 36.708 19.2098 36.6604 19.0117 36.5957C18.6149 36.4661 18.0564 36.2668 17.3916 35.9834C16.0653 35.418 14.2928 34.5095 12.5146 33.1318C8.93166 30.3559 5.33203 25.67 5.33203 18.2002V7.47461C5.33203 7.0333 5.55019 6.62035 5.91504 6.37207C6.27985 6.12393 6.74387 6.07245 7.1543 6.23438C8.32696 6.69699 9.59106 6.96483 10.9102 6.96484C14.1804 6.96484 17.0648 5.40982 18.9443 3.01074C19.197 2.68819 19.5844 2.50004 19.9941 2.5ZM19.9941 5.8418C17.6752 8.16509 14.4806 9.63086 10.9102 9.63086C9.90435 9.63085 8.92988 9.50881 7.99805 9.28809V18.2002C7.99805 24.6699 11.0648 28.6344 14.1484 31.0234C15.7032 32.2279 17.264 33.03 18.4375 33.5303C19.0227 33.7797 19.5075 33.952 19.8398 34.0605C19.8977 34.0795 19.9507 34.0972 19.999 34.1123C20.0474 34.0973 20.1012 34.0804 20.1592 34.0615C20.4914 33.9535 20.9756 33.7817 21.5605 33.5332C22.7338 33.0348 24.2943 32.235 25.8486 31.0322C28.9312 28.6468 31.998 24.6823 31.998 18.2002V9.28809C31.0664 9.50894 30.0927 9.63086 29.0859 9.63086H29.0781C25.5077 9.63081 22.313 8.16512 19.9941 5.8418ZM25.7412 15.3721C26.2721 14.8621 27.1158 14.8786 27.626 15.4092C28.1361 15.9402 28.1198 16.7848 27.5889 17.2949L18.9141 25.6279C18.6576 25.8743 18.3135 26.0086 17.958 26C17.6024 25.9912 17.2646 25.8399 17.0205 25.5811L12.3613 20.6416C11.8561 20.1059 11.8813 19.2621 12.417 18.7568C12.9527 18.2517 13.7965 18.2759 14.3018 18.8115L18.0371 22.7725L25.7412 15.3721Z" fill="#2D2D2D"/>
</svg>
