<svg width="48" height="49" viewBox="0 0 48 49" fill="none" xmlns="http://www.w3.org/2000/svg">
<g clip-path="url(#clip0_3268_75868)">
<path d="M40.969 41.4701C50.3414 32.0978 50.3414 16.9022 40.969 7.52985C31.5967 -1.8425 16.4011 -1.84251 7.02874 7.52985C-2.34361 16.9022 -2.34361 32.0978 7.02874 41.4701C16.4011 50.8425 31.5967 50.8425 40.969 41.4701Z" fill="#CDD1D5"/>
<path d="M23.9996 23.8156C20.4689 23.8156 17.5977 20.9432 17.5977 17.4137C17.5977 13.8841 20.4701 11.0117 23.9996 11.0117C27.5291 11.0117 30.4015 13.8841 30.4015 17.4137C30.4015 20.9432 27.5291 23.8156 23.9996 23.8156ZM23.9996 12.9504C21.5392 12.9504 19.5363 14.9521 19.5363 17.4125C19.5363 19.8729 21.538 21.8758 23.9996 21.8758C26.4612 21.8758 28.4617 19.8741 28.4617 17.4125C28.4617 14.9509 26.46 12.9504 23.9996 12.9504Z" fill="white"/>
<path d="M33.4624 37.1927C32.9267 37.1927 32.4925 36.7586 32.4925 36.2228C32.4925 31.5413 28.684 27.7316 24.0013 27.7316C19.3186 27.7316 15.5102 31.5401 15.5102 36.2228C15.5102 36.7586 15.076 37.1927 14.5402 37.1927C14.0045 37.1927 13.5703 36.7586 13.5703 36.2228C13.5703 30.4722 18.2495 25.793 24.0002 25.793C29.7508 25.793 34.43 30.4722 34.43 36.2228C34.43 36.7586 33.9958 37.1927 33.4601 37.1927H33.4624Z" fill="white"/>
</g>
<defs>
<clipPath id="clip0_3268_75868">
<rect width="48" height="48" fill="white" transform="translate(0 0.5)"/>
</clipPath>
</defs>
</svg>
