<svg width="40" height="40" viewBox="0 0 40 40" fill="none" xmlns="http://www.w3.org/2000/svg">
<path d="M10.4941 4.5C13.6832 4.50017 16.3427 6.76424 16.9551 9.77246H23.0439C23.6606 6.76951 26.3185 4.51082 29.5039 4.51074C33.1459 4.51082 36.0986 7.46342 36.0986 11.1055C36.0986 14.7476 33.146 17.6999 29.5039 17.7002C28.1659 17.7002 26.9215 17.3009 25.8818 16.6162L16.4434 26.0537C16.6718 26.5299 16.8459 27.0372 16.9551 27.5684H23.0508C23.6687 24.5672 26.3257 22.3105 29.5098 22.3105C33.1517 22.3108 36.1043 25.2633 36.1045 28.9053C36.1046 32.5474 33.1519 35.5 29.5098 35.5C26.3228 35.5 23.6638 33.2395 23.0488 30.2344H16.9551C16.3391 33.2381 13.6811 35.497 10.4951 35.4971C6.85292 35.4971 3.90039 32.5445 3.90039 28.9023C3.90065 25.2604 6.85307 22.3077 10.4951 22.3076C12.1453 22.3076 13.653 22.9153 14.8096 23.917L23.9951 14.7314C23.543 14.0459 23.2148 13.2715 23.0439 12.4395H16.9502C16.3292 15.4366 13.6753 17.6892 10.4941 17.6895C6.85194 17.6895 3.89844 14.7369 3.89844 11.0947C3.89859 7.45266 6.85203 4.50004 10.4941 4.5ZM29.5098 24.9775C27.8097 24.9775 26.3614 26.0571 25.8145 27.5684H29.5068C30.2432 27.5684 30.8398 28.1651 30.8398 28.9014C30.8398 29.6377 30.2432 30.2344 29.5068 30.2344H25.8125C26.3573 31.7497 27.8068 32.833 29.5098 32.833C31.6791 32.8329 33.4376 31.0747 33.4375 28.9053C33.4374 26.736 31.679 24.9777 29.5098 24.9775ZM10.4951 24.9746C8.32577 24.9746 6.56665 26.7332 6.56641 28.9023C6.56641 31.0717 8.32561 32.8311 10.4951 32.8311C12.6646 32.831 14.4229 31.0717 14.4229 28.9023C14.4227 26.7331 12.6645 24.9746 10.4951 24.9746ZM29.5039 7.17773C27.3346 7.17779 25.5754 8.93619 25.5752 11.1055C25.5752 13.2749 27.3345 15.0342 29.5039 15.0342C31.6732 15.034 33.4316 13.2748 33.4316 11.1055C33.4316 8.93621 31.6731 7.17785 29.5039 7.17773ZM10.4941 7.16699C8.32472 7.16702 6.56556 8.92546 6.56543 11.0947C6.56543 13.2641 8.32463 15.0235 10.4941 15.0234C12.1911 15.0232 13.6365 13.9465 14.1855 12.4395H11.1455C10.4092 12.4395 9.81161 11.8427 9.81152 11.1064C9.81152 10.3701 10.4091 9.77246 11.1455 9.77246H14.1934C13.6504 8.25385 12.1994 7.16715 10.4941 7.16699Z" fill="#2D2D2D"/>
</svg>
