<svg width="212" height="48" viewBox="0 0 212 48" fill="none" xmlns="http://www.w3.org/2000/svg">
<g clip-path="url(#clip0_3433_102217)">
<path d="M37.0504 22.9069C32.8837 20.0737 27.5437 21.2271 24.7431 25.491C22.4006 29.0516 18.8687 29.4936 17.4986 29.4936C13.0386 29.4936 9.98886 26.355 9.0848 23.1119C9.07676 23.0797 9.06872 23.0516 9.06069 23.0234C9.05265 22.9873 9.0406 22.9511 9.02854 22.9149C8.67496 21.5606 8.58656 20.9136 8.58656 19.4749C8.58656 11.7106 16.5503 3.07033 28.0178 3.07033C39.4853 3.07033 46.4807 12.0121 48.2125 16.9833C48.1844 16.8948 48.1562 16.8104 48.1281 16.718C44.7972 6.98861 35.5798 0 24.7311 0C11.0737 0 0 11.0717 0 24.7314C0 36.9444 8.80755 47.3972 21.0224 47.3972C30.7621 47.3972 37.3116 41.9357 40.313 34.4046C41.9604 30.2853 40.7952 25.4468 37.0544 22.9029" fill="#003964"/>
<path d="M48.3725 17.4577C46.93 12.6111 40.1596 3.0625 28.0211 3.0625C16.5496 3.0625 8.58984 11.7028 8.58984 19.4671C8.58984 20.9058 8.67824 21.5568 9.03183 22.9111C8.88316 22.3204 8.8028 21.7256 8.8028 21.1469C8.8028 13.0652 16.8992 7.45902 25.2165 7.45902C36.4791 7.45902 45.6081 16.5896 45.6081 27.8542C45.6081 36.6834 40.5293 44.3271 33.1441 47.9962V48.0042C42.6629 44.5561 49.4574 35.4416 49.4574 24.7356C49.4574 22.2038 49.1199 19.9694 48.3685 17.4577" fill="#ED1A3B"/>
<path d="M60.4161 11.1785L67.2267 3.54688H70.5255L63.2327 11.6808L70.5014 19.9354H67.1102L60.4201 12.3037V19.9354H57.6758V3.55089H60.4201V11.1825L60.4161 11.1785Z" fill="#58595B"/>
<path d="M75.9351 20.2284C74.2194 20.2284 72.7488 19.6336 71.5313 18.4481C70.3099 17.2626 69.7031 15.7998 69.7031 14.0677C69.7031 12.3356 70.3139 10.8527 71.5313 9.66312C72.7488 8.47759 74.2194 7.88281 75.9351 7.88281C77.6508 7.88281 79.1415 8.47759 80.3509 9.66312C81.5604 10.8527 82.1671 12.3195 82.1671 14.0677C82.1671 15.8158 81.5604 17.2626 80.3509 18.4481C79.1375 19.6377 77.6669 20.2284 75.9351 20.2284ZM75.9351 18.0141C76.9155 18.0141 77.7472 17.6403 78.4384 16.8929C79.1295 16.1454 79.475 15.205 79.475 14.0637C79.475 12.9223 79.1295 11.9779 78.4384 11.2224C77.7472 10.4669 76.9155 10.0931 75.9351 10.0931C74.9547 10.0931 74.1431 10.4709 73.4439 11.2224C72.7448 11.9779 72.3992 12.9223 72.3992 14.0637C72.3992 15.205 72.7488 16.1454 73.4439 16.8929C74.1431 17.6403 74.9708 18.0141 75.9351 18.0141Z" fill="#58595B"/>
<path d="M83.9259 19.9404V8.16946H86.4532V9.92566C86.839 9.34696 87.3131 8.90088 87.8716 8.57938C88.5466 8.1775 89.3382 7.97656 90.2543 7.97656H90.4472V10.3597H90.1579C89.0529 10.3597 88.1689 10.6973 87.51 11.3724C86.8992 12.0315 86.5939 13.0563 86.5939 14.4548V19.9444H83.9219L83.9259 19.9404Z" fill="#58595B"/>
<path d="M93.5268 15.2289C93.6875 15.9522 94.025 16.543 94.5393 17.0092C95.2947 17.7004 96.2872 18.046 97.5248 18.046C98.8226 18.046 100.044 17.5638 101.181 16.6033L101.977 18.5765C100.711 19.6817 99.2003 20.2362 97.4524 20.2362C95.4635 20.2362 93.8482 19.6696 92.6027 18.5403C91.3611 17.4111 90.7383 15.9281 90.7383 14.0996C90.7383 12.2711 91.2928 10.8002 92.3977 9.63476C93.5067 8.47334 94.9492 7.89062 96.7292 7.89062C98.5092 7.89062 99.9356 8.46933 101.049 9.62271C102.162 10.7801 102.72 12.2148 102.72 13.9308C102.72 14.397 102.68 14.831 102.6 15.2289H93.5268ZM93.4786 13.1311H100.024C99.9918 12.3595 99.6704 11.6602 99.0596 11.0253C98.4489 10.3903 97.6734 10.0728 96.7252 10.0728C95.7769 10.0728 94.9693 10.4184 94.3425 11.1096C93.8764 11.624 93.5871 12.2992 93.4746 13.1311H93.4786Z" fill="#58595B"/>
<path d="M109.531 12.3356H112.324C112.324 11.5801 112.022 11.0134 111.42 10.6276C110.817 10.2418 109.957 10.0489 108.832 10.0489H108.76C107.699 10.0489 106.57 10.2981 105.368 10.7964L104.693 8.70264C105.927 8.17216 107.293 7.89889 108.784 7.88281H108.832C110.805 7.88281 112.32 8.26459 113.38 9.02816C114.441 9.79172 114.968 10.9973 114.968 12.6491V19.9431H112.416V18.645C111.918 19.1434 111.303 19.5332 110.576 19.8105C109.845 20.0918 109.105 20.2324 108.35 20.2324C106.956 20.2324 105.819 19.8587 104.947 19.1152C104.071 18.3677 103.637 17.4515 103.637 16.3584C103.637 15.1568 104.183 14.1601 105.272 13.3724C106.269 12.6812 107.687 12.3356 109.531 12.3356ZM108.808 18.1105C109.499 18.1105 110.178 17.9418 110.853 17.6042C111.528 17.2666 112.014 16.8728 112.32 16.4267V14.4294H109.937C108.591 14.4294 107.651 14.6062 107.12 14.9598C106.59 15.3456 106.325 15.8118 106.325 16.3543C106.325 16.8687 106.546 17.2907 106.988 17.6162C107.43 17.9458 108.032 18.1105 108.804 18.1105H108.808Z" fill="#58595B"/>
<path d="M131.84 17.922C133.556 17.922 135.119 17.3674 136.533 16.2623L137.667 18.2596C136.208 19.5737 134.263 20.2328 131.844 20.2328C129.426 20.2328 127.489 19.417 125.853 17.7894C124.218 16.1618 123.398 14.1524 123.398 11.7613C123.398 9.37011 124.218 7.33662 125.853 5.70903C127.489 4.08143 129.486 3.26562 131.844 3.26562C134.203 3.26562 136.144 3.9247 137.57 5.23883L136.461 7.23615C135.067 6.131 133.524 5.57641 131.84 5.57641C130.285 5.57641 128.943 6.15511 127.822 7.30849C126.701 8.53019 126.139 10.0131 126.139 11.7613C126.139 13.5094 126.701 14.9883 127.822 16.1899C128.947 17.3473 130.285 17.922 131.84 17.922Z" fill="#58595B"/>
<path d="M147.096 14.0915V8.17188H149.768V19.9428H147.192V18.3795C146.871 18.9582 146.437 19.4003 145.894 19.7017C145.251 20.0553 144.588 20.2322 143.897 20.2322C142.515 20.2322 141.406 19.7579 140.566 18.8135C139.723 17.8651 139.305 16.5992 139.305 15.0118V8.17589H141.977V14.3366C141.977 15.5865 142.182 16.5148 142.591 17.1176C143.001 17.7204 143.628 18.0218 144.48 18.0218C144.914 18.0218 145.336 17.8772 145.754 17.5878C146.172 17.2985 146.493 16.9046 146.718 16.4063C146.975 15.8276 147.104 15.06 147.104 14.0955L147.096 14.0915Z" fill="#58595B"/>
<path d="M151.234 17.7491L152.918 16.0411C153.384 16.6841 153.898 17.1824 154.457 17.5321C155.003 17.8696 155.586 18.0384 156.213 18.0384C156.84 18.0384 157.334 17.9138 157.74 17.6647C158.149 17.4155 158.354 17.09 158.354 16.6881C158.354 16.2863 158.157 15.9688 157.764 15.7357C157.37 15.5026 156.892 15.2896 156.333 15.0967C155.69 14.8877 155.035 14.6546 154.36 14.3974C153.46 14.0759 152.801 13.654 152.375 13.1355C151.95 12.6131 151.737 12.0264 151.737 11.3673C151.737 10.4028 152.191 9.58297 153.095 8.89978C154.003 8.21659 155.072 7.875 156.309 7.875C157.623 7.875 158.7 8.18846 159.536 8.81539C159.97 9.13689 160.307 9.5468 160.548 10.0411L158.913 11.6285C158.688 11.2588 158.431 10.9534 158.141 10.7122C157.611 10.2621 156.964 10.0371 156.193 10.0371C155.727 10.0371 155.325 10.1496 154.987 10.3747C154.65 10.5997 154.481 10.873 154.481 11.1945C154.481 11.5321 154.67 11.8174 155.047 12.0505C155.425 12.2836 155.984 12.5126 156.719 12.7377C156.992 12.8181 157.298 12.9145 157.635 13.027C158.772 13.3968 159.64 13.879 160.235 14.4698C160.829 15.0646 161.127 15.7759 161.127 16.6118C161.127 17.5923 160.653 18.4363 159.708 19.1516C158.76 19.867 157.567 20.2206 156.124 20.2206C154.887 20.2206 153.806 19.9313 152.878 19.3526C152.251 18.9828 151.704 18.4443 151.242 17.741L151.234 17.7491Z" fill="#58595B"/>
<path d="M166.131 4.37121V8.17295H168.683V10.3149H166.131V16.3069C166.131 16.8856 166.268 17.2794 166.541 17.4844C166.814 17.6934 167.2 17.7979 167.694 17.7979H168.683V19.9399H167.071C165.806 19.9399 164.882 19.6545 164.303 19.0839C163.724 18.5132 163.435 17.6773 163.435 16.5681V10.3109H161.414V8.16893H163.435V4.36719H166.131V4.37121Z" fill="#58595B"/>
<path d="M175.806 20.2284C174.091 20.2284 172.62 19.6336 171.402 18.4481C170.181 17.2626 169.574 15.7998 169.574 14.0677C169.574 12.3356 170.185 10.8527 171.402 9.66312C172.62 8.47759 174.091 7.88281 175.806 7.88281C177.522 7.88281 179.013 8.47759 180.222 9.66312C181.431 10.8527 182.038 12.3195 182.038 14.0677C182.038 15.8158 181.431 17.2626 180.222 18.4481C179.013 19.6377 177.538 20.2284 175.806 20.2284ZM175.806 18.0141C176.783 18.0141 177.618 17.6403 178.309 16.8929C179.001 16.1454 179.346 15.205 179.346 14.0637C179.346 12.9223 179.001 11.9779 178.309 11.2224C177.618 10.4669 176.787 10.0931 175.806 10.0931C174.826 10.0931 174.014 10.4709 173.315 11.2224C172.616 11.9779 172.27 12.9223 172.27 14.0637C172.27 15.205 172.62 16.1454 173.315 16.8929C174.014 17.6403 174.842 18.0141 175.806 18.0141Z" fill="#58595B"/>
<path d="M196.309 7.88683C197.687 7.88683 198.764 8.36104 199.536 9.30545C200.307 10.2539 200.689 11.5198 200.689 13.1072V19.9431H198.041V13.7823C198.041 12.5325 197.872 11.6042 197.535 11.0014C197.197 10.3986 196.643 10.0971 195.875 10.0971C195.425 10.0971 195.031 10.2257 194.698 10.4829C194.36 10.7401 194.087 11.1179 193.878 11.6162C193.669 12.1306 193.565 12.854 193.565 13.7823V19.9431H190.917V13.7823C190.917 12.5325 190.744 11.6042 190.399 11.0014C190.053 10.3986 189.503 10.0971 188.751 10.0971C188.301 10.0971 187.915 10.2257 187.598 10.4829C187.277 10.7401 187.003 11.1179 186.778 11.6162C186.553 12.1949 186.441 12.9625 186.441 13.927V13.9029V19.9431H183.793V8.17216H186.296V9.73546C186.955 8.5017 187.972 7.88281 189.354 7.88281C190.829 7.88281 191.913 8.59815 192.605 10.0248C193.006 9.31751 193.489 8.78703 194.059 8.42534C194.63 8.06366 195.377 7.88281 196.309 7.88281V7.88683Z" fill="#58595B"/>
<path d="M202.109 17.7491L203.793 16.0411C204.259 16.6841 204.769 17.1824 205.332 17.5321C205.878 17.8696 206.465 18.0384 207.088 18.0384C207.711 18.0384 208.209 17.9138 208.615 17.6647C209.024 17.4155 209.229 17.09 209.229 16.6881C209.229 16.2863 209.032 15.9688 208.639 15.7357C208.245 15.5026 207.767 15.2896 207.208 15.0967C206.565 14.8877 205.91 14.6546 205.235 14.3974C204.335 14.0759 203.676 13.654 203.25 13.1355C202.825 12.6131 202.612 12.0264 202.612 11.3673C202.612 10.4028 203.066 9.58297 203.97 8.89978C204.874 8.21659 205.947 7.875 207.184 7.875C208.498 7.875 209.575 8.18846 210.411 8.81539C210.845 9.13689 211.182 9.5468 211.423 10.0411L209.788 11.6285C209.563 11.2588 209.306 10.9534 209.016 10.7122C208.486 10.2621 207.839 10.0371 207.068 10.0371C206.602 10.0371 206.2 10.1496 205.866 10.3747C205.529 10.5997 205.36 10.873 205.36 11.1945C205.36 11.5321 205.549 11.8174 205.927 12.0505C206.304 12.2836 206.863 12.5126 207.598 12.7377C207.871 12.8181 208.177 12.9145 208.514 13.027C209.651 13.3968 210.519 13.879 211.114 14.4698C211.708 15.0646 212.006 15.7759 212.006 16.6118C212.006 17.5923 211.532 18.4363 210.587 19.1516C209.639 19.867 208.446 20.2206 207.003 20.2206C205.77 20.2206 204.685 19.9313 203.757 19.3526C203.13 18.9828 202.584 18.4443 202.121 17.741L202.109 17.7491Z" fill="#58595B"/>
<path d="M56.7775 40.6865L58.5816 38.8579C59.0798 39.8867 59.6946 40.6463 60.4339 41.1446C61.2214 41.6751 62.021 41.9403 62.8407 41.9403C63.7086 41.9403 64.4439 41.7153 65.0546 41.2652C65.6654 40.8151 65.9707 40.2283 65.9707 39.509C65.9707 38.866 65.6614 38.3475 65.0426 37.9457C64.4238 37.5438 63.7568 37.2062 63.0335 36.9329C62.3103 36.6597 61.5589 36.3703 60.7714 36.0649C59.5218 35.5987 58.6258 35.0039 58.0873 34.2725C57.5489 33.5411 57.2797 32.7695 57.2797 31.9497C57.2797 30.6838 57.8181 29.5947 58.8909 28.6865C59.9638 27.7822 61.2897 27.3281 62.8608 27.3281C64.5122 27.3281 65.8542 27.7541 66.8788 28.6021C67.4092 29.02 67.7789 29.4782 67.9838 29.9725L66.3484 31.7045C66.2038 31.4152 65.9386 31.0937 65.5529 30.74C64.7653 30.0167 63.8211 29.655 62.7121 29.655C62.021 29.655 61.4183 29.8479 60.8959 30.2337C60.3736 30.6195 60.1124 31.1339 60.1124 31.7729C60.1124 32.7534 61.1772 33.6094 63.3148 34.3489C63.7005 34.4775 64.1024 34.6222 64.5162 34.7829C65.9426 35.3295 67.0154 35.9725 67.7306 36.72C68.4459 37.4674 68.8035 38.3837 68.8035 39.4768C68.8035 40.7749 68.249 41.9001 67.144 42.8486C66.039 43.809 64.6167 44.2913 62.8849 44.2913C61.2817 44.2913 59.9557 43.9296 58.9151 43.2102C57.9025 42.5029 57.1913 41.663 56.7734 40.6824L56.7775 40.6865Z" fill="#58595B"/>
<path d="M72.687 39.2992C72.8477 40.0226 73.1852 40.6173 73.6995 41.0795C74.4549 41.7707 75.4474 42.1163 76.6849 42.1163C77.9827 42.1163 79.2042 41.6341 80.3413 40.6736L81.1369 42.6468C79.8712 43.752 78.3604 44.3066 76.6126 44.3066C74.6237 44.3066 73.0084 43.7399 71.7628 42.6106C70.5212 41.4773 69.8984 39.9984 69.8984 38.1699C69.8984 36.3414 70.4529 34.8705 71.5579 33.7051C72.6669 32.5437 74.1093 31.9609 75.8893 31.9609C77.6693 31.9609 79.0957 32.5396 80.2087 33.693C81.3217 34.8504 81.8802 36.2851 81.8802 38.0011C81.8802 38.4673 81.8401 38.9013 81.7597 39.2992H72.687ZM72.6387 37.2054H79.1841C79.152 36.4338 78.8305 35.7345 78.2198 35.0996C77.6091 34.4646 76.8336 34.1471 75.8853 34.1471C74.9371 34.1471 74.1294 34.4928 73.5026 35.184C73.0365 35.6984 72.7472 36.3735 72.6347 37.2054H72.6387Z" fill="#58595B"/>
<path d="M83.6134 44.0107V32.2398H86.1407V33.996C86.5265 33.4173 87.0006 32.9712 87.5591 32.6497C88.2341 32.2478 89.0257 32.0469 89.9418 32.0469H90.1347V34.43H89.8454C88.7404 34.43 87.8564 34.7676 87.1975 35.4427C86.5867 36.1018 86.2814 37.1266 86.2814 38.5251V44.0147H83.6094L83.6134 44.0107Z" fill="#58595B"/>
<path d="M96.4614 41.7747L99.6156 32.2422H102.384L98.2937 44.0131H94.6372L90.5469 32.2422H93.3153L96.4695 41.7747H96.4614Z" fill="#58595B"/>
<path d="M106.497 28.5636C106.497 29.0137 106.329 29.4075 105.991 29.741C105.654 30.0786 105.252 30.2474 104.79 30.2474C104.328 30.2474 103.922 30.0786 103.588 29.741C103.251 29.4035 103.082 29.0096 103.082 28.5636C103.082 28.1175 103.251 27.6955 103.588 27.3579C103.926 27.0204 104.328 26.8516 104.79 26.8516C105.252 26.8516 105.658 27.0204 105.991 27.3579C106.329 27.6955 106.497 28.0974 106.497 28.5636ZM103.464 44.0157V32.2447H106.16V44.0157H103.464Z" fill="#58595B"/>
<path d="M108.062 38.138C108.062 36.4381 108.701 34.9792 109.975 33.7696C111.249 32.56 112.868 31.9531 114.825 31.9531C116.364 31.9531 117.81 32.4434 119.156 33.42L118.288 35.5137C117.115 34.6135 115.962 34.1675 114.825 34.1675C113.623 34.1675 112.643 34.5492 111.888 35.3088C111.132 36.0723 110.759 37.0127 110.759 38.138C110.759 39.2632 111.136 40.1795 111.888 40.9431C112.643 41.7066 113.619 42.0844 114.825 42.0844C116.03 42.0844 117.151 41.6343 118.337 40.7381L119.205 42.8319C117.907 43.8125 116.444 44.2987 114.825 44.2987C112.868 44.2987 111.253 43.6919 109.975 42.4823C108.701 41.2726 108.062 39.8218 108.062 38.138Z" fill="#58595B"/>
<path d="M123.027 39.2992C123.188 40.0226 123.525 40.6173 124.039 41.0795C124.795 41.7707 125.787 42.1163 127.025 42.1163C128.323 42.1163 129.544 41.6341 130.681 40.6736L131.477 42.6468C130.211 43.752 128.7 44.3066 126.952 44.3066C124.963 44.3066 123.348 43.7399 122.103 42.6106C120.861 41.4773 120.238 39.9984 120.238 38.1699C120.238 36.3414 120.793 34.8705 121.898 33.7051C123.003 32.5437 124.449 31.9609 126.229 31.9609C128.009 31.9609 129.436 32.5396 130.549 33.693C131.662 34.8504 132.22 36.2851 132.22 38.0011C132.22 38.4673 132.18 38.9013 132.1 39.2992H123.027ZM122.979 37.2054H129.524C129.492 36.4338 129.17 35.7345 128.56 35.0996C127.949 34.4646 127.169 34.1471 126.225 34.1471C125.281 34.1471 124.469 34.4928 123.842 35.184C123.376 35.6984 123.087 36.3735 122.975 37.2054H122.979Z" fill="#58595B"/>
</g>
<defs>
<clipPath id="clip0_3433_102217">
<rect width="212" height="48" fill="white"/>
</clipPath>
</defs>
</svg>
