<svg width="145" height="48" viewBox="0 0 145 48" fill="none" xmlns="http://www.w3.org/2000/svg">
<path d="M23.8487 47.9616C37.0199 47.9616 47.6974 37.225 47.6974 23.9808C47.6974 10.7366 37.0199 0 23.8487 0C10.6774 0 0 10.7366 0 23.9808C0 37.225 10.6774 47.9616 23.8487 47.9616Z" fill="white"/>
<path d="M35.0871 22.3289C31.5097 19.8329 26.5969 20.7257 24.1167 24.3257C24.0308 24.4409 23.9545 24.5657 23.8782 24.6905C21.5315 28.3865 16.6568 29.4617 12.9841 27.1097C11.3338 26.0537 10.1413 24.4121 9.62619 22.5113L9.60711 22.4249C9.60711 22.4249 9.58803 22.3577 9.5785 22.3289C9.28277 21.3113 9.13968 20.2457 9.17784 19.1801C9.17784 12.0761 16.4278 4.15611 26.8736 4.15611C37.3193 4.15611 43.6821 12.3449 45.2657 16.8953C45.2371 16.8185 45.218 16.7321 45.1894 16.6553C41.1351 4.81851 28.314 -1.47909 16.5519 2.59131C7.47027 5.73051 1.36501 14.3321 1.35547 23.9993C1.35547 35.1737 9.36863 44.7449 20.4917 44.7449C28.2759 45.0041 35.3542 40.2137 38.0538 32.8505C39.6469 29.0777 38.4068 24.6905 35.0871 22.3193" fill="#003863"/>
<path d="M45.3892 17.3371C42.5656 9.47465 35.1725 4.21385 26.8636 4.15625C16.4179 4.15625 9.16785 12.0666 9.16785 19.1707C9.13923 20.2363 9.27278 21.3019 9.56851 22.3195C9.43496 21.7915 9.36818 21.2443 9.35864 20.7067C9.35864 13.3051 16.7231 8.17865 24.2975 8.17865C34.5429 8.17865 42.8613 16.5307 42.8613 26.8507C42.8613 34.6651 38.4731 41.8075 31.5188 45.2923C40.4287 42.0475 46.3718 33.5323 46.3718 23.9995C46.3718 21.7435 46.0475 19.4971 45.3797 17.3371" fill="#E4032E"/>
<path d="M81.3057 27.3216H77.9382V10.416H81.3057V17.0592H84.759V20.2848H81.3057V27.3216ZM63.3428 28.5408V34.0512H82.0307V37.0368H59.9754V28.5408H63.3428ZM70.6978 20.928V13.9776H59.5175V10.9632H73.9698V20.928H70.6978ZM74.9142 23.424V26.3808H58.7734V23.424H64.23V17.52H67.4067V23.424H74.9238H74.9142Z" fill="#575756"/>
<path d="M111.22 10.416H114.463V37.584H111.22V10.416ZM105.553 10.4448H108.673V37.4304H105.553V23.3856H102.195V20.3424H105.553V10.4448ZM96.4717 10.5984L104.017 32.7168L101.203 33.8688L96.4813 19.92L91.8165 34.08L88.9355 32.9184L96.4813 10.5984H96.4717Z" fill="#575756"/>
<path d="M141.643 24.8833V19.7089H136.921V16.8193H141.643V10.4257H145.001V24.8929H141.643V24.8833ZM139.401 31.7665C139.41 30.7777 139.01 29.8273 138.294 29.1457C137.598 28.4353 136.644 28.0321 135.642 28.0513C133.601 28.0225 131.922 29.6545 131.893 31.7089C131.865 33.7633 133.486 35.4529 135.528 35.4817C135.566 35.4817 135.604 35.4817 135.642 35.4817C136.634 35.5009 137.588 35.1073 138.294 34.4065C139.019 33.7249 139.42 32.7649 139.401 31.7761M142.702 31.7953C142.702 32.6881 142.511 33.5617 142.139 34.3681C141.767 35.1553 141.261 35.8753 140.641 36.4801C140.002 37.1041 139.239 37.5937 138.418 37.9297C136.663 38.6401 134.707 38.6401 132.952 37.9297C132.122 37.5937 131.359 37.1041 130.71 36.4801C130.09 35.8753 129.575 35.1553 129.213 34.3681C128.469 32.7361 128.469 30.8545 129.213 29.2225C129.575 28.4257 130.09 27.7153 130.71 27.1009C131.359 26.4769 132.122 25.9873 132.952 25.6513C134.707 24.9409 136.663 24.9409 138.418 25.6513C139.248 25.9873 140.002 26.4769 140.641 27.1009C141.271 27.7057 141.776 28.4257 142.139 29.2225C142.511 30.0289 142.702 30.9025 142.702 31.7953ZM121.133 15.5041V12.6721H127.467V10.0801H131.044V12.6721H137.073V15.5041H130.501L137.312 22.4545L135.127 24.5281L129.251 18.3745L123.432 25.0177L121.19 22.9153L128.039 15.5137H121.133V15.5041Z" fill="#575756"/>
</svg>
