<svg width="20" height="20" viewBox="0 0 20 20" fill="none" xmlns="http://www.w3.org/2000/svg">
<mask id="path-1-inside-1_77_19494" fill="white">
<rect x="2" y="3.5" width="16" height="13" rx="1"/>
</mask>
<rect x="2" y="3.5" width="16" height="13" rx="1" stroke="#2D2D2D" stroke-width="2.8" mask="url(#path-1-inside-1_77_19494)"/>
<rect x="2" y="3.5" width="16" height="13" rx="1" stroke="black" stroke-opacity="0.2" stroke-width="2.8" mask="url(#path-1-inside-1_77_19494)"/>
<rect x="2" y="3.5" width="16" height="13" rx="1" stroke="black" stroke-opacity="0.2" stroke-width="2.8" mask="url(#path-1-inside-1_77_19494)"/>
<path d="M3 4.2002H17C17.1657 4.2002 17.2998 4.33431 17.2998 4.5V5.52441C17.2997 5.59193 17.2772 5.6568 17.2363 5.70898L17.1895 5.75684L10.1895 11.4443C10.0931 11.5227 9.96004 11.5323 9.85449 11.4736L9.81055 11.4443L2.81055 5.75684C2.74064 5.69995 2.70031 5.61453 2.7002 5.52441V4.5C2.7002 4.33431 2.83431 4.2002 3 4.2002Z" stroke="#2D2D2D" stroke-width="1.4"/>
<path d="M3 4.2002H17C17.1657 4.2002 17.2998 4.33431 17.2998 4.5V5.52441C17.2997 5.59193 17.2772 5.6568 17.2363 5.70898L17.1895 5.75684L10.1895 11.4443C10.0931 11.5227 9.96004 11.5323 9.85449 11.4736L9.81055 11.4443L2.81055 5.75684C2.74064 5.69995 2.70031 5.61453 2.7002 5.52441V4.5C2.7002 4.33431 2.83431 4.2002 3 4.2002Z" stroke="black" stroke-opacity="0.2" stroke-width="1.4"/>
<path d="M3 4.2002H17C17.1657 4.2002 17.2998 4.33431 17.2998 4.5V5.52441C17.2997 5.59193 17.2772 5.6568 17.2363 5.70898L17.1895 5.75684L10.1895 11.4443C10.0931 11.5227 9.96004 11.5323 9.85449 11.4736L9.81055 11.4443L2.81055 5.75684C2.74064 5.69995 2.70031 5.61453 2.7002 5.52441V4.5C2.7002 4.33431 2.83431 4.2002 3 4.2002Z" stroke="black" stroke-opacity="0.2" stroke-width="1.4"/>
</svg>
