<svg width="20" height="21" viewBox="0 0 20 21" fill="none" xmlns="http://www.w3.org/2000/svg">
<path d="M16.2998 7.2002V16.5C16.2998 17.218 15.718 17.7998 15 17.7998H5C4.28203 17.7998 3.7002 17.218 3.7002 16.5V7.2002H16.2998Z" stroke="#2D2D2D" stroke-width="1.4"/>
<path d="M16.2998 7.2002V16.5C16.2998 17.218 15.718 17.7998 15 17.7998H5C4.28203 17.7998 3.7002 17.218 3.7002 16.5V7.2002H16.2998Z" stroke="black" stroke-opacity="0.2" stroke-width="1.4"/>
<path d="M16.2998 7.2002V16.5C16.2998 17.218 15.718 17.7998 15 17.7998H5C4.28203 17.7998 3.7002 17.218 3.7002 16.5V7.2002H16.2998Z" stroke="black" stroke-opacity="0.2" stroke-width="1.4"/>
<mask id="path-2-inside-1_3433_104163" fill="white">
<path d="M5 5.5C5 3.84315 6.34315 2.5 8 2.5H12C13.6569 2.5 15 3.84315 15 5.5V7.5H5V5.5Z"/>
</mask>
<path d="M3.6 5.5C3.6 3.06995 5.56995 1.1 8 1.1H12C14.4301 1.1 16.4 3.06995 16.4 5.5H13.6C13.6 4.61634 12.8837 3.9 12 3.9H8C7.11634 3.9 6.4 4.61634 6.4 5.5H3.6ZM15 7.5H5H15ZM3.6 7.5V5.5C3.6 3.06995 5.56995 1.1 8 1.1V3.9C7.11634 3.9 6.4 4.61634 6.4 5.5V7.5H3.6ZM12 1.1C14.4301 1.1 16.4 3.06995 16.4 5.5V7.5H13.6V5.5C13.6 4.61634 12.8837 3.9 12 3.9V1.1Z" fill="#2D2D2D" mask="url(#path-2-inside-1_3433_104163)"/>
<path d="M3.6 5.5C3.6 3.06995 5.56995 1.1 8 1.1H12C14.4301 1.1 16.4 3.06995 16.4 5.5H13.6C13.6 4.61634 12.8837 3.9 12 3.9H8C7.11634 3.9 6.4 4.61634 6.4 5.5H3.6ZM15 7.5H5H15ZM3.6 7.5V5.5C3.6 3.06995 5.56995 1.1 8 1.1V3.9C7.11634 3.9 6.4 4.61634 6.4 5.5V7.5H3.6ZM12 1.1C14.4301 1.1 16.4 3.06995 16.4 5.5V7.5H13.6V5.5C13.6 4.61634 12.8837 3.9 12 3.9V1.1Z" fill="black" fill-opacity="0.2" mask="url(#path-2-inside-1_3433_104163)"/>
<path d="M3.6 5.5C3.6 3.06995 5.56995 1.1 8 1.1H12C14.4301 1.1 16.4 3.06995 16.4 5.5H13.6C13.6 4.61634 12.8837 3.9 12 3.9H8C7.11634 3.9 6.4 4.61634 6.4 5.5H3.6ZM15 7.5H5H15ZM3.6 7.5V5.5C3.6 3.06995 5.56995 1.1 8 1.1V3.9C7.11634 3.9 6.4 4.61634 6.4 5.5V7.5H3.6ZM12 1.1C14.4301 1.1 16.4 3.06995 16.4 5.5V7.5H13.6V5.5C13.6 4.61634 12.8837 3.9 12 3.9V1.1Z" fill="black" fill-opacity="0.2" mask="url(#path-2-inside-1_3433_104163)"/>
<line x1="9.98125" y1="10.5" x2="9.98125" y2="12.5" stroke="#2D2D2D" stroke-width="1.4"/>
<line x1="9.98125" y1="10.5" x2="9.98125" y2="12.5" stroke="black" stroke-opacity="0.2" stroke-width="1.4"/>
<line x1="9.98125" y1="10.5" x2="9.98125" y2="12.5" stroke="black" stroke-opacity="0.2" stroke-width="1.4"/>
</svg>
