<svg width="20" height="21" viewBox="0 0 20 21" fill="none" xmlns="http://www.w3.org/2000/svg">
<circle cx="10" cy="6" r="2.8" stroke="#2D2D2D" stroke-width="1.4"/>
<circle cx="10" cy="6" r="2.8" stroke="black" stroke-opacity="0.2" stroke-width="1.4"/>
<circle cx="10" cy="6" r="2.8" stroke="black" stroke-opacity="0.2" stroke-width="1.4"/>
<path d="M10 12.2002C13.3441 12.2002 15.5648 13.355 16.6719 14.1211C17.07 14.3968 17.2998 14.8971 17.2998 15.5V17.7998H2.7002V15.5C2.7002 14.8971 2.92996 14.3968 3.32812 14.1211C4.43524 13.355 6.65594 12.2002 10 12.2002Z" stroke="#2D2D2D" stroke-width="1.4"/>
<path d="M10 12.2002C13.3441 12.2002 15.5648 13.355 16.6719 14.1211C17.07 14.3968 17.2998 14.8971 17.2998 15.5V17.7998H2.7002V15.5C2.7002 14.8971 2.92996 14.3968 3.32812 14.1211C4.43524 13.355 6.65594 12.2002 10 12.2002Z" stroke="black" stroke-opacity="0.2" stroke-width="1.4"/>
<path d="M10 12.2002C13.3441 12.2002 15.5648 13.355 16.6719 14.1211C17.07 14.3968 17.2998 14.8971 17.2998 15.5V17.7998H2.7002V15.5C2.7002 14.8971 2.92996 14.3968 3.32812 14.1211C4.43524 13.355 6.65594 12.2002 10 12.2002Z" stroke="black" stroke-opacity="0.2" stroke-width="1.4"/>
</svg>
