<svg width="16" height="17" viewBox="0 0 16 17" fill="none" xmlns="http://www.w3.org/2000/svg">
<mask id="path-1-inside-1_3434_87645" fill="white">
<rect y="2" width="16" height="13" rx="1"/>
</mask>
<rect y="2" width="16" height="13" rx="1" stroke="#2D2D2D" stroke-width="2.8" mask="url(#path-1-inside-1_3434_87645)"/>
<rect y="2" width="16" height="13" rx="1" stroke="black" stroke-opacity="0.2" stroke-width="2.8" mask="url(#path-1-inside-1_3434_87645)"/>
<rect y="2" width="16" height="13" rx="1" stroke="black" stroke-opacity="0.2" stroke-width="2.8" mask="url(#path-1-inside-1_3434_87645)"/>
<path d="M1 2.7002H15C15.1657 2.7002 15.2998 2.83431 15.2998 3V4.02441C15.2997 4.11453 15.2594 4.19995 15.1895 4.25684L8.18945 9.94434C8.07923 10.0339 7.92077 10.0339 7.81055 9.94434L0.810547 4.25684C0.740643 4.19995 0.700311 4.11453 0.700195 4.02441V3C0.700195 2.83431 0.834315 2.7002 1 2.7002Z" stroke="#2D2D2D" stroke-width="1.4"/>
<path d="M1 2.7002H15C15.1657 2.7002 15.2998 2.83431 15.2998 3V4.02441C15.2997 4.11453 15.2594 4.19995 15.1895 4.25684L8.18945 9.94434C8.07923 10.0339 7.92077 10.0339 7.81055 9.94434L0.810547 4.25684C0.740643 4.19995 0.700311 4.11453 0.700195 4.02441V3C0.700195 2.83431 0.834315 2.7002 1 2.7002Z" stroke="black" stroke-opacity="0.2" stroke-width="1.4"/>
<path d="M1 2.7002H15C15.1657 2.7002 15.2998 2.83431 15.2998 3V4.02441C15.2997 4.11453 15.2594 4.19995 15.1895 4.25684L8.18945 9.94434C8.07923 10.0339 7.92077 10.0339 7.81055 9.94434L0.810547 4.25684C0.740643 4.19995 0.700311 4.11453 0.700195 4.02441V3C0.700195 2.83431 0.834315 2.7002 1 2.7002Z" stroke="black" stroke-opacity="0.2" stroke-width="1.4"/>
</svg>
