<svg width="20" height="20" viewBox="0 0 20 20" fill="none" xmlns="http://www.w3.org/2000/svg">
<circle cx="10" cy="5.5" r="2.8" stroke="#2D2D2D" stroke-width="1.4"/>
<circle cx="10" cy="5.5" r="2.8" stroke="black" stroke-opacity="0.2" stroke-width="1.4"/>
<circle cx="10" cy="5.5" r="2.8" stroke="black" stroke-opacity="0.2" stroke-width="1.4"/>
<path d="M10 11.7002C13.1351 11.7002 15.2828 12.7146 16.4512 13.4727L16.6719 13.6211C17.07 13.8968 17.2998 14.3971 17.2998 15V17.2998H2.7002V15C2.7002 14.4721 2.87638 14.023 3.1875 13.7344L3.32812 13.6211C4.43524 12.855 6.65594 11.7002 10 11.7002Z" stroke="#2D2D2D" stroke-width="1.4"/>
<path d="M10 11.7002C13.1351 11.7002 15.2828 12.7146 16.4512 13.4727L16.6719 13.6211C17.07 13.8968 17.2998 14.3971 17.2998 15V17.2998H2.7002V15C2.7002 14.4721 2.87638 14.023 3.1875 13.7344L3.32812 13.6211C4.43524 12.855 6.65594 11.7002 10 11.7002Z" stroke="black" stroke-opacity="0.2" stroke-width="1.4"/>
<path d="M10 11.7002C13.1351 11.7002 15.2828 12.7146 16.4512 13.4727L16.6719 13.6211C17.07 13.8968 17.2998 14.3971 17.2998 15V17.2998H2.7002V15C2.7002 14.4721 2.87638 14.023 3.1875 13.7344L3.32812 13.6211C4.43524 12.855 6.65594 11.7002 10 11.7002Z" stroke="black" stroke-opacity="0.2" stroke-width="1.4"/>
</svg>
