<svg width="393" height="48" viewBox="0 0 393 48" fill="none" xmlns="http://www.w3.org/2000/svg">
<path d="M23.8487 47.9811C37.0199 47.9811 47.6974 37.2446 47.6974 24.0003C47.6974 10.7561 37.0199 0.0195312 23.8487 0.0195312C10.6774 0.0195312 0 10.7561 0 24.0003C0 37.2446 10.6774 47.9811 23.8487 47.9811Z" fill="white"/>
<path d="M35.0871 22.3504C31.5097 19.8544 26.5969 20.7472 24.1167 24.3472C24.0308 24.4624 23.9545 24.5872 23.8782 24.712C21.5315 28.408 16.6568 29.4832 12.9841 27.1312C11.3338 26.0752 10.1413 24.4336 9.62619 22.5328L9.60711 22.4464C9.60711 22.4464 9.58803 22.3792 9.5785 22.3504C9.28277 21.3328 9.13968 20.2672 9.17784 19.2016C9.17784 12.0976 16.4278 4.17759 26.8736 4.17759C37.3193 4.17759 43.6821 12.3664 45.2657 16.9168C45.2371 16.84 45.218 16.7536 45.1894 16.6768C41.1351 4.83999 28.314 -1.45761 16.5519 2.61279C7.47027 5.75199 1.36501 14.3536 1.35547 24.0208C1.35547 35.1952 9.36863 44.7664 20.4917 44.7664C28.2759 45.0256 35.3542 40.2352 38.0538 32.872C39.6469 29.0992 38.4068 24.712 35.0871 22.3408" fill="#003863"/>
<path d="M45.3892 17.3566C42.5656 9.49418 35.1725 4.23338 26.8636 4.17578C16.4179 4.17578 9.16785 12.0862 9.16785 19.1902C9.13923 20.2558 9.27278 21.3214 9.56851 22.339C9.43496 21.811 9.36818 21.2638 9.35864 20.7262C9.35864 13.3246 16.7231 8.19818 24.2975 8.19818C34.5429 8.19818 42.8613 16.5502 42.8613 26.8702C42.8613 34.6846 38.4731 41.827 31.5188 45.3118C40.4287 42.067 46.3718 33.5518 46.3718 24.019C46.3718 21.763 46.0475 19.5166 45.3797 17.3566" fill="#E4032E"/>
<path d="M68.041 13.5L63.9961 0.0664062H67.0391L69.4512 9.47363H69.5811L71.8818 1.73633H74.5166L76.8174 9.47363H76.9287L79.3408 0.0664062H82.3838L78.3389 13.5H75.7412L73.2549 5.7998H73.1436L70.6572 13.5H68.041ZM87.2266 13.7041C84.1465 13.7041 82.2539 11.7002 82.2539 8.50879C82.2539 5.3916 84.165 3.29492 87.1152 3.29492C89.7686 3.29492 91.8467 4.96484 91.8467 8.39746V9.17676H84.9629C84.9629 10.6982 85.8721 11.6445 87.2822 11.6445C88.21 11.6445 88.8779 11.2363 89.1562 10.624H91.7725C91.3828 12.4795 89.7129 13.7041 87.2266 13.7041ZM84.9629 7.45117H89.249C89.249 6.22656 88.3955 5.35449 87.1709 5.35449C85.9092 5.35449 85.0093 6.2915 84.9629 7.45117ZM96.3184 10.1787C96.3184 10.958 96.6523 11.3477 97.543 11.3477C97.6729 11.3477 97.7656 11.3477 97.9141 11.3291V13.4814C97.71 13.5 97.543 13.5 97.3574 13.5C95.001 13.5 93.5723 12.5537 93.5723 10.2344V0.0664062H96.3184V10.1787ZM103.777 13.7041C100.697 13.7041 98.8418 11.5703 98.8418 8.49023C98.8418 5.41016 100.716 3.29492 103.777 3.29492C106.375 3.29492 108.138 4.81641 108.249 7.11719H105.67C105.503 6.11523 104.854 5.42871 103.814 5.42871C102.497 5.42871 101.625 6.54199 101.625 8.45312C101.625 10.4014 102.479 11.5146 103.814 11.5146C104.779 11.5146 105.503 10.9209 105.67 9.84473H108.249C108.119 12.127 106.449 13.7041 103.777 13.7041ZM114.483 13.7041C111.44 13.7041 109.548 11.6074 109.548 8.49023C109.548 5.37305 111.44 3.29492 114.483 3.29492C117.526 3.29492 119.438 5.37305 119.438 8.49023C119.438 11.6074 117.526 13.7041 114.483 13.7041ZM114.502 11.5703C115.912 11.5703 116.636 10.2529 116.636 8.49023C116.636 6.70898 115.912 5.3916 114.502 5.3916C113.073 5.3916 112.331 6.70898 112.331 8.49023C112.331 10.2529 113.073 11.5703 114.502 11.5703ZM121.163 13.5V3.4248H123.779V5.1875H123.891C124.317 4.01855 125.338 3.29492 126.692 3.29492C128.084 3.29492 129.104 4.01855 129.438 5.1875H129.531C129.958 4.03711 131.09 3.29492 132.574 3.29492C134.448 3.29492 135.747 4.53809 135.747 6.72754V13.5H133.001V7.26562C133.001 6.11523 132.333 5.55859 131.424 5.55859C130.385 5.55859 129.791 6.28223 129.791 7.33984V13.5H127.119V7.19141C127.119 6.18945 126.488 5.55859 125.561 5.55859C124.633 5.55859 123.909 6.30078 123.909 7.45117V13.5H121.163ZM142.427 13.7041C139.347 13.7041 137.454 11.7002 137.454 8.50879C137.454 5.3916 139.365 3.29492 142.315 3.29492C144.969 3.29492 147.047 4.96484 147.047 8.39746V9.17676H140.163C140.163 10.6982 141.072 11.6445 142.482 11.6445C143.41 11.6445 144.078 11.2363 144.356 10.624H146.973C146.583 12.4795 144.913 13.7041 142.427 13.7041ZM140.163 7.45117H144.449C144.449 6.22656 143.596 5.35449 142.371 5.35449C141.109 5.35449 140.209 6.2915 140.163 7.45117ZM159.553 3.4248V5.48438H157.66V10.4014C157.66 11.1992 158.05 11.4033 158.606 11.4219C158.885 11.4219 159.367 11.4033 159.701 11.3662V13.5371C159.404 13.5928 158.922 13.6299 158.235 13.6299C156.25 13.6299 154.896 12.7393 154.914 10.791V5.48438H153.522V3.4248H154.914V1.0127H157.66V3.4248H159.553ZM165.694 13.7041C162.651 13.7041 160.759 11.6074 160.759 8.49023C160.759 5.37305 162.651 3.29492 165.694 3.29492C168.737 3.29492 170.648 5.37305 170.648 8.49023C170.648 11.6074 168.737 13.7041 165.694 13.7041ZM165.713 11.5703C167.123 11.5703 167.847 10.2529 167.847 8.49023C167.847 6.70898 167.123 5.3916 165.713 5.3916C164.284 5.3916 163.542 6.70898 163.542 8.49023C163.542 10.2529 164.284 11.5703 165.713 11.5703Z" fill="#1D1D1D"/>
<path d="M68.041 13.5L63.9961 0.0664062H67.0391L69.4512 9.47363H69.5811L71.8818 1.73633H74.5166L76.8174 9.47363H76.9287L79.3408 0.0664062H82.3838L78.3389 13.5H75.7412L73.2549 5.7998H73.1436L70.6572 13.5H68.041ZM87.2266 13.7041C84.1465 13.7041 82.2539 11.7002 82.2539 8.50879C82.2539 5.3916 84.165 3.29492 87.1152 3.29492C89.7686 3.29492 91.8467 4.96484 91.8467 8.39746V9.17676H84.9629C84.9629 10.6982 85.8721 11.6445 87.2822 11.6445C88.21 11.6445 88.8779 11.2363 89.1562 10.624H91.7725C91.3828 12.4795 89.7129 13.7041 87.2266 13.7041ZM84.9629 7.45117H89.249C89.249 6.22656 88.3955 5.35449 87.1709 5.35449C85.9092 5.35449 85.0093 6.2915 84.9629 7.45117ZM96.3184 10.1787C96.3184 10.958 96.6523 11.3477 97.543 11.3477C97.6729 11.3477 97.7656 11.3477 97.9141 11.3291V13.4814C97.71 13.5 97.543 13.5 97.3574 13.5C95.001 13.5 93.5723 12.5537 93.5723 10.2344V0.0664062H96.3184V10.1787ZM103.777 13.7041C100.697 13.7041 98.8418 11.5703 98.8418 8.49023C98.8418 5.41016 100.716 3.29492 103.777 3.29492C106.375 3.29492 108.138 4.81641 108.249 7.11719H105.67C105.503 6.11523 104.854 5.42871 103.814 5.42871C102.497 5.42871 101.625 6.54199 101.625 8.45312C101.625 10.4014 102.479 11.5146 103.814 11.5146C104.779 11.5146 105.503 10.9209 105.67 9.84473H108.249C108.119 12.127 106.449 13.7041 103.777 13.7041ZM114.483 13.7041C111.44 13.7041 109.548 11.6074 109.548 8.49023C109.548 5.37305 111.44 3.29492 114.483 3.29492C117.526 3.29492 119.438 5.37305 119.438 8.49023C119.438 11.6074 117.526 13.7041 114.483 13.7041ZM114.502 11.5703C115.912 11.5703 116.636 10.2529 116.636 8.49023C116.636 6.70898 115.912 5.3916 114.502 5.3916C113.073 5.3916 112.331 6.70898 112.331 8.49023C112.331 10.2529 113.073 11.5703 114.502 11.5703ZM121.163 13.5V3.4248H123.779V5.1875H123.891C124.317 4.01855 125.338 3.29492 126.692 3.29492C128.084 3.29492 129.104 4.01855 129.438 5.1875H129.531C129.958 4.03711 131.09 3.29492 132.574 3.29492C134.448 3.29492 135.747 4.53809 135.747 6.72754V13.5H133.001V7.26562C133.001 6.11523 132.333 5.55859 131.424 5.55859C130.385 5.55859 129.791 6.28223 129.791 7.33984V13.5H127.119V7.19141C127.119 6.18945 126.488 5.55859 125.561 5.55859C124.633 5.55859 123.909 6.30078 123.909 7.45117V13.5H121.163ZM142.427 13.7041C139.347 13.7041 137.454 11.7002 137.454 8.50879C137.454 5.3916 139.365 3.29492 142.315 3.29492C144.969 3.29492 147.047 4.96484 147.047 8.39746V9.17676H140.163C140.163 10.6982 141.072 11.6445 142.482 11.6445C143.41 11.6445 144.078 11.2363 144.356 10.624H146.973C146.583 12.4795 144.913 13.7041 142.427 13.7041ZM140.163 7.45117H144.449C144.449 6.22656 143.596 5.35449 142.371 5.35449C141.109 5.35449 140.209 6.2915 140.163 7.45117ZM159.553 3.4248V5.48438H157.66V10.4014C157.66 11.1992 158.05 11.4033 158.606 11.4219C158.885 11.4219 159.367 11.4033 159.701 11.3662V13.5371C159.404 13.5928 158.922 13.6299 158.235 13.6299C156.25 13.6299 154.896 12.7393 154.914 10.791V5.48438H153.522V3.4248H154.914V1.0127H157.66V3.4248H159.553ZM165.694 13.7041C162.651 13.7041 160.759 11.6074 160.759 8.49023C160.759 5.37305 162.651 3.29492 165.694 3.29492C168.737 3.29492 170.648 5.37305 170.648 8.49023C170.648 11.6074 168.737 13.7041 165.694 13.7041ZM165.713 11.5703C167.123 11.5703 167.847 10.2529 167.847 8.49023C167.847 6.70898 167.123 5.3916 165.713 5.3916C164.284 5.3916 163.542 6.70898 163.542 8.49023C163.542 10.2529 164.284 11.5703 165.713 11.5703Z" fill="black" fill-opacity="0.2"/>
<path d="M68.041 13.5L63.9961 0.0664062H67.0391L69.4512 9.47363H69.5811L71.8818 1.73633H74.5166L76.8174 9.47363H76.9287L79.3408 0.0664062H82.3838L78.3389 13.5H75.7412L73.2549 5.7998H73.1436L70.6572 13.5H68.041ZM87.2266 13.7041C84.1465 13.7041 82.2539 11.7002 82.2539 8.50879C82.2539 5.3916 84.165 3.29492 87.1152 3.29492C89.7686 3.29492 91.8467 4.96484 91.8467 8.39746V9.17676H84.9629C84.9629 10.6982 85.8721 11.6445 87.2822 11.6445C88.21 11.6445 88.8779 11.2363 89.1562 10.624H91.7725C91.3828 12.4795 89.7129 13.7041 87.2266 13.7041ZM84.9629 7.45117H89.249C89.249 6.22656 88.3955 5.35449 87.1709 5.35449C85.9092 5.35449 85.0093 6.2915 84.9629 7.45117ZM96.3184 10.1787C96.3184 10.958 96.6523 11.3477 97.543 11.3477C97.6729 11.3477 97.7656 11.3477 97.9141 11.3291V13.4814C97.71 13.5 97.543 13.5 97.3574 13.5C95.001 13.5 93.5723 12.5537 93.5723 10.2344V0.0664062H96.3184V10.1787ZM103.777 13.7041C100.697 13.7041 98.8418 11.5703 98.8418 8.49023C98.8418 5.41016 100.716 3.29492 103.777 3.29492C106.375 3.29492 108.138 4.81641 108.249 7.11719H105.67C105.503 6.11523 104.854 5.42871 103.814 5.42871C102.497 5.42871 101.625 6.54199 101.625 8.45312C101.625 10.4014 102.479 11.5146 103.814 11.5146C104.779 11.5146 105.503 10.9209 105.67 9.84473H108.249C108.119 12.127 106.449 13.7041 103.777 13.7041ZM114.483 13.7041C111.44 13.7041 109.548 11.6074 109.548 8.49023C109.548 5.37305 111.44 3.29492 114.483 3.29492C117.526 3.29492 119.438 5.37305 119.438 8.49023C119.438 11.6074 117.526 13.7041 114.483 13.7041ZM114.502 11.5703C115.912 11.5703 116.636 10.2529 116.636 8.49023C116.636 6.70898 115.912 5.3916 114.502 5.3916C113.073 5.3916 112.331 6.70898 112.331 8.49023C112.331 10.2529 113.073 11.5703 114.502 11.5703ZM121.163 13.5V3.4248H123.779V5.1875H123.891C124.317 4.01855 125.338 3.29492 126.692 3.29492C128.084 3.29492 129.104 4.01855 129.438 5.1875H129.531C129.958 4.03711 131.09 3.29492 132.574 3.29492C134.448 3.29492 135.747 4.53809 135.747 6.72754V13.5H133.001V7.26562C133.001 6.11523 132.333 5.55859 131.424 5.55859C130.385 5.55859 129.791 6.28223 129.791 7.33984V13.5H127.119V7.19141C127.119 6.18945 126.488 5.55859 125.561 5.55859C124.633 5.55859 123.909 6.30078 123.909 7.45117V13.5H121.163ZM142.427 13.7041C139.347 13.7041 137.454 11.7002 137.454 8.50879C137.454 5.3916 139.365 3.29492 142.315 3.29492C144.969 3.29492 147.047 4.96484 147.047 8.39746V9.17676H140.163C140.163 10.6982 141.072 11.6445 142.482 11.6445C143.41 11.6445 144.078 11.2363 144.356 10.624H146.973C146.583 12.4795 144.913 13.7041 142.427 13.7041ZM140.163 7.45117H144.449C144.449 6.22656 143.596 5.35449 142.371 5.35449C141.109 5.35449 140.209 6.2915 140.163 7.45117ZM159.553 3.4248V5.48438H157.66V10.4014C157.66 11.1992 158.05 11.4033 158.606 11.4219C158.885 11.4219 159.367 11.4033 159.701 11.3662V13.5371C159.404 13.5928 158.922 13.6299 158.235 13.6299C156.25 13.6299 154.896 12.7393 154.914 10.791V5.48438H153.522V3.4248H154.914V1.0127H157.66V3.4248H159.553ZM165.694 13.7041C162.651 13.7041 160.759 11.6074 160.759 8.49023C160.759 5.37305 162.651 3.29492 165.694 3.29492C168.737 3.29492 170.648 5.37305 170.648 8.49023C170.648 11.6074 168.737 13.7041 165.694 13.7041ZM165.713 11.5703C167.123 11.5703 167.847 10.2529 167.847 8.49023C167.847 6.70898 167.123 5.3916 165.713 5.3916C164.284 5.3916 163.542 6.70898 163.542 8.49023C163.542 10.2529 164.284 11.5703 165.713 11.5703Z" fill="black" fill-opacity="0.2"/>
<path d="M68.041 13.5L63.9961 0.0664062H67.0391L69.4512 9.47363H69.5811L71.8818 1.73633H74.5166L76.8174 9.47363H76.9287L79.3408 0.0664062H82.3838L78.3389 13.5H75.7412L73.2549 5.7998H73.1436L70.6572 13.5H68.041ZM87.2266 13.7041C84.1465 13.7041 82.2539 11.7002 82.2539 8.50879C82.2539 5.3916 84.165 3.29492 87.1152 3.29492C89.7686 3.29492 91.8467 4.96484 91.8467 8.39746V9.17676H84.9629C84.9629 10.6982 85.8721 11.6445 87.2822 11.6445C88.21 11.6445 88.8779 11.2363 89.1562 10.624H91.7725C91.3828 12.4795 89.7129 13.7041 87.2266 13.7041ZM84.9629 7.45117H89.249C89.249 6.22656 88.3955 5.35449 87.1709 5.35449C85.9092 5.35449 85.0093 6.2915 84.9629 7.45117ZM96.3184 10.1787C96.3184 10.958 96.6523 11.3477 97.543 11.3477C97.6729 11.3477 97.7656 11.3477 97.9141 11.3291V13.4814C97.71 13.5 97.543 13.5 97.3574 13.5C95.001 13.5 93.5723 12.5537 93.5723 10.2344V0.0664062H96.3184V10.1787ZM103.777 13.7041C100.697 13.7041 98.8418 11.5703 98.8418 8.49023C98.8418 5.41016 100.716 3.29492 103.777 3.29492C106.375 3.29492 108.138 4.81641 108.249 7.11719H105.67C105.503 6.11523 104.854 5.42871 103.814 5.42871C102.497 5.42871 101.625 6.54199 101.625 8.45312C101.625 10.4014 102.479 11.5146 103.814 11.5146C104.779 11.5146 105.503 10.9209 105.67 9.84473H108.249C108.119 12.127 106.449 13.7041 103.777 13.7041ZM114.483 13.7041C111.44 13.7041 109.548 11.6074 109.548 8.49023C109.548 5.37305 111.44 3.29492 114.483 3.29492C117.526 3.29492 119.438 5.37305 119.438 8.49023C119.438 11.6074 117.526 13.7041 114.483 13.7041ZM114.502 11.5703C115.912 11.5703 116.636 10.2529 116.636 8.49023C116.636 6.70898 115.912 5.3916 114.502 5.3916C113.073 5.3916 112.331 6.70898 112.331 8.49023C112.331 10.2529 113.073 11.5703 114.502 11.5703ZM121.163 13.5V3.4248H123.779V5.1875H123.891C124.317 4.01855 125.338 3.29492 126.692 3.29492C128.084 3.29492 129.104 4.01855 129.438 5.1875H129.531C129.958 4.03711 131.09 3.29492 132.574 3.29492C134.448 3.29492 135.747 4.53809 135.747 6.72754V13.5H133.001V7.26562C133.001 6.11523 132.333 5.55859 131.424 5.55859C130.385 5.55859 129.791 6.28223 129.791 7.33984V13.5H127.119V7.19141C127.119 6.18945 126.488 5.55859 125.561 5.55859C124.633 5.55859 123.909 6.30078 123.909 7.45117V13.5H121.163ZM142.427 13.7041C139.347 13.7041 137.454 11.7002 137.454 8.50879C137.454 5.3916 139.365 3.29492 142.315 3.29492C144.969 3.29492 147.047 4.96484 147.047 8.39746V9.17676H140.163C140.163 10.6982 141.072 11.6445 142.482 11.6445C143.41 11.6445 144.078 11.2363 144.356 10.624H146.973C146.583 12.4795 144.913 13.7041 142.427 13.7041ZM140.163 7.45117H144.449C144.449 6.22656 143.596 5.35449 142.371 5.35449C141.109 5.35449 140.209 6.2915 140.163 7.45117ZM159.553 3.4248V5.48438H157.66V10.4014C157.66 11.1992 158.05 11.4033 158.606 11.4219C158.885 11.4219 159.367 11.4033 159.701 11.3662V13.5371C159.404 13.5928 158.922 13.6299 158.235 13.6299C156.25 13.6299 154.896 12.7393 154.914 10.791V5.48438H153.522V3.4248H154.914V1.0127H157.66V3.4248H159.553ZM165.694 13.7041C162.651 13.7041 160.759 11.6074 160.759 8.49023C160.759 5.37305 162.651 3.29492 165.694 3.29492C168.737 3.29492 170.648 5.37305 170.648 8.49023C170.648 11.6074 168.737 13.7041 165.694 13.7041ZM165.713 11.5703C167.123 11.5703 167.847 10.2529 167.847 8.49023C167.847 6.70898 167.123 5.3916 165.713 5.3916C164.284 5.3916 163.542 6.70898 163.542 8.49023C163.542 10.2529 164.284 11.5703 165.713 11.5703Z" fill="black" fill-opacity="0.2"/>
<path d="M68.041 13.5L63.9961 0.0664062H67.0391L69.4512 9.47363H69.5811L71.8818 1.73633H74.5166L76.8174 9.47363H76.9287L79.3408 0.0664062H82.3838L78.3389 13.5H75.7412L73.2549 5.7998H73.1436L70.6572 13.5H68.041ZM87.2266 13.7041C84.1465 13.7041 82.2539 11.7002 82.2539 8.50879C82.2539 5.3916 84.165 3.29492 87.1152 3.29492C89.7686 3.29492 91.8467 4.96484 91.8467 8.39746V9.17676H84.9629C84.9629 10.6982 85.8721 11.6445 87.2822 11.6445C88.21 11.6445 88.8779 11.2363 89.1562 10.624H91.7725C91.3828 12.4795 89.7129 13.7041 87.2266 13.7041ZM84.9629 7.45117H89.249C89.249 6.22656 88.3955 5.35449 87.1709 5.35449C85.9092 5.35449 85.0093 6.2915 84.9629 7.45117ZM96.3184 10.1787C96.3184 10.958 96.6523 11.3477 97.543 11.3477C97.6729 11.3477 97.7656 11.3477 97.9141 11.3291V13.4814C97.71 13.5 97.543 13.5 97.3574 13.5C95.001 13.5 93.5723 12.5537 93.5723 10.2344V0.0664062H96.3184V10.1787ZM103.777 13.7041C100.697 13.7041 98.8418 11.5703 98.8418 8.49023C98.8418 5.41016 100.716 3.29492 103.777 3.29492C106.375 3.29492 108.138 4.81641 108.249 7.11719H105.67C105.503 6.11523 104.854 5.42871 103.814 5.42871C102.497 5.42871 101.625 6.54199 101.625 8.45312C101.625 10.4014 102.479 11.5146 103.814 11.5146C104.779 11.5146 105.503 10.9209 105.67 9.84473H108.249C108.119 12.127 106.449 13.7041 103.777 13.7041ZM114.483 13.7041C111.44 13.7041 109.548 11.6074 109.548 8.49023C109.548 5.37305 111.44 3.29492 114.483 3.29492C117.526 3.29492 119.438 5.37305 119.438 8.49023C119.438 11.6074 117.526 13.7041 114.483 13.7041ZM114.502 11.5703C115.912 11.5703 116.636 10.2529 116.636 8.49023C116.636 6.70898 115.912 5.3916 114.502 5.3916C113.073 5.3916 112.331 6.70898 112.331 8.49023C112.331 10.2529 113.073 11.5703 114.502 11.5703ZM121.163 13.5V3.4248H123.779V5.1875H123.891C124.317 4.01855 125.338 3.29492 126.692 3.29492C128.084 3.29492 129.104 4.01855 129.438 5.1875H129.531C129.958 4.03711 131.09 3.29492 132.574 3.29492C134.448 3.29492 135.747 4.53809 135.747 6.72754V13.5H133.001V7.26562C133.001 6.11523 132.333 5.55859 131.424 5.55859C130.385 5.55859 129.791 6.28223 129.791 7.33984V13.5H127.119V7.19141C127.119 6.18945 126.488 5.55859 125.561 5.55859C124.633 5.55859 123.909 6.30078 123.909 7.45117V13.5H121.163ZM142.427 13.7041C139.347 13.7041 137.454 11.7002 137.454 8.50879C137.454 5.3916 139.365 3.29492 142.315 3.29492C144.969 3.29492 147.047 4.96484 147.047 8.39746V9.17676H140.163C140.163 10.6982 141.072 11.6445 142.482 11.6445C143.41 11.6445 144.078 11.2363 144.356 10.624H146.973C146.583 12.4795 144.913 13.7041 142.427 13.7041ZM140.163 7.45117H144.449C144.449 6.22656 143.596 5.35449 142.371 5.35449C141.109 5.35449 140.209 6.2915 140.163 7.45117ZM159.553 3.4248V5.48438H157.66V10.4014C157.66 11.1992 158.05 11.4033 158.606 11.4219C158.885 11.4219 159.367 11.4033 159.701 11.3662V13.5371C159.404 13.5928 158.922 13.6299 158.235 13.6299C156.25 13.6299 154.896 12.7393 154.914 10.791V5.48438H153.522V3.4248H154.914V1.0127H157.66V3.4248H159.553ZM165.694 13.7041C162.651 13.7041 160.759 11.6074 160.759 8.49023C160.759 5.37305 162.651 3.29492 165.694 3.29492C168.737 3.29492 170.648 5.37305 170.648 8.49023C170.648 11.6074 168.737 13.7041 165.694 13.7041ZM165.713 11.5703C167.123 11.5703 167.847 10.2529 167.847 8.49023C167.847 6.70898 167.123 5.3916 165.713 5.3916C164.284 5.3916 163.542 6.70898 163.542 8.49023C163.542 10.2529 164.284 11.5703 165.713 11.5703Z" fill="black" fill-opacity="0.2"/>
<path d="M68.041 13.5L63.9961 0.0664062H67.0391L69.4512 9.47363H69.5811L71.8818 1.73633H74.5166L76.8174 9.47363H76.9287L79.3408 0.0664062H82.3838L78.3389 13.5H75.7412L73.2549 5.7998H73.1436L70.6572 13.5H68.041ZM87.2266 13.7041C84.1465 13.7041 82.2539 11.7002 82.2539 8.50879C82.2539 5.3916 84.165 3.29492 87.1152 3.29492C89.7686 3.29492 91.8467 4.96484 91.8467 8.39746V9.17676H84.9629C84.9629 10.6982 85.8721 11.6445 87.2822 11.6445C88.21 11.6445 88.8779 11.2363 89.1562 10.624H91.7725C91.3828 12.4795 89.7129 13.7041 87.2266 13.7041ZM84.9629 7.45117H89.249C89.249 6.22656 88.3955 5.35449 87.1709 5.35449C85.9092 5.35449 85.0093 6.2915 84.9629 7.45117ZM96.3184 10.1787C96.3184 10.958 96.6523 11.3477 97.543 11.3477C97.6729 11.3477 97.7656 11.3477 97.9141 11.3291V13.4814C97.71 13.5 97.543 13.5 97.3574 13.5C95.001 13.5 93.5723 12.5537 93.5723 10.2344V0.0664062H96.3184V10.1787ZM103.777 13.7041C100.697 13.7041 98.8418 11.5703 98.8418 8.49023C98.8418 5.41016 100.716 3.29492 103.777 3.29492C106.375 3.29492 108.138 4.81641 108.249 7.11719H105.67C105.503 6.11523 104.854 5.42871 103.814 5.42871C102.497 5.42871 101.625 6.54199 101.625 8.45312C101.625 10.4014 102.479 11.5146 103.814 11.5146C104.779 11.5146 105.503 10.9209 105.67 9.84473H108.249C108.119 12.127 106.449 13.7041 103.777 13.7041ZM114.483 13.7041C111.44 13.7041 109.548 11.6074 109.548 8.49023C109.548 5.37305 111.44 3.29492 114.483 3.29492C117.526 3.29492 119.438 5.37305 119.438 8.49023C119.438 11.6074 117.526 13.7041 114.483 13.7041ZM114.502 11.5703C115.912 11.5703 116.636 10.2529 116.636 8.49023C116.636 6.70898 115.912 5.3916 114.502 5.3916C113.073 5.3916 112.331 6.70898 112.331 8.49023C112.331 10.2529 113.073 11.5703 114.502 11.5703ZM121.163 13.5V3.4248H123.779V5.1875H123.891C124.317 4.01855 125.338 3.29492 126.692 3.29492C128.084 3.29492 129.104 4.01855 129.438 5.1875H129.531C129.958 4.03711 131.09 3.29492 132.574 3.29492C134.448 3.29492 135.747 4.53809 135.747 6.72754V13.5H133.001V7.26562C133.001 6.11523 132.333 5.55859 131.424 5.55859C130.385 5.55859 129.791 6.28223 129.791 7.33984V13.5H127.119V7.19141C127.119 6.18945 126.488 5.55859 125.561 5.55859C124.633 5.55859 123.909 6.30078 123.909 7.45117V13.5H121.163ZM142.427 13.7041C139.347 13.7041 137.454 11.7002 137.454 8.50879C137.454 5.3916 139.365 3.29492 142.315 3.29492C144.969 3.29492 147.047 4.96484 147.047 8.39746V9.17676H140.163C140.163 10.6982 141.072 11.6445 142.482 11.6445C143.41 11.6445 144.078 11.2363 144.356 10.624H146.973C146.583 12.4795 144.913 13.7041 142.427 13.7041ZM140.163 7.45117H144.449C144.449 6.22656 143.596 5.35449 142.371 5.35449C141.109 5.35449 140.209 6.2915 140.163 7.45117ZM159.553 3.4248V5.48438H157.66V10.4014C157.66 11.1992 158.05 11.4033 158.606 11.4219C158.885 11.4219 159.367 11.4033 159.701 11.3662V13.5371C159.404 13.5928 158.922 13.6299 158.235 13.6299C156.25 13.6299 154.896 12.7393 154.914 10.791V5.48438H153.522V3.4248H154.914V1.0127H157.66V3.4248H159.553ZM165.694 13.7041C162.651 13.7041 160.759 11.6074 160.759 8.49023C160.759 5.37305 162.651 3.29492 165.694 3.29492C168.737 3.29492 170.648 5.37305 170.648 8.49023C170.648 11.6074 168.737 13.7041 165.694 13.7041ZM165.713 11.5703C167.123 11.5703 167.847 10.2529 167.847 8.49023C167.847 6.70898 167.123 5.3916 165.713 5.3916C164.284 5.3916 163.542 6.70898 163.542 8.49023C163.542 10.2529 164.284 11.5703 165.713 11.5703Z" fill="black" fill-opacity="0.2"/>
<path d="M68.041 13.5L63.9961 0.0664062H67.0391L69.4512 9.47363H69.5811L71.8818 1.73633H74.5166L76.8174 9.47363H76.9287L79.3408 0.0664062H82.3838L78.3389 13.5H75.7412L73.2549 5.7998H73.1436L70.6572 13.5H68.041ZM87.2266 13.7041C84.1465 13.7041 82.2539 11.7002 82.2539 8.50879C82.2539 5.3916 84.165 3.29492 87.1152 3.29492C89.7686 3.29492 91.8467 4.96484 91.8467 8.39746V9.17676H84.9629C84.9629 10.6982 85.8721 11.6445 87.2822 11.6445C88.21 11.6445 88.8779 11.2363 89.1562 10.624H91.7725C91.3828 12.4795 89.7129 13.7041 87.2266 13.7041ZM84.9629 7.45117H89.249C89.249 6.22656 88.3955 5.35449 87.1709 5.35449C85.9092 5.35449 85.0093 6.2915 84.9629 7.45117ZM96.3184 10.1787C96.3184 10.958 96.6523 11.3477 97.543 11.3477C97.6729 11.3477 97.7656 11.3477 97.9141 11.3291V13.4814C97.71 13.5 97.543 13.5 97.3574 13.5C95.001 13.5 93.5723 12.5537 93.5723 10.2344V0.0664062H96.3184V10.1787ZM103.777 13.7041C100.697 13.7041 98.8418 11.5703 98.8418 8.49023C98.8418 5.41016 100.716 3.29492 103.777 3.29492C106.375 3.29492 108.138 4.81641 108.249 7.11719H105.67C105.503 6.11523 104.854 5.42871 103.814 5.42871C102.497 5.42871 101.625 6.54199 101.625 8.45312C101.625 10.4014 102.479 11.5146 103.814 11.5146C104.779 11.5146 105.503 10.9209 105.67 9.84473H108.249C108.119 12.127 106.449 13.7041 103.777 13.7041ZM114.483 13.7041C111.44 13.7041 109.548 11.6074 109.548 8.49023C109.548 5.37305 111.44 3.29492 114.483 3.29492C117.526 3.29492 119.438 5.37305 119.438 8.49023C119.438 11.6074 117.526 13.7041 114.483 13.7041ZM114.502 11.5703C115.912 11.5703 116.636 10.2529 116.636 8.49023C116.636 6.70898 115.912 5.3916 114.502 5.3916C113.073 5.3916 112.331 6.70898 112.331 8.49023C112.331 10.2529 113.073 11.5703 114.502 11.5703ZM121.163 13.5V3.4248H123.779V5.1875H123.891C124.317 4.01855 125.338 3.29492 126.692 3.29492C128.084 3.29492 129.104 4.01855 129.438 5.1875H129.531C129.958 4.03711 131.09 3.29492 132.574 3.29492C134.448 3.29492 135.747 4.53809 135.747 6.72754V13.5H133.001V7.26562C133.001 6.11523 132.333 5.55859 131.424 5.55859C130.385 5.55859 129.791 6.28223 129.791 7.33984V13.5H127.119V7.19141C127.119 6.18945 126.488 5.55859 125.561 5.55859C124.633 5.55859 123.909 6.30078 123.909 7.45117V13.5H121.163ZM142.427 13.7041C139.347 13.7041 137.454 11.7002 137.454 8.50879C137.454 5.3916 139.365 3.29492 142.315 3.29492C144.969 3.29492 147.047 4.96484 147.047 8.39746V9.17676H140.163C140.163 10.6982 141.072 11.6445 142.482 11.6445C143.41 11.6445 144.078 11.2363 144.356 10.624H146.973C146.583 12.4795 144.913 13.7041 142.427 13.7041ZM140.163 7.45117H144.449C144.449 6.22656 143.596 5.35449 142.371 5.35449C141.109 5.35449 140.209 6.2915 140.163 7.45117ZM159.553 3.4248V5.48438H157.66V10.4014C157.66 11.1992 158.05 11.4033 158.606 11.4219C158.885 11.4219 159.367 11.4033 159.701 11.3662V13.5371C159.404 13.5928 158.922 13.6299 158.235 13.6299C156.25 13.6299 154.896 12.7393 154.914 10.791V5.48438H153.522V3.4248H154.914V1.0127H157.66V3.4248H159.553ZM165.694 13.7041C162.651 13.7041 160.759 11.6074 160.759 8.49023C160.759 5.37305 162.651 3.29492 165.694 3.29492C168.737 3.29492 170.648 5.37305 170.648 8.49023C170.648 11.6074 168.737 13.7041 165.694 13.7041ZM165.713 11.5703C167.123 11.5703 167.847 10.2529 167.847 8.49023C167.847 6.70898 167.123 5.3916 165.713 5.3916C164.284 5.3916 163.542 6.70898 163.542 8.49023C163.542 10.2529 164.284 11.5703 165.713 11.5703Z" fill="black" fill-opacity="0.2"/>
<path d="M68.041 13.5L63.9961 0.0664062H67.0391L69.4512 9.47363H69.5811L71.8818 1.73633H74.5166L76.8174 9.47363H76.9287L79.3408 0.0664062H82.3838L78.3389 13.5H75.7412L73.2549 5.7998H73.1436L70.6572 13.5H68.041ZM87.2266 13.7041C84.1465 13.7041 82.2539 11.7002 82.2539 8.50879C82.2539 5.3916 84.165 3.29492 87.1152 3.29492C89.7686 3.29492 91.8467 4.96484 91.8467 8.39746V9.17676H84.9629C84.9629 10.6982 85.8721 11.6445 87.2822 11.6445C88.21 11.6445 88.8779 11.2363 89.1562 10.624H91.7725C91.3828 12.4795 89.7129 13.7041 87.2266 13.7041ZM84.9629 7.45117H89.249C89.249 6.22656 88.3955 5.35449 87.1709 5.35449C85.9092 5.35449 85.0093 6.2915 84.9629 7.45117ZM96.3184 10.1787C96.3184 10.958 96.6523 11.3477 97.543 11.3477C97.6729 11.3477 97.7656 11.3477 97.9141 11.3291V13.4814C97.71 13.5 97.543 13.5 97.3574 13.5C95.001 13.5 93.5723 12.5537 93.5723 10.2344V0.0664062H96.3184V10.1787ZM103.777 13.7041C100.697 13.7041 98.8418 11.5703 98.8418 8.49023C98.8418 5.41016 100.716 3.29492 103.777 3.29492C106.375 3.29492 108.138 4.81641 108.249 7.11719H105.67C105.503 6.11523 104.854 5.42871 103.814 5.42871C102.497 5.42871 101.625 6.54199 101.625 8.45312C101.625 10.4014 102.479 11.5146 103.814 11.5146C104.779 11.5146 105.503 10.9209 105.67 9.84473H108.249C108.119 12.127 106.449 13.7041 103.777 13.7041ZM114.483 13.7041C111.44 13.7041 109.548 11.6074 109.548 8.49023C109.548 5.37305 111.44 3.29492 114.483 3.29492C117.526 3.29492 119.438 5.37305 119.438 8.49023C119.438 11.6074 117.526 13.7041 114.483 13.7041ZM114.502 11.5703C115.912 11.5703 116.636 10.2529 116.636 8.49023C116.636 6.70898 115.912 5.3916 114.502 5.3916C113.073 5.3916 112.331 6.70898 112.331 8.49023C112.331 10.2529 113.073 11.5703 114.502 11.5703ZM121.163 13.5V3.4248H123.779V5.1875H123.891C124.317 4.01855 125.338 3.29492 126.692 3.29492C128.084 3.29492 129.104 4.01855 129.438 5.1875H129.531C129.958 4.03711 131.09 3.29492 132.574 3.29492C134.448 3.29492 135.747 4.53809 135.747 6.72754V13.5H133.001V7.26562C133.001 6.11523 132.333 5.55859 131.424 5.55859C130.385 5.55859 129.791 6.28223 129.791 7.33984V13.5H127.119V7.19141C127.119 6.18945 126.488 5.55859 125.561 5.55859C124.633 5.55859 123.909 6.30078 123.909 7.45117V13.5H121.163ZM142.427 13.7041C139.347 13.7041 137.454 11.7002 137.454 8.50879C137.454 5.3916 139.365 3.29492 142.315 3.29492C144.969 3.29492 147.047 4.96484 147.047 8.39746V9.17676H140.163C140.163 10.6982 141.072 11.6445 142.482 11.6445C143.41 11.6445 144.078 11.2363 144.356 10.624H146.973C146.583 12.4795 144.913 13.7041 142.427 13.7041ZM140.163 7.45117H144.449C144.449 6.22656 143.596 5.35449 142.371 5.35449C141.109 5.35449 140.209 6.2915 140.163 7.45117ZM159.553 3.4248V5.48438H157.66V10.4014C157.66 11.1992 158.05 11.4033 158.606 11.4219C158.885 11.4219 159.367 11.4033 159.701 11.3662V13.5371C159.404 13.5928 158.922 13.6299 158.235 13.6299C156.25 13.6299 154.896 12.7393 154.914 10.791V5.48438H153.522V3.4248H154.914V1.0127H157.66V3.4248H159.553ZM165.694 13.7041C162.651 13.7041 160.759 11.6074 160.759 8.49023C160.759 5.37305 162.651 3.29492 165.694 3.29492C168.737 3.29492 170.648 5.37305 170.648 8.49023C170.648 11.6074 168.737 13.7041 165.694 13.7041ZM165.713 11.5703C167.123 11.5703 167.847 10.2529 167.847 8.49023C167.847 6.70898 167.123 5.3916 165.713 5.3916C164.284 5.3916 163.542 6.70898 163.542 8.49023C163.542 10.2529 164.284 11.5703 165.713 11.5703Z" fill="black" fill-opacity="0.2"/>
<path d="M65.1885 47.5V29.8242H68.8506V37.6611H69.0947L75.5156 29.8242H79.9346L73.3428 37.7344L80.0078 47.5H75.6133L70.7061 40.2002L68.8506 42.4463V47.5H65.1885ZM96.9512 38.6621C96.9512 44.4238 93.3623 47.7441 88.6992 47.7441C83.9873 47.7441 80.4229 44.3994 80.4229 38.6621C80.4229 32.9004 83.9873 29.5801 88.6992 29.5801C93.3623 29.5801 96.9512 32.9004 96.9512 38.6621ZM93.2158 38.6621C93.2158 34.8779 91.4336 32.8271 88.6992 32.8271C85.9648 32.8271 84.1582 34.8779 84.1582 38.6621C84.1582 42.4463 85.9648 44.4971 88.6992 44.4971C91.4336 44.4971 93.2158 42.4463 93.2158 38.6621ZM99.5879 47.5V29.8242H106.521C110.55 29.8242 112.845 32.0947 112.845 35.5859C112.845 38.0029 111.734 39.7607 109.72 40.6152L113.479 47.5H109.427L106.058 41.2256H103.25V47.5H99.5879ZM103.25 38.2471H105.838C108.011 38.2471 109.061 37.3438 109.061 35.5859C109.061 33.8037 108.011 32.8271 105.838 32.8271H103.25V38.2471ZM115.384 47.5V29.8242H127.249V32.8516H119.046V37.1484H126.639V40.1758H119.046V44.4727H127.273V47.5H115.384ZM133.06 47.5H129.104L135.232 29.8242H139.944L146.048 47.5H142.117L140.799 43.4229H134.402L133.06 47.5ZM135.33 40.5664H139.871L137.649 33.8037H137.527L135.33 40.5664ZM167.068 35.9766C166.775 34.0234 165.262 32.8271 163.211 32.8271C160.452 32.8271 158.646 34.9512 158.646 38.6621C158.646 42.4707 160.477 44.4971 163.187 44.4971C165.213 44.4971 166.702 43.374 167.068 41.4697L170.779 41.4941C170.364 44.7656 167.63 47.7441 163.138 47.7441C158.401 47.7441 154.91 44.4238 154.91 38.6621C154.91 32.9004 158.475 29.5801 163.138 29.5801C167.215 29.5801 170.291 31.9238 170.779 35.9766H167.068ZM184.28 29.8242H187.967V41.2988C187.967 45.1807 185.037 47.7441 180.643 47.7441C176.248 47.7441 173.343 45.1807 173.343 41.2988V29.8242H177.005V41.0059C177.005 43.0322 178.445 44.5215 180.643 44.5215C182.864 44.5215 184.28 43.0322 184.28 41.0059V29.8242ZM200.54 34.8779C200.394 33.4863 199.271 32.6562 197.488 32.6562C195.633 32.6562 194.607 33.5107 194.583 34.6826C194.559 35.9521 195.901 36.5381 197.415 36.8799L199.002 37.2705C202.029 37.9541 204.3 39.4922 204.3 42.4463C204.3 45.6934 201.761 47.7441 197.464 47.7441C193.191 47.7441 190.457 45.7666 190.359 41.9824H193.924C194.046 43.7646 195.462 44.668 197.415 44.668C199.344 44.668 200.589 43.7646 200.589 42.4463C200.589 41.25 199.49 40.6885 197.562 40.2002L195.633 39.7363C192.654 39.0039 190.823 37.5146 190.823 34.9268C190.823 31.7041 193.655 29.5801 197.513 29.5801C201.419 29.5801 204.007 31.7529 204.056 34.8779H200.54ZM206.009 32.8516V29.8242H220.486V32.8516H215.066V47.5H211.429V32.8516H206.009ZM238.162 38.6621C238.162 44.4238 234.573 47.7441 229.91 47.7441C225.198 47.7441 221.634 44.3994 221.634 38.6621C221.634 32.9004 225.198 29.5801 229.91 29.5801C234.573 29.5801 238.162 32.9004 238.162 38.6621ZM234.427 38.6621C234.427 34.8779 232.645 32.8271 229.91 32.8271C227.176 32.8271 225.369 34.8779 225.369 38.6621C225.369 42.4463 227.176 44.4971 229.91 44.4971C232.645 44.4971 234.427 42.4463 234.427 38.6621ZM240.799 29.8242H245.34L250.247 41.8115H250.442L255.35 29.8242H259.891V47.5H256.326V35.9277H256.18L251.565 47.4268H249.124L244.51 35.8789H244.363V47.5H240.799V29.8242ZM272.464 34.8779C272.317 33.4863 271.194 32.6562 269.412 32.6562C267.557 32.6562 266.531 33.5107 266.507 34.6826C266.482 35.9521 267.825 36.5381 269.339 36.8799L270.926 37.2705C273.953 37.9541 276.224 39.4922 276.224 42.4463C276.224 45.6934 273.685 47.7441 269.388 47.7441C265.115 47.7441 262.381 45.7666 262.283 41.9824H265.848C265.97 43.7646 267.386 44.668 269.339 44.668C271.268 44.668 272.513 43.7646 272.513 42.4463C272.513 41.25 271.414 40.6885 269.485 40.2002L267.557 39.7363C264.578 39.0039 262.747 37.5146 262.747 34.9268C262.747 31.7041 265.579 29.5801 269.437 29.5801C273.343 29.5801 275.931 31.7529 275.979 34.8779H272.464ZM295.413 34.8779C295.267 33.4863 294.144 32.6562 292.361 32.6562C290.506 32.6562 289.48 33.5107 289.456 34.6826C289.432 35.9521 290.774 36.5381 292.288 36.8799L293.875 37.2705C296.902 37.9541 299.173 39.4922 299.173 42.4463C299.173 45.6934 296.634 47.7441 292.337 47.7441C288.064 47.7441 285.33 45.7666 285.232 41.9824H288.797C288.919 43.7646 290.335 44.668 292.288 44.668C294.217 44.668 295.462 43.7646 295.462 42.4463C295.462 41.25 294.363 40.6885 292.435 40.2002L290.506 39.7363C287.527 39.0039 285.696 37.5146 285.696 34.9268C285.696 31.7041 288.528 29.5801 292.386 29.5801C296.292 29.5801 298.88 31.7529 298.929 34.8779H295.413ZM301.565 47.5V29.8242H313.431V32.8516H305.228V37.1484H312.82V40.1758H305.228V44.4727H313.455V47.5H301.565ZM316.287 47.5V29.8242H323.221C327.249 29.8242 329.544 32.0947 329.544 35.5859C329.544 38.0029 328.433 39.7607 326.419 40.6152L330.179 47.5H326.126L322.757 41.2256H319.949V47.5H316.287ZM319.949 38.2471H322.537C324.71 38.2471 325.76 37.3438 325.76 35.5859C325.76 33.8037 324.71 32.8271 322.537 32.8271H319.949V38.2471ZM334.695 29.8242L338.992 43.3008H339.163L343.484 29.8242H347.537L341.434 47.5H336.722L330.594 29.8242H334.695ZM348.855 32.8516V29.8242H358.719V32.8516H355.618V44.4727H358.719V47.5H348.855V44.4727H351.956V32.8516H348.855ZM372.83 35.9766C372.537 34.0234 371.023 32.8271 368.973 32.8271C366.214 32.8271 364.407 34.9512 364.407 38.6621C364.407 42.4707 366.238 44.4971 368.948 44.4971C370.975 44.4971 372.464 43.374 372.83 41.4697L376.541 41.4941C376.126 44.7656 373.392 47.7441 368.899 47.7441C364.163 47.7441 360.672 44.4238 360.672 38.6621C360.672 32.9004 364.236 29.5801 368.899 29.5801C372.977 29.5801 376.053 31.9238 376.541 35.9766H372.83ZM379.104 47.5V29.8242H390.97V32.8516H382.767V37.1484H390.359V40.1758H382.767V44.4727H390.994V47.5H379.104Z" fill="#1D1D1D"/>
<path d="M65.1885 47.5V29.8242H68.8506V37.6611H69.0947L75.5156 29.8242H79.9346L73.3428 37.7344L80.0078 47.5H75.6133L70.7061 40.2002L68.8506 42.4463V47.5H65.1885ZM96.9512 38.6621C96.9512 44.4238 93.3623 47.7441 88.6992 47.7441C83.9873 47.7441 80.4229 44.3994 80.4229 38.6621C80.4229 32.9004 83.9873 29.5801 88.6992 29.5801C93.3623 29.5801 96.9512 32.9004 96.9512 38.6621ZM93.2158 38.6621C93.2158 34.8779 91.4336 32.8271 88.6992 32.8271C85.9648 32.8271 84.1582 34.8779 84.1582 38.6621C84.1582 42.4463 85.9648 44.4971 88.6992 44.4971C91.4336 44.4971 93.2158 42.4463 93.2158 38.6621ZM99.5879 47.5V29.8242H106.521C110.55 29.8242 112.845 32.0947 112.845 35.5859C112.845 38.0029 111.734 39.7607 109.72 40.6152L113.479 47.5H109.427L106.058 41.2256H103.25V47.5H99.5879ZM103.25 38.2471H105.838C108.011 38.2471 109.061 37.3438 109.061 35.5859C109.061 33.8037 108.011 32.8271 105.838 32.8271H103.25V38.2471ZM115.384 47.5V29.8242H127.249V32.8516H119.046V37.1484H126.639V40.1758H119.046V44.4727H127.273V47.5H115.384ZM133.06 47.5H129.104L135.232 29.8242H139.944L146.048 47.5H142.117L140.799 43.4229H134.402L133.06 47.5ZM135.33 40.5664H139.871L137.649 33.8037H137.527L135.33 40.5664ZM167.068 35.9766C166.775 34.0234 165.262 32.8271 163.211 32.8271C160.452 32.8271 158.646 34.9512 158.646 38.6621C158.646 42.4707 160.477 44.4971 163.187 44.4971C165.213 44.4971 166.702 43.374 167.068 41.4697L170.779 41.4941C170.364 44.7656 167.63 47.7441 163.138 47.7441C158.401 47.7441 154.91 44.4238 154.91 38.6621C154.91 32.9004 158.475 29.5801 163.138 29.5801C167.215 29.5801 170.291 31.9238 170.779 35.9766H167.068ZM184.28 29.8242H187.967V41.2988C187.967 45.1807 185.037 47.7441 180.643 47.7441C176.248 47.7441 173.343 45.1807 173.343 41.2988V29.8242H177.005V41.0059C177.005 43.0322 178.445 44.5215 180.643 44.5215C182.864 44.5215 184.28 43.0322 184.28 41.0059V29.8242ZM200.54 34.8779C200.394 33.4863 199.271 32.6562 197.488 32.6562C195.633 32.6562 194.607 33.5107 194.583 34.6826C194.559 35.9521 195.901 36.5381 197.415 36.8799L199.002 37.2705C202.029 37.9541 204.3 39.4922 204.3 42.4463C204.3 45.6934 201.761 47.7441 197.464 47.7441C193.191 47.7441 190.457 45.7666 190.359 41.9824H193.924C194.046 43.7646 195.462 44.668 197.415 44.668C199.344 44.668 200.589 43.7646 200.589 42.4463C200.589 41.25 199.49 40.6885 197.562 40.2002L195.633 39.7363C192.654 39.0039 190.823 37.5146 190.823 34.9268C190.823 31.7041 193.655 29.5801 197.513 29.5801C201.419 29.5801 204.007 31.7529 204.056 34.8779H200.54ZM206.009 32.8516V29.8242H220.486V32.8516H215.066V47.5H211.429V32.8516H206.009ZM238.162 38.6621C238.162 44.4238 234.573 47.7441 229.91 47.7441C225.198 47.7441 221.634 44.3994 221.634 38.6621C221.634 32.9004 225.198 29.5801 229.91 29.5801C234.573 29.5801 238.162 32.9004 238.162 38.6621ZM234.427 38.6621C234.427 34.8779 232.645 32.8271 229.91 32.8271C227.176 32.8271 225.369 34.8779 225.369 38.6621C225.369 42.4463 227.176 44.4971 229.91 44.4971C232.645 44.4971 234.427 42.4463 234.427 38.6621ZM240.799 29.8242H245.34L250.247 41.8115H250.442L255.35 29.8242H259.891V47.5H256.326V35.9277H256.18L251.565 47.4268H249.124L244.51 35.8789H244.363V47.5H240.799V29.8242ZM272.464 34.8779C272.317 33.4863 271.194 32.6562 269.412 32.6562C267.557 32.6562 266.531 33.5107 266.507 34.6826C266.482 35.9521 267.825 36.5381 269.339 36.8799L270.926 37.2705C273.953 37.9541 276.224 39.4922 276.224 42.4463C276.224 45.6934 273.685 47.7441 269.388 47.7441C265.115 47.7441 262.381 45.7666 262.283 41.9824H265.848C265.97 43.7646 267.386 44.668 269.339 44.668C271.268 44.668 272.513 43.7646 272.513 42.4463C272.513 41.25 271.414 40.6885 269.485 40.2002L267.557 39.7363C264.578 39.0039 262.747 37.5146 262.747 34.9268C262.747 31.7041 265.579 29.5801 269.437 29.5801C273.343 29.5801 275.931 31.7529 275.979 34.8779H272.464ZM295.413 34.8779C295.267 33.4863 294.144 32.6562 292.361 32.6562C290.506 32.6562 289.48 33.5107 289.456 34.6826C289.432 35.9521 290.774 36.5381 292.288 36.8799L293.875 37.2705C296.902 37.9541 299.173 39.4922 299.173 42.4463C299.173 45.6934 296.634 47.7441 292.337 47.7441C288.064 47.7441 285.33 45.7666 285.232 41.9824H288.797C288.919 43.7646 290.335 44.668 292.288 44.668C294.217 44.668 295.462 43.7646 295.462 42.4463C295.462 41.25 294.363 40.6885 292.435 40.2002L290.506 39.7363C287.527 39.0039 285.696 37.5146 285.696 34.9268C285.696 31.7041 288.528 29.5801 292.386 29.5801C296.292 29.5801 298.88 31.7529 298.929 34.8779H295.413ZM301.565 47.5V29.8242H313.431V32.8516H305.228V37.1484H312.82V40.1758H305.228V44.4727H313.455V47.5H301.565ZM316.287 47.5V29.8242H323.221C327.249 29.8242 329.544 32.0947 329.544 35.5859C329.544 38.0029 328.433 39.7607 326.419 40.6152L330.179 47.5H326.126L322.757 41.2256H319.949V47.5H316.287ZM319.949 38.2471H322.537C324.71 38.2471 325.76 37.3438 325.76 35.5859C325.76 33.8037 324.71 32.8271 322.537 32.8271H319.949V38.2471ZM334.695 29.8242L338.992 43.3008H339.163L343.484 29.8242H347.537L341.434 47.5H336.722L330.594 29.8242H334.695ZM348.855 32.8516V29.8242H358.719V32.8516H355.618V44.4727H358.719V47.5H348.855V44.4727H351.956V32.8516H348.855ZM372.83 35.9766C372.537 34.0234 371.023 32.8271 368.973 32.8271C366.214 32.8271 364.407 34.9512 364.407 38.6621C364.407 42.4707 366.238 44.4971 368.948 44.4971C370.975 44.4971 372.464 43.374 372.83 41.4697L376.541 41.4941C376.126 44.7656 373.392 47.7441 368.899 47.7441C364.163 47.7441 360.672 44.4238 360.672 38.6621C360.672 32.9004 364.236 29.5801 368.899 29.5801C372.977 29.5801 376.053 31.9238 376.541 35.9766H372.83ZM379.104 47.5V29.8242H390.97V32.8516H382.767V37.1484H390.359V40.1758H382.767V44.4727H390.994V47.5H379.104Z" fill="black" fill-opacity="0.2"/>
<path d="M65.1885 47.5V29.8242H68.8506V37.6611H69.0947L75.5156 29.8242H79.9346L73.3428 37.7344L80.0078 47.5H75.6133L70.7061 40.2002L68.8506 42.4463V47.5H65.1885ZM96.9512 38.6621C96.9512 44.4238 93.3623 47.7441 88.6992 47.7441C83.9873 47.7441 80.4229 44.3994 80.4229 38.6621C80.4229 32.9004 83.9873 29.5801 88.6992 29.5801C93.3623 29.5801 96.9512 32.9004 96.9512 38.6621ZM93.2158 38.6621C93.2158 34.8779 91.4336 32.8271 88.6992 32.8271C85.9648 32.8271 84.1582 34.8779 84.1582 38.6621C84.1582 42.4463 85.9648 44.4971 88.6992 44.4971C91.4336 44.4971 93.2158 42.4463 93.2158 38.6621ZM99.5879 47.5V29.8242H106.521C110.55 29.8242 112.845 32.0947 112.845 35.5859C112.845 38.0029 111.734 39.7607 109.72 40.6152L113.479 47.5H109.427L106.058 41.2256H103.25V47.5H99.5879ZM103.25 38.2471H105.838C108.011 38.2471 109.061 37.3438 109.061 35.5859C109.061 33.8037 108.011 32.8271 105.838 32.8271H103.25V38.2471ZM115.384 47.5V29.8242H127.249V32.8516H119.046V37.1484H126.639V40.1758H119.046V44.4727H127.273V47.5H115.384ZM133.06 47.5H129.104L135.232 29.8242H139.944L146.048 47.5H142.117L140.799 43.4229H134.402L133.06 47.5ZM135.33 40.5664H139.871L137.649 33.8037H137.527L135.33 40.5664ZM167.068 35.9766C166.775 34.0234 165.262 32.8271 163.211 32.8271C160.452 32.8271 158.646 34.9512 158.646 38.6621C158.646 42.4707 160.477 44.4971 163.187 44.4971C165.213 44.4971 166.702 43.374 167.068 41.4697L170.779 41.4941C170.364 44.7656 167.63 47.7441 163.138 47.7441C158.401 47.7441 154.91 44.4238 154.91 38.6621C154.91 32.9004 158.475 29.5801 163.138 29.5801C167.215 29.5801 170.291 31.9238 170.779 35.9766H167.068ZM184.28 29.8242H187.967V41.2988C187.967 45.1807 185.037 47.7441 180.643 47.7441C176.248 47.7441 173.343 45.1807 173.343 41.2988V29.8242H177.005V41.0059C177.005 43.0322 178.445 44.5215 180.643 44.5215C182.864 44.5215 184.28 43.0322 184.28 41.0059V29.8242ZM200.54 34.8779C200.394 33.4863 199.271 32.6562 197.488 32.6562C195.633 32.6562 194.607 33.5107 194.583 34.6826C194.559 35.9521 195.901 36.5381 197.415 36.8799L199.002 37.2705C202.029 37.9541 204.3 39.4922 204.3 42.4463C204.3 45.6934 201.761 47.7441 197.464 47.7441C193.191 47.7441 190.457 45.7666 190.359 41.9824H193.924C194.046 43.7646 195.462 44.668 197.415 44.668C199.344 44.668 200.589 43.7646 200.589 42.4463C200.589 41.25 199.49 40.6885 197.562 40.2002L195.633 39.7363C192.654 39.0039 190.823 37.5146 190.823 34.9268C190.823 31.7041 193.655 29.5801 197.513 29.5801C201.419 29.5801 204.007 31.7529 204.056 34.8779H200.54ZM206.009 32.8516V29.8242H220.486V32.8516H215.066V47.5H211.429V32.8516H206.009ZM238.162 38.6621C238.162 44.4238 234.573 47.7441 229.91 47.7441C225.198 47.7441 221.634 44.3994 221.634 38.6621C221.634 32.9004 225.198 29.5801 229.91 29.5801C234.573 29.5801 238.162 32.9004 238.162 38.6621ZM234.427 38.6621C234.427 34.8779 232.645 32.8271 229.91 32.8271C227.176 32.8271 225.369 34.8779 225.369 38.6621C225.369 42.4463 227.176 44.4971 229.91 44.4971C232.645 44.4971 234.427 42.4463 234.427 38.6621ZM240.799 29.8242H245.34L250.247 41.8115H250.442L255.35 29.8242H259.891V47.5H256.326V35.9277H256.18L251.565 47.4268H249.124L244.51 35.8789H244.363V47.5H240.799V29.8242ZM272.464 34.8779C272.317 33.4863 271.194 32.6562 269.412 32.6562C267.557 32.6562 266.531 33.5107 266.507 34.6826C266.482 35.9521 267.825 36.5381 269.339 36.8799L270.926 37.2705C273.953 37.9541 276.224 39.4922 276.224 42.4463C276.224 45.6934 273.685 47.7441 269.388 47.7441C265.115 47.7441 262.381 45.7666 262.283 41.9824H265.848C265.97 43.7646 267.386 44.668 269.339 44.668C271.268 44.668 272.513 43.7646 272.513 42.4463C272.513 41.25 271.414 40.6885 269.485 40.2002L267.557 39.7363C264.578 39.0039 262.747 37.5146 262.747 34.9268C262.747 31.7041 265.579 29.5801 269.437 29.5801C273.343 29.5801 275.931 31.7529 275.979 34.8779H272.464ZM295.413 34.8779C295.267 33.4863 294.144 32.6562 292.361 32.6562C290.506 32.6562 289.48 33.5107 289.456 34.6826C289.432 35.9521 290.774 36.5381 292.288 36.8799L293.875 37.2705C296.902 37.9541 299.173 39.4922 299.173 42.4463C299.173 45.6934 296.634 47.7441 292.337 47.7441C288.064 47.7441 285.33 45.7666 285.232 41.9824H288.797C288.919 43.7646 290.335 44.668 292.288 44.668C294.217 44.668 295.462 43.7646 295.462 42.4463C295.462 41.25 294.363 40.6885 292.435 40.2002L290.506 39.7363C287.527 39.0039 285.696 37.5146 285.696 34.9268C285.696 31.7041 288.528 29.5801 292.386 29.5801C296.292 29.5801 298.88 31.7529 298.929 34.8779H295.413ZM301.565 47.5V29.8242H313.431V32.8516H305.228V37.1484H312.82V40.1758H305.228V44.4727H313.455V47.5H301.565ZM316.287 47.5V29.8242H323.221C327.249 29.8242 329.544 32.0947 329.544 35.5859C329.544 38.0029 328.433 39.7607 326.419 40.6152L330.179 47.5H326.126L322.757 41.2256H319.949V47.5H316.287ZM319.949 38.2471H322.537C324.71 38.2471 325.76 37.3438 325.76 35.5859C325.76 33.8037 324.71 32.8271 322.537 32.8271H319.949V38.2471ZM334.695 29.8242L338.992 43.3008H339.163L343.484 29.8242H347.537L341.434 47.5H336.722L330.594 29.8242H334.695ZM348.855 32.8516V29.8242H358.719V32.8516H355.618V44.4727H358.719V47.5H348.855V44.4727H351.956V32.8516H348.855ZM372.83 35.9766C372.537 34.0234 371.023 32.8271 368.973 32.8271C366.214 32.8271 364.407 34.9512 364.407 38.6621C364.407 42.4707 366.238 44.4971 368.948 44.4971C370.975 44.4971 372.464 43.374 372.83 41.4697L376.541 41.4941C376.126 44.7656 373.392 47.7441 368.899 47.7441C364.163 47.7441 360.672 44.4238 360.672 38.6621C360.672 32.9004 364.236 29.5801 368.899 29.5801C372.977 29.5801 376.053 31.9238 376.541 35.9766H372.83ZM379.104 47.5V29.8242H390.97V32.8516H382.767V37.1484H390.359V40.1758H382.767V44.4727H390.994V47.5H379.104Z" fill="black" fill-opacity="0.2"/>
<path d="M65.1885 47.5V29.8242H68.8506V37.6611H69.0947L75.5156 29.8242H79.9346L73.3428 37.7344L80.0078 47.5H75.6133L70.7061 40.2002L68.8506 42.4463V47.5H65.1885ZM96.9512 38.6621C96.9512 44.4238 93.3623 47.7441 88.6992 47.7441C83.9873 47.7441 80.4229 44.3994 80.4229 38.6621C80.4229 32.9004 83.9873 29.5801 88.6992 29.5801C93.3623 29.5801 96.9512 32.9004 96.9512 38.6621ZM93.2158 38.6621C93.2158 34.8779 91.4336 32.8271 88.6992 32.8271C85.9648 32.8271 84.1582 34.8779 84.1582 38.6621C84.1582 42.4463 85.9648 44.4971 88.6992 44.4971C91.4336 44.4971 93.2158 42.4463 93.2158 38.6621ZM99.5879 47.5V29.8242H106.521C110.55 29.8242 112.845 32.0947 112.845 35.5859C112.845 38.0029 111.734 39.7607 109.72 40.6152L113.479 47.5H109.427L106.058 41.2256H103.25V47.5H99.5879ZM103.25 38.2471H105.838C108.011 38.2471 109.061 37.3438 109.061 35.5859C109.061 33.8037 108.011 32.8271 105.838 32.8271H103.25V38.2471ZM115.384 47.5V29.8242H127.249V32.8516H119.046V37.1484H126.639V40.1758H119.046V44.4727H127.273V47.5H115.384ZM133.06 47.5H129.104L135.232 29.8242H139.944L146.048 47.5H142.117L140.799 43.4229H134.402L133.06 47.5ZM135.33 40.5664H139.871L137.649 33.8037H137.527L135.33 40.5664ZM167.068 35.9766C166.775 34.0234 165.262 32.8271 163.211 32.8271C160.452 32.8271 158.646 34.9512 158.646 38.6621C158.646 42.4707 160.477 44.4971 163.187 44.4971C165.213 44.4971 166.702 43.374 167.068 41.4697L170.779 41.4941C170.364 44.7656 167.63 47.7441 163.138 47.7441C158.401 47.7441 154.91 44.4238 154.91 38.6621C154.91 32.9004 158.475 29.5801 163.138 29.5801C167.215 29.5801 170.291 31.9238 170.779 35.9766H167.068ZM184.28 29.8242H187.967V41.2988C187.967 45.1807 185.037 47.7441 180.643 47.7441C176.248 47.7441 173.343 45.1807 173.343 41.2988V29.8242H177.005V41.0059C177.005 43.0322 178.445 44.5215 180.643 44.5215C182.864 44.5215 184.28 43.0322 184.28 41.0059V29.8242ZM200.54 34.8779C200.394 33.4863 199.271 32.6562 197.488 32.6562C195.633 32.6562 194.607 33.5107 194.583 34.6826C194.559 35.9521 195.901 36.5381 197.415 36.8799L199.002 37.2705C202.029 37.9541 204.3 39.4922 204.3 42.4463C204.3 45.6934 201.761 47.7441 197.464 47.7441C193.191 47.7441 190.457 45.7666 190.359 41.9824H193.924C194.046 43.7646 195.462 44.668 197.415 44.668C199.344 44.668 200.589 43.7646 200.589 42.4463C200.589 41.25 199.49 40.6885 197.562 40.2002L195.633 39.7363C192.654 39.0039 190.823 37.5146 190.823 34.9268C190.823 31.7041 193.655 29.5801 197.513 29.5801C201.419 29.5801 204.007 31.7529 204.056 34.8779H200.54ZM206.009 32.8516V29.8242H220.486V32.8516H215.066V47.5H211.429V32.8516H206.009ZM238.162 38.6621C238.162 44.4238 234.573 47.7441 229.91 47.7441C225.198 47.7441 221.634 44.3994 221.634 38.6621C221.634 32.9004 225.198 29.5801 229.91 29.5801C234.573 29.5801 238.162 32.9004 238.162 38.6621ZM234.427 38.6621C234.427 34.8779 232.645 32.8271 229.91 32.8271C227.176 32.8271 225.369 34.8779 225.369 38.6621C225.369 42.4463 227.176 44.4971 229.91 44.4971C232.645 44.4971 234.427 42.4463 234.427 38.6621ZM240.799 29.8242H245.34L250.247 41.8115H250.442L255.35 29.8242H259.891V47.5H256.326V35.9277H256.18L251.565 47.4268H249.124L244.51 35.8789H244.363V47.5H240.799V29.8242ZM272.464 34.8779C272.317 33.4863 271.194 32.6562 269.412 32.6562C267.557 32.6562 266.531 33.5107 266.507 34.6826C266.482 35.9521 267.825 36.5381 269.339 36.8799L270.926 37.2705C273.953 37.9541 276.224 39.4922 276.224 42.4463C276.224 45.6934 273.685 47.7441 269.388 47.7441C265.115 47.7441 262.381 45.7666 262.283 41.9824H265.848C265.97 43.7646 267.386 44.668 269.339 44.668C271.268 44.668 272.513 43.7646 272.513 42.4463C272.513 41.25 271.414 40.6885 269.485 40.2002L267.557 39.7363C264.578 39.0039 262.747 37.5146 262.747 34.9268C262.747 31.7041 265.579 29.5801 269.437 29.5801C273.343 29.5801 275.931 31.7529 275.979 34.8779H272.464ZM295.413 34.8779C295.267 33.4863 294.144 32.6562 292.361 32.6562C290.506 32.6562 289.48 33.5107 289.456 34.6826C289.432 35.9521 290.774 36.5381 292.288 36.8799L293.875 37.2705C296.902 37.9541 299.173 39.4922 299.173 42.4463C299.173 45.6934 296.634 47.7441 292.337 47.7441C288.064 47.7441 285.33 45.7666 285.232 41.9824H288.797C288.919 43.7646 290.335 44.668 292.288 44.668C294.217 44.668 295.462 43.7646 295.462 42.4463C295.462 41.25 294.363 40.6885 292.435 40.2002L290.506 39.7363C287.527 39.0039 285.696 37.5146 285.696 34.9268C285.696 31.7041 288.528 29.5801 292.386 29.5801C296.292 29.5801 298.88 31.7529 298.929 34.8779H295.413ZM301.565 47.5V29.8242H313.431V32.8516H305.228V37.1484H312.82V40.1758H305.228V44.4727H313.455V47.5H301.565ZM316.287 47.5V29.8242H323.221C327.249 29.8242 329.544 32.0947 329.544 35.5859C329.544 38.0029 328.433 39.7607 326.419 40.6152L330.179 47.5H326.126L322.757 41.2256H319.949V47.5H316.287ZM319.949 38.2471H322.537C324.71 38.2471 325.76 37.3438 325.76 35.5859C325.76 33.8037 324.71 32.8271 322.537 32.8271H319.949V38.2471ZM334.695 29.8242L338.992 43.3008H339.163L343.484 29.8242H347.537L341.434 47.5H336.722L330.594 29.8242H334.695ZM348.855 32.8516V29.8242H358.719V32.8516H355.618V44.4727H358.719V47.5H348.855V44.4727H351.956V32.8516H348.855ZM372.83 35.9766C372.537 34.0234 371.023 32.8271 368.973 32.8271C366.214 32.8271 364.407 34.9512 364.407 38.6621C364.407 42.4707 366.238 44.4971 368.948 44.4971C370.975 44.4971 372.464 43.374 372.83 41.4697L376.541 41.4941C376.126 44.7656 373.392 47.7441 368.899 47.7441C364.163 47.7441 360.672 44.4238 360.672 38.6621C360.672 32.9004 364.236 29.5801 368.899 29.5801C372.977 29.5801 376.053 31.9238 376.541 35.9766H372.83ZM379.104 47.5V29.8242H390.97V32.8516H382.767V37.1484H390.359V40.1758H382.767V44.4727H390.994V47.5H379.104Z" fill="black" fill-opacity="0.2"/>
<path d="M65.1885 47.5V29.8242H68.8506V37.6611H69.0947L75.5156 29.8242H79.9346L73.3428 37.7344L80.0078 47.5H75.6133L70.7061 40.2002L68.8506 42.4463V47.5H65.1885ZM96.9512 38.6621C96.9512 44.4238 93.3623 47.7441 88.6992 47.7441C83.9873 47.7441 80.4229 44.3994 80.4229 38.6621C80.4229 32.9004 83.9873 29.5801 88.6992 29.5801C93.3623 29.5801 96.9512 32.9004 96.9512 38.6621ZM93.2158 38.6621C93.2158 34.8779 91.4336 32.8271 88.6992 32.8271C85.9648 32.8271 84.1582 34.8779 84.1582 38.6621C84.1582 42.4463 85.9648 44.4971 88.6992 44.4971C91.4336 44.4971 93.2158 42.4463 93.2158 38.6621ZM99.5879 47.5V29.8242H106.521C110.55 29.8242 112.845 32.0947 112.845 35.5859C112.845 38.0029 111.734 39.7607 109.72 40.6152L113.479 47.5H109.427L106.058 41.2256H103.25V47.5H99.5879ZM103.25 38.2471H105.838C108.011 38.2471 109.061 37.3438 109.061 35.5859C109.061 33.8037 108.011 32.8271 105.838 32.8271H103.25V38.2471ZM115.384 47.5V29.8242H127.249V32.8516H119.046V37.1484H126.639V40.1758H119.046V44.4727H127.273V47.5H115.384ZM133.06 47.5H129.104L135.232 29.8242H139.944L146.048 47.5H142.117L140.799 43.4229H134.402L133.06 47.5ZM135.33 40.5664H139.871L137.649 33.8037H137.527L135.33 40.5664ZM167.068 35.9766C166.775 34.0234 165.262 32.8271 163.211 32.8271C160.452 32.8271 158.646 34.9512 158.646 38.6621C158.646 42.4707 160.477 44.4971 163.187 44.4971C165.213 44.4971 166.702 43.374 167.068 41.4697L170.779 41.4941C170.364 44.7656 167.63 47.7441 163.138 47.7441C158.401 47.7441 154.91 44.4238 154.91 38.6621C154.91 32.9004 158.475 29.5801 163.138 29.5801C167.215 29.5801 170.291 31.9238 170.779 35.9766H167.068ZM184.28 29.8242H187.967V41.2988C187.967 45.1807 185.037 47.7441 180.643 47.7441C176.248 47.7441 173.343 45.1807 173.343 41.2988V29.8242H177.005V41.0059C177.005 43.0322 178.445 44.5215 180.643 44.5215C182.864 44.5215 184.28 43.0322 184.28 41.0059V29.8242ZM200.54 34.8779C200.394 33.4863 199.271 32.6562 197.488 32.6562C195.633 32.6562 194.607 33.5107 194.583 34.6826C194.559 35.9521 195.901 36.5381 197.415 36.8799L199.002 37.2705C202.029 37.9541 204.3 39.4922 204.3 42.4463C204.3 45.6934 201.761 47.7441 197.464 47.7441C193.191 47.7441 190.457 45.7666 190.359 41.9824H193.924C194.046 43.7646 195.462 44.668 197.415 44.668C199.344 44.668 200.589 43.7646 200.589 42.4463C200.589 41.25 199.49 40.6885 197.562 40.2002L195.633 39.7363C192.654 39.0039 190.823 37.5146 190.823 34.9268C190.823 31.7041 193.655 29.5801 197.513 29.5801C201.419 29.5801 204.007 31.7529 204.056 34.8779H200.54ZM206.009 32.8516V29.8242H220.486V32.8516H215.066V47.5H211.429V32.8516H206.009ZM238.162 38.6621C238.162 44.4238 234.573 47.7441 229.91 47.7441C225.198 47.7441 221.634 44.3994 221.634 38.6621C221.634 32.9004 225.198 29.5801 229.91 29.5801C234.573 29.5801 238.162 32.9004 238.162 38.6621ZM234.427 38.6621C234.427 34.8779 232.645 32.8271 229.91 32.8271C227.176 32.8271 225.369 34.8779 225.369 38.6621C225.369 42.4463 227.176 44.4971 229.91 44.4971C232.645 44.4971 234.427 42.4463 234.427 38.6621ZM240.799 29.8242H245.34L250.247 41.8115H250.442L255.35 29.8242H259.891V47.5H256.326V35.9277H256.18L251.565 47.4268H249.124L244.51 35.8789H244.363V47.5H240.799V29.8242ZM272.464 34.8779C272.317 33.4863 271.194 32.6562 269.412 32.6562C267.557 32.6562 266.531 33.5107 266.507 34.6826C266.482 35.9521 267.825 36.5381 269.339 36.8799L270.926 37.2705C273.953 37.9541 276.224 39.4922 276.224 42.4463C276.224 45.6934 273.685 47.7441 269.388 47.7441C265.115 47.7441 262.381 45.7666 262.283 41.9824H265.848C265.97 43.7646 267.386 44.668 269.339 44.668C271.268 44.668 272.513 43.7646 272.513 42.4463C272.513 41.25 271.414 40.6885 269.485 40.2002L267.557 39.7363C264.578 39.0039 262.747 37.5146 262.747 34.9268C262.747 31.7041 265.579 29.5801 269.437 29.5801C273.343 29.5801 275.931 31.7529 275.979 34.8779H272.464ZM295.413 34.8779C295.267 33.4863 294.144 32.6562 292.361 32.6562C290.506 32.6562 289.48 33.5107 289.456 34.6826C289.432 35.9521 290.774 36.5381 292.288 36.8799L293.875 37.2705C296.902 37.9541 299.173 39.4922 299.173 42.4463C299.173 45.6934 296.634 47.7441 292.337 47.7441C288.064 47.7441 285.33 45.7666 285.232 41.9824H288.797C288.919 43.7646 290.335 44.668 292.288 44.668C294.217 44.668 295.462 43.7646 295.462 42.4463C295.462 41.25 294.363 40.6885 292.435 40.2002L290.506 39.7363C287.527 39.0039 285.696 37.5146 285.696 34.9268C285.696 31.7041 288.528 29.5801 292.386 29.5801C296.292 29.5801 298.88 31.7529 298.929 34.8779H295.413ZM301.565 47.5V29.8242H313.431V32.8516H305.228V37.1484H312.82V40.1758H305.228V44.4727H313.455V47.5H301.565ZM316.287 47.5V29.8242H323.221C327.249 29.8242 329.544 32.0947 329.544 35.5859C329.544 38.0029 328.433 39.7607 326.419 40.6152L330.179 47.5H326.126L322.757 41.2256H319.949V47.5H316.287ZM319.949 38.2471H322.537C324.71 38.2471 325.76 37.3438 325.76 35.5859C325.76 33.8037 324.71 32.8271 322.537 32.8271H319.949V38.2471ZM334.695 29.8242L338.992 43.3008H339.163L343.484 29.8242H347.537L341.434 47.5H336.722L330.594 29.8242H334.695ZM348.855 32.8516V29.8242H358.719V32.8516H355.618V44.4727H358.719V47.5H348.855V44.4727H351.956V32.8516H348.855ZM372.83 35.9766C372.537 34.0234 371.023 32.8271 368.973 32.8271C366.214 32.8271 364.407 34.9512 364.407 38.6621C364.407 42.4707 366.238 44.4971 368.948 44.4971C370.975 44.4971 372.464 43.374 372.83 41.4697L376.541 41.4941C376.126 44.7656 373.392 47.7441 368.899 47.7441C364.163 47.7441 360.672 44.4238 360.672 38.6621C360.672 32.9004 364.236 29.5801 368.899 29.5801C372.977 29.5801 376.053 31.9238 376.541 35.9766H372.83ZM379.104 47.5V29.8242H390.97V32.8516H382.767V37.1484H390.359V40.1758H382.767V44.4727H390.994V47.5H379.104Z" fill="black" fill-opacity="0.2"/>
<path d="M65.1885 47.5V29.8242H68.8506V37.6611H69.0947L75.5156 29.8242H79.9346L73.3428 37.7344L80.0078 47.5H75.6133L70.7061 40.2002L68.8506 42.4463V47.5H65.1885ZM96.9512 38.6621C96.9512 44.4238 93.3623 47.7441 88.6992 47.7441C83.9873 47.7441 80.4229 44.3994 80.4229 38.6621C80.4229 32.9004 83.9873 29.5801 88.6992 29.5801C93.3623 29.5801 96.9512 32.9004 96.9512 38.6621ZM93.2158 38.6621C93.2158 34.8779 91.4336 32.8271 88.6992 32.8271C85.9648 32.8271 84.1582 34.8779 84.1582 38.6621C84.1582 42.4463 85.9648 44.4971 88.6992 44.4971C91.4336 44.4971 93.2158 42.4463 93.2158 38.6621ZM99.5879 47.5V29.8242H106.521C110.55 29.8242 112.845 32.0947 112.845 35.5859C112.845 38.0029 111.734 39.7607 109.72 40.6152L113.479 47.5H109.427L106.058 41.2256H103.25V47.5H99.5879ZM103.25 38.2471H105.838C108.011 38.2471 109.061 37.3438 109.061 35.5859C109.061 33.8037 108.011 32.8271 105.838 32.8271H103.25V38.2471ZM115.384 47.5V29.8242H127.249V32.8516H119.046V37.1484H126.639V40.1758H119.046V44.4727H127.273V47.5H115.384ZM133.06 47.5H129.104L135.232 29.8242H139.944L146.048 47.5H142.117L140.799 43.4229H134.402L133.06 47.5ZM135.33 40.5664H139.871L137.649 33.8037H137.527L135.33 40.5664ZM167.068 35.9766C166.775 34.0234 165.262 32.8271 163.211 32.8271C160.452 32.8271 158.646 34.9512 158.646 38.6621C158.646 42.4707 160.477 44.4971 163.187 44.4971C165.213 44.4971 166.702 43.374 167.068 41.4697L170.779 41.4941C170.364 44.7656 167.63 47.7441 163.138 47.7441C158.401 47.7441 154.91 44.4238 154.91 38.6621C154.91 32.9004 158.475 29.5801 163.138 29.5801C167.215 29.5801 170.291 31.9238 170.779 35.9766H167.068ZM184.28 29.8242H187.967V41.2988C187.967 45.1807 185.037 47.7441 180.643 47.7441C176.248 47.7441 173.343 45.1807 173.343 41.2988V29.8242H177.005V41.0059C177.005 43.0322 178.445 44.5215 180.643 44.5215C182.864 44.5215 184.28 43.0322 184.28 41.0059V29.8242ZM200.54 34.8779C200.394 33.4863 199.271 32.6562 197.488 32.6562C195.633 32.6562 194.607 33.5107 194.583 34.6826C194.559 35.9521 195.901 36.5381 197.415 36.8799L199.002 37.2705C202.029 37.9541 204.3 39.4922 204.3 42.4463C204.3 45.6934 201.761 47.7441 197.464 47.7441C193.191 47.7441 190.457 45.7666 190.359 41.9824H193.924C194.046 43.7646 195.462 44.668 197.415 44.668C199.344 44.668 200.589 43.7646 200.589 42.4463C200.589 41.25 199.49 40.6885 197.562 40.2002L195.633 39.7363C192.654 39.0039 190.823 37.5146 190.823 34.9268C190.823 31.7041 193.655 29.5801 197.513 29.5801C201.419 29.5801 204.007 31.7529 204.056 34.8779H200.54ZM206.009 32.8516V29.8242H220.486V32.8516H215.066V47.5H211.429V32.8516H206.009ZM238.162 38.6621C238.162 44.4238 234.573 47.7441 229.91 47.7441C225.198 47.7441 221.634 44.3994 221.634 38.6621C221.634 32.9004 225.198 29.5801 229.91 29.5801C234.573 29.5801 238.162 32.9004 238.162 38.6621ZM234.427 38.6621C234.427 34.8779 232.645 32.8271 229.91 32.8271C227.176 32.8271 225.369 34.8779 225.369 38.6621C225.369 42.4463 227.176 44.4971 229.91 44.4971C232.645 44.4971 234.427 42.4463 234.427 38.6621ZM240.799 29.8242H245.34L250.247 41.8115H250.442L255.35 29.8242H259.891V47.5H256.326V35.9277H256.18L251.565 47.4268H249.124L244.51 35.8789H244.363V47.5H240.799V29.8242ZM272.464 34.8779C272.317 33.4863 271.194 32.6562 269.412 32.6562C267.557 32.6562 266.531 33.5107 266.507 34.6826C266.482 35.9521 267.825 36.5381 269.339 36.8799L270.926 37.2705C273.953 37.9541 276.224 39.4922 276.224 42.4463C276.224 45.6934 273.685 47.7441 269.388 47.7441C265.115 47.7441 262.381 45.7666 262.283 41.9824H265.848C265.97 43.7646 267.386 44.668 269.339 44.668C271.268 44.668 272.513 43.7646 272.513 42.4463C272.513 41.25 271.414 40.6885 269.485 40.2002L267.557 39.7363C264.578 39.0039 262.747 37.5146 262.747 34.9268C262.747 31.7041 265.579 29.5801 269.437 29.5801C273.343 29.5801 275.931 31.7529 275.979 34.8779H272.464ZM295.413 34.8779C295.267 33.4863 294.144 32.6562 292.361 32.6562C290.506 32.6562 289.48 33.5107 289.456 34.6826C289.432 35.9521 290.774 36.5381 292.288 36.8799L293.875 37.2705C296.902 37.9541 299.173 39.4922 299.173 42.4463C299.173 45.6934 296.634 47.7441 292.337 47.7441C288.064 47.7441 285.33 45.7666 285.232 41.9824H288.797C288.919 43.7646 290.335 44.668 292.288 44.668C294.217 44.668 295.462 43.7646 295.462 42.4463C295.462 41.25 294.363 40.6885 292.435 40.2002L290.506 39.7363C287.527 39.0039 285.696 37.5146 285.696 34.9268C285.696 31.7041 288.528 29.5801 292.386 29.5801C296.292 29.5801 298.88 31.7529 298.929 34.8779H295.413ZM301.565 47.5V29.8242H313.431V32.8516H305.228V37.1484H312.82V40.1758H305.228V44.4727H313.455V47.5H301.565ZM316.287 47.5V29.8242H323.221C327.249 29.8242 329.544 32.0947 329.544 35.5859C329.544 38.0029 328.433 39.7607 326.419 40.6152L330.179 47.5H326.126L322.757 41.2256H319.949V47.5H316.287ZM319.949 38.2471H322.537C324.71 38.2471 325.76 37.3438 325.76 35.5859C325.76 33.8037 324.71 32.8271 322.537 32.8271H319.949V38.2471ZM334.695 29.8242L338.992 43.3008H339.163L343.484 29.8242H347.537L341.434 47.5H336.722L330.594 29.8242H334.695ZM348.855 32.8516V29.8242H358.719V32.8516H355.618V44.4727H358.719V47.5H348.855V44.4727H351.956V32.8516H348.855ZM372.83 35.9766C372.537 34.0234 371.023 32.8271 368.973 32.8271C366.214 32.8271 364.407 34.9512 364.407 38.6621C364.407 42.4707 366.238 44.4971 368.948 44.4971C370.975 44.4971 372.464 43.374 372.83 41.4697L376.541 41.4941C376.126 44.7656 373.392 47.7441 368.899 47.7441C364.163 47.7441 360.672 44.4238 360.672 38.6621C360.672 32.9004 364.236 29.5801 368.899 29.5801C372.977 29.5801 376.053 31.9238 376.541 35.9766H372.83ZM379.104 47.5V29.8242H390.97V32.8516H382.767V37.1484H390.359V40.1758H382.767V44.4727H390.994V47.5H379.104Z" fill="black" fill-opacity="0.2"/>
<path d="M65.1885 47.5V29.8242H68.8506V37.6611H69.0947L75.5156 29.8242H79.9346L73.3428 37.7344L80.0078 47.5H75.6133L70.7061 40.2002L68.8506 42.4463V47.5H65.1885ZM96.9512 38.6621C96.9512 44.4238 93.3623 47.7441 88.6992 47.7441C83.9873 47.7441 80.4229 44.3994 80.4229 38.6621C80.4229 32.9004 83.9873 29.5801 88.6992 29.5801C93.3623 29.5801 96.9512 32.9004 96.9512 38.6621ZM93.2158 38.6621C93.2158 34.8779 91.4336 32.8271 88.6992 32.8271C85.9648 32.8271 84.1582 34.8779 84.1582 38.6621C84.1582 42.4463 85.9648 44.4971 88.6992 44.4971C91.4336 44.4971 93.2158 42.4463 93.2158 38.6621ZM99.5879 47.5V29.8242H106.521C110.55 29.8242 112.845 32.0947 112.845 35.5859C112.845 38.0029 111.734 39.7607 109.72 40.6152L113.479 47.5H109.427L106.058 41.2256H103.25V47.5H99.5879ZM103.25 38.2471H105.838C108.011 38.2471 109.061 37.3438 109.061 35.5859C109.061 33.8037 108.011 32.8271 105.838 32.8271H103.25V38.2471ZM115.384 47.5V29.8242H127.249V32.8516H119.046V37.1484H126.639V40.1758H119.046V44.4727H127.273V47.5H115.384ZM133.06 47.5H129.104L135.232 29.8242H139.944L146.048 47.5H142.117L140.799 43.4229H134.402L133.06 47.5ZM135.33 40.5664H139.871L137.649 33.8037H137.527L135.33 40.5664ZM167.068 35.9766C166.775 34.0234 165.262 32.8271 163.211 32.8271C160.452 32.8271 158.646 34.9512 158.646 38.6621C158.646 42.4707 160.477 44.4971 163.187 44.4971C165.213 44.4971 166.702 43.374 167.068 41.4697L170.779 41.4941C170.364 44.7656 167.63 47.7441 163.138 47.7441C158.401 47.7441 154.91 44.4238 154.91 38.6621C154.91 32.9004 158.475 29.5801 163.138 29.5801C167.215 29.5801 170.291 31.9238 170.779 35.9766H167.068ZM184.28 29.8242H187.967V41.2988C187.967 45.1807 185.037 47.7441 180.643 47.7441C176.248 47.7441 173.343 45.1807 173.343 41.2988V29.8242H177.005V41.0059C177.005 43.0322 178.445 44.5215 180.643 44.5215C182.864 44.5215 184.28 43.0322 184.28 41.0059V29.8242ZM200.54 34.8779C200.394 33.4863 199.271 32.6562 197.488 32.6562C195.633 32.6562 194.607 33.5107 194.583 34.6826C194.559 35.9521 195.901 36.5381 197.415 36.8799L199.002 37.2705C202.029 37.9541 204.3 39.4922 204.3 42.4463C204.3 45.6934 201.761 47.7441 197.464 47.7441C193.191 47.7441 190.457 45.7666 190.359 41.9824H193.924C194.046 43.7646 195.462 44.668 197.415 44.668C199.344 44.668 200.589 43.7646 200.589 42.4463C200.589 41.25 199.49 40.6885 197.562 40.2002L195.633 39.7363C192.654 39.0039 190.823 37.5146 190.823 34.9268C190.823 31.7041 193.655 29.5801 197.513 29.5801C201.419 29.5801 204.007 31.7529 204.056 34.8779H200.54ZM206.009 32.8516V29.8242H220.486V32.8516H215.066V47.5H211.429V32.8516H206.009ZM238.162 38.6621C238.162 44.4238 234.573 47.7441 229.91 47.7441C225.198 47.7441 221.634 44.3994 221.634 38.6621C221.634 32.9004 225.198 29.5801 229.91 29.5801C234.573 29.5801 238.162 32.9004 238.162 38.6621ZM234.427 38.6621C234.427 34.8779 232.645 32.8271 229.91 32.8271C227.176 32.8271 225.369 34.8779 225.369 38.6621C225.369 42.4463 227.176 44.4971 229.91 44.4971C232.645 44.4971 234.427 42.4463 234.427 38.6621ZM240.799 29.8242H245.34L250.247 41.8115H250.442L255.35 29.8242H259.891V47.5H256.326V35.9277H256.18L251.565 47.4268H249.124L244.51 35.8789H244.363V47.5H240.799V29.8242ZM272.464 34.8779C272.317 33.4863 271.194 32.6562 269.412 32.6562C267.557 32.6562 266.531 33.5107 266.507 34.6826C266.482 35.9521 267.825 36.5381 269.339 36.8799L270.926 37.2705C273.953 37.9541 276.224 39.4922 276.224 42.4463C276.224 45.6934 273.685 47.7441 269.388 47.7441C265.115 47.7441 262.381 45.7666 262.283 41.9824H265.848C265.97 43.7646 267.386 44.668 269.339 44.668C271.268 44.668 272.513 43.7646 272.513 42.4463C272.513 41.25 271.414 40.6885 269.485 40.2002L267.557 39.7363C264.578 39.0039 262.747 37.5146 262.747 34.9268C262.747 31.7041 265.579 29.5801 269.437 29.5801C273.343 29.5801 275.931 31.7529 275.979 34.8779H272.464ZM295.413 34.8779C295.267 33.4863 294.144 32.6562 292.361 32.6562C290.506 32.6562 289.48 33.5107 289.456 34.6826C289.432 35.9521 290.774 36.5381 292.288 36.8799L293.875 37.2705C296.902 37.9541 299.173 39.4922 299.173 42.4463C299.173 45.6934 296.634 47.7441 292.337 47.7441C288.064 47.7441 285.33 45.7666 285.232 41.9824H288.797C288.919 43.7646 290.335 44.668 292.288 44.668C294.217 44.668 295.462 43.7646 295.462 42.4463C295.462 41.25 294.363 40.6885 292.435 40.2002L290.506 39.7363C287.527 39.0039 285.696 37.5146 285.696 34.9268C285.696 31.7041 288.528 29.5801 292.386 29.5801C296.292 29.5801 298.88 31.7529 298.929 34.8779H295.413ZM301.565 47.5V29.8242H313.431V32.8516H305.228V37.1484H312.82V40.1758H305.228V44.4727H313.455V47.5H301.565ZM316.287 47.5V29.8242H323.221C327.249 29.8242 329.544 32.0947 329.544 35.5859C329.544 38.0029 328.433 39.7607 326.419 40.6152L330.179 47.5H326.126L322.757 41.2256H319.949V47.5H316.287ZM319.949 38.2471H322.537C324.71 38.2471 325.76 37.3438 325.76 35.5859C325.76 33.8037 324.71 32.8271 322.537 32.8271H319.949V38.2471ZM334.695 29.8242L338.992 43.3008H339.163L343.484 29.8242H347.537L341.434 47.5H336.722L330.594 29.8242H334.695ZM348.855 32.8516V29.8242H358.719V32.8516H355.618V44.4727H358.719V47.5H348.855V44.4727H351.956V32.8516H348.855ZM372.83 35.9766C372.537 34.0234 371.023 32.8271 368.973 32.8271C366.214 32.8271 364.407 34.9512 364.407 38.6621C364.407 42.4707 366.238 44.4971 368.948 44.4971C370.975 44.4971 372.464 43.374 372.83 41.4697L376.541 41.4941C376.126 44.7656 373.392 47.7441 368.899 47.7441C364.163 47.7441 360.672 44.4238 360.672 38.6621C360.672 32.9004 364.236 29.5801 368.899 29.5801C372.977 29.5801 376.053 31.9238 376.541 35.9766H372.83ZM379.104 47.5V29.8242H390.97V32.8516H382.767V37.1484H390.359V40.1758H382.767V44.4727H390.994V47.5H379.104Z" fill="black" fill-opacity="0.2"/>
<path d="M65.1885 47.5V29.8242H68.8506V37.6611H69.0947L75.5156 29.8242H79.9346L73.3428 37.7344L80.0078 47.5H75.6133L70.7061 40.2002L68.8506 42.4463V47.5H65.1885ZM96.9512 38.6621C96.9512 44.4238 93.3623 47.7441 88.6992 47.7441C83.9873 47.7441 80.4229 44.3994 80.4229 38.6621C80.4229 32.9004 83.9873 29.5801 88.6992 29.5801C93.3623 29.5801 96.9512 32.9004 96.9512 38.6621ZM93.2158 38.6621C93.2158 34.8779 91.4336 32.8271 88.6992 32.8271C85.9648 32.8271 84.1582 34.8779 84.1582 38.6621C84.1582 42.4463 85.9648 44.4971 88.6992 44.4971C91.4336 44.4971 93.2158 42.4463 93.2158 38.6621ZM99.5879 47.5V29.8242H106.521C110.55 29.8242 112.845 32.0947 112.845 35.5859C112.845 38.0029 111.734 39.7607 109.72 40.6152L113.479 47.5H109.427L106.058 41.2256H103.25V47.5H99.5879ZM103.25 38.2471H105.838C108.011 38.2471 109.061 37.3438 109.061 35.5859C109.061 33.8037 108.011 32.8271 105.838 32.8271H103.25V38.2471ZM115.384 47.5V29.8242H127.249V32.8516H119.046V37.1484H126.639V40.1758H119.046V44.4727H127.273V47.5H115.384ZM133.06 47.5H129.104L135.232 29.8242H139.944L146.048 47.5H142.117L140.799 43.4229H134.402L133.06 47.5ZM135.33 40.5664H139.871L137.649 33.8037H137.527L135.33 40.5664ZM167.068 35.9766C166.775 34.0234 165.262 32.8271 163.211 32.8271C160.452 32.8271 158.646 34.9512 158.646 38.6621C158.646 42.4707 160.477 44.4971 163.187 44.4971C165.213 44.4971 166.702 43.374 167.068 41.4697L170.779 41.4941C170.364 44.7656 167.63 47.7441 163.138 47.7441C158.401 47.7441 154.91 44.4238 154.91 38.6621C154.91 32.9004 158.475 29.5801 163.138 29.5801C167.215 29.5801 170.291 31.9238 170.779 35.9766H167.068ZM184.28 29.8242H187.967V41.2988C187.967 45.1807 185.037 47.7441 180.643 47.7441C176.248 47.7441 173.343 45.1807 173.343 41.2988V29.8242H177.005V41.0059C177.005 43.0322 178.445 44.5215 180.643 44.5215C182.864 44.5215 184.28 43.0322 184.28 41.0059V29.8242ZM200.54 34.8779C200.394 33.4863 199.271 32.6562 197.488 32.6562C195.633 32.6562 194.607 33.5107 194.583 34.6826C194.559 35.9521 195.901 36.5381 197.415 36.8799L199.002 37.2705C202.029 37.9541 204.3 39.4922 204.3 42.4463C204.3 45.6934 201.761 47.7441 197.464 47.7441C193.191 47.7441 190.457 45.7666 190.359 41.9824H193.924C194.046 43.7646 195.462 44.668 197.415 44.668C199.344 44.668 200.589 43.7646 200.589 42.4463C200.589 41.25 199.49 40.6885 197.562 40.2002L195.633 39.7363C192.654 39.0039 190.823 37.5146 190.823 34.9268C190.823 31.7041 193.655 29.5801 197.513 29.5801C201.419 29.5801 204.007 31.7529 204.056 34.8779H200.54ZM206.009 32.8516V29.8242H220.486V32.8516H215.066V47.5H211.429V32.8516H206.009ZM238.162 38.6621C238.162 44.4238 234.573 47.7441 229.91 47.7441C225.198 47.7441 221.634 44.3994 221.634 38.6621C221.634 32.9004 225.198 29.5801 229.91 29.5801C234.573 29.5801 238.162 32.9004 238.162 38.6621ZM234.427 38.6621C234.427 34.8779 232.645 32.8271 229.91 32.8271C227.176 32.8271 225.369 34.8779 225.369 38.6621C225.369 42.4463 227.176 44.4971 229.91 44.4971C232.645 44.4971 234.427 42.4463 234.427 38.6621ZM240.799 29.8242H245.34L250.247 41.8115H250.442L255.35 29.8242H259.891V47.5H256.326V35.9277H256.18L251.565 47.4268H249.124L244.51 35.8789H244.363V47.5H240.799V29.8242ZM272.464 34.8779C272.317 33.4863 271.194 32.6562 269.412 32.6562C267.557 32.6562 266.531 33.5107 266.507 34.6826C266.482 35.9521 267.825 36.5381 269.339 36.8799L270.926 37.2705C273.953 37.9541 276.224 39.4922 276.224 42.4463C276.224 45.6934 273.685 47.7441 269.388 47.7441C265.115 47.7441 262.381 45.7666 262.283 41.9824H265.848C265.97 43.7646 267.386 44.668 269.339 44.668C271.268 44.668 272.513 43.7646 272.513 42.4463C272.513 41.25 271.414 40.6885 269.485 40.2002L267.557 39.7363C264.578 39.0039 262.747 37.5146 262.747 34.9268C262.747 31.7041 265.579 29.5801 269.437 29.5801C273.343 29.5801 275.931 31.7529 275.979 34.8779H272.464ZM295.413 34.8779C295.267 33.4863 294.144 32.6562 292.361 32.6562C290.506 32.6562 289.48 33.5107 289.456 34.6826C289.432 35.9521 290.774 36.5381 292.288 36.8799L293.875 37.2705C296.902 37.9541 299.173 39.4922 299.173 42.4463C299.173 45.6934 296.634 47.7441 292.337 47.7441C288.064 47.7441 285.33 45.7666 285.232 41.9824H288.797C288.919 43.7646 290.335 44.668 292.288 44.668C294.217 44.668 295.462 43.7646 295.462 42.4463C295.462 41.25 294.363 40.6885 292.435 40.2002L290.506 39.7363C287.527 39.0039 285.696 37.5146 285.696 34.9268C285.696 31.7041 288.528 29.5801 292.386 29.5801C296.292 29.5801 298.88 31.7529 298.929 34.8779H295.413ZM301.565 47.5V29.8242H313.431V32.8516H305.228V37.1484H312.82V40.1758H305.228V44.4727H313.455V47.5H301.565ZM316.287 47.5V29.8242H323.221C327.249 29.8242 329.544 32.0947 329.544 35.5859C329.544 38.0029 328.433 39.7607 326.419 40.6152L330.179 47.5H326.126L322.757 41.2256H319.949V47.5H316.287ZM319.949 38.2471H322.537C324.71 38.2471 325.76 37.3438 325.76 35.5859C325.76 33.8037 324.71 32.8271 322.537 32.8271H319.949V38.2471ZM334.695 29.8242L338.992 43.3008H339.163L343.484 29.8242H347.537L341.434 47.5H336.722L330.594 29.8242H334.695ZM348.855 32.8516V29.8242H358.719V32.8516H355.618V44.4727H358.719V47.5H348.855V44.4727H351.956V32.8516H348.855ZM372.83 35.9766C372.537 34.0234 371.023 32.8271 368.973 32.8271C366.214 32.8271 364.407 34.9512 364.407 38.6621C364.407 42.4707 366.238 44.4971 368.948 44.4971C370.975 44.4971 372.464 43.374 372.83 41.4697L376.541 41.4941C376.126 44.7656 373.392 47.7441 368.899 47.7441C364.163 47.7441 360.672 44.4238 360.672 38.6621C360.672 32.9004 364.236 29.5801 368.899 29.5801C372.977 29.5801 376.053 31.9238 376.541 35.9766H372.83ZM379.104 47.5V29.8242H390.97V32.8516H382.767V37.1484H390.359V40.1758H382.767V44.4727H390.994V47.5H379.104Z" fill="black" fill-opacity="0.2"/>
</svg>
