<svg width="22" height="12" viewBox="0 0 22 12" fill="none" xmlns="http://www.w3.org/2000/svg">
<mask id="path-1-inside-1_96_17856" fill="white">
<path d="M22 12L11 0L0 12L22 12Z"/>
</mask>
<path d="M22 12L11 0L0 12L22 12Z" fill="white"/>
<path d="M11 0L11.7372 -0.675725C11.5477 -0.882354 11.2803 -1 11 -1C10.7197 -1 10.4523 -0.882354 10.2628 -0.675725L11 0ZM22 12L22 13L24.2732 13L22.7372 11.3243L22 12ZM0 12L-0.737154 11.3243L-2.27324 13L0 13V12ZM11 0L10.2628 0.675725L21.2628 12.6757L22 12L22.7372 11.3243L11.7372 -0.675725L11 0ZM0 12L0.737154 12.6757L11.7372 0.675725L11 0L10.2628 -0.675725L-0.737154 11.3243L0 12ZM22 12L22 11L0 11V12V13L22 13L22 12Z" fill="#C6C6C6" mask="url(#path-1-inside-1_96_17856)"/>
</svg>
