<svg width="20" height="20" viewBox="0 0 20 20" fill="none" xmlns="http://www.w3.org/2000/svg">
<mask id="path-1-inside-1_77_19472" fill="white">
<path d="M16 2L16.1025 2.00488C16.6067 2.05621 17 2.48232 17 3V17.0459C17 17.8613 16.0765 18.3343 15.415 17.8574L10 13.9531L4.58496 17.8574C3.92355 18.3343 3 17.8613 3 17.0459V3C3 2.44772 3.44772 2 4 2H16Z"/>
</mask>
<path d="M16 2L16.0666 0.601585L16.0333 0.6H16V2ZM16.1025 2.00488L16.2444 0.612084L16.2068 0.608262L16.1691 0.606467L16.1025 2.00488ZM15.415 17.8574L14.5963 18.993L14.5963 18.993L15.415 17.8574ZM10 13.9531L10.8188 12.8175L10 12.2272L9.18122 12.8175L10 13.9531ZM4.58496 17.8574L5.40372 18.993L5.40374 18.993L4.58496 17.8574ZM4 2V0.6H4L4 2ZM16 2L15.9334 3.39842L16.0359 3.4033L16.1025 2.00488L16.1691 0.606467L16.0666 0.601585L16 2ZM16.1025 2.00488L15.9607 3.39768C15.757 3.37694 15.6 3.20734 15.6 3H17H18.4C18.4 1.75731 17.4564 0.735494 16.2444 0.612084L16.1025 2.00488ZM17 3H15.6V17.0459H17H18.4V3H17ZM17 17.0459H15.6C15.6 16.7205 15.9686 16.5306 16.2338 16.7218L15.415 17.8574L14.5963 18.993C16.1843 20.138 18.4 19.0021 18.4 17.0459H17ZM15.415 17.8574L16.2338 16.7218L10.8188 12.8175L10 13.9531L9.18122 15.0887L14.5963 18.993L15.415 17.8574ZM10 13.9531L9.18122 12.8175L3.76618 16.7218L4.58496 17.8574L5.40374 18.993L10.8188 15.0887L10 13.9531ZM4.58496 17.8574L3.7662 16.7218C4.03139 16.5306 4.4 16.7205 4.4 17.0459H3H1.6C1.6 19.0021 3.8157 20.138 5.40372 18.993L4.58496 17.8574ZM3 17.0459H4.4V3H3H1.6V17.0459H3ZM3 3H4.4C4.4 3.22091 4.22091 3.4 4 3.4L4 2L4 0.6C2.67452 0.6 1.6 1.67452 1.6 3H3ZM4 2V3.4H16V2V0.6H4V2Z" fill="#2D2D2D" mask="url(#path-1-inside-1_77_19472)"/>
<path d="M16 2L16.0666 0.601585L16.0333 0.6H16V2ZM16.1025 2.00488L16.2444 0.612084L16.2068 0.608262L16.1691 0.606467L16.1025 2.00488ZM15.415 17.8574L14.5963 18.993L14.5963 18.993L15.415 17.8574ZM10 13.9531L10.8188 12.8175L10 12.2272L9.18122 12.8175L10 13.9531ZM4.58496 17.8574L5.40372 18.993L5.40374 18.993L4.58496 17.8574ZM4 2V0.6H4L4 2ZM16 2L15.9334 3.39842L16.0359 3.4033L16.1025 2.00488L16.1691 0.606467L16.0666 0.601585L16 2ZM16.1025 2.00488L15.9607 3.39768C15.757 3.37694 15.6 3.20734 15.6 3H17H18.4C18.4 1.75731 17.4564 0.735494 16.2444 0.612084L16.1025 2.00488ZM17 3H15.6V17.0459H17H18.4V3H17ZM17 17.0459H15.6C15.6 16.7205 15.9686 16.5306 16.2338 16.7218L15.415 17.8574L14.5963 18.993C16.1843 20.138 18.4 19.0021 18.4 17.0459H17ZM15.415 17.8574L16.2338 16.7218L10.8188 12.8175L10 13.9531L9.18122 15.0887L14.5963 18.993L15.415 17.8574ZM10 13.9531L9.18122 12.8175L3.76618 16.7218L4.58496 17.8574L5.40374 18.993L10.8188 15.0887L10 13.9531ZM4.58496 17.8574L3.7662 16.7218C4.03139 16.5306 4.4 16.7205 4.4 17.0459H3H1.6C1.6 19.0021 3.8157 20.138 5.40372 18.993L4.58496 17.8574ZM3 17.0459H4.4V3H3H1.6V17.0459H3ZM3 3H4.4C4.4 3.22091 4.22091 3.4 4 3.4L4 2L4 0.6C2.67452 0.6 1.6 1.67452 1.6 3H3ZM4 2V3.4H16V2V0.6H4V2Z" fill="black" fill-opacity="0.2" mask="url(#path-1-inside-1_77_19472)"/>
<path d="M16 2L16.0666 0.601585L16.0333 0.6H16V2ZM16.1025 2.00488L16.2444 0.612084L16.2068 0.608262L16.1691 0.606467L16.1025 2.00488ZM15.415 17.8574L14.5963 18.993L14.5963 18.993L15.415 17.8574ZM10 13.9531L10.8188 12.8175L10 12.2272L9.18122 12.8175L10 13.9531ZM4.58496 17.8574L5.40372 18.993L5.40374 18.993L4.58496 17.8574ZM4 2V0.6H4L4 2ZM16 2L15.9334 3.39842L16.0359 3.4033L16.1025 2.00488L16.1691 0.606467L16.0666 0.601585L16 2ZM16.1025 2.00488L15.9607 3.39768C15.757 3.37694 15.6 3.20734 15.6 3H17H18.4C18.4 1.75731 17.4564 0.735494 16.2444 0.612084L16.1025 2.00488ZM17 3H15.6V17.0459H17H18.4V3H17ZM17 17.0459H15.6C15.6 16.7205 15.9686 16.5306 16.2338 16.7218L15.415 17.8574L14.5963 18.993C16.1843 20.138 18.4 19.0021 18.4 17.0459H17ZM15.415 17.8574L16.2338 16.7218L10.8188 12.8175L10 13.9531L9.18122 15.0887L14.5963 18.993L15.415 17.8574ZM10 13.9531L9.18122 12.8175L3.76618 16.7218L4.58496 17.8574L5.40374 18.993L10.8188 15.0887L10 13.9531ZM4.58496 17.8574L3.7662 16.7218C4.03139 16.5306 4.4 16.7205 4.4 17.0459H3H1.6C1.6 19.0021 3.8157 20.138 5.40372 18.993L4.58496 17.8574ZM3 17.0459H4.4V3H3H1.6V17.0459H3ZM3 3H4.4C4.4 3.22091 4.22091 3.4 4 3.4L4 2L4 0.6C2.67452 0.6 1.6 1.67452 1.6 3H3ZM4 2V3.4H16V2V0.6H4V2Z" fill="black" fill-opacity="0.2" mask="url(#path-1-inside-1_77_19472)"/>
</svg>
