<svg width="21" height="20" viewBox="0 0 21 20" fill="none" xmlns="http://www.w3.org/2000/svg">
<path d="M7.00098 4.80078C7.38758 4.80078 7.70117 5.11438 7.70117 5.50098V14.501L7.68652 14.6416C7.62131 14.9607 7.3393 15.2012 7.00098 15.2012C6.66265 15.2012 6.38064 14.9607 6.31543 14.6416L6.30078 14.501V5.50098C6.30078 5.11438 6.61438 4.80078 7.00098 4.80078ZM14.001 4.80078C14.3876 4.80078 14.7012 5.11438 14.7012 5.50098V14.501L14.6865 14.6416C14.6213 14.9607 14.3393 15.2012 14.001 15.2012C13.6626 15.2012 13.3806 14.9607 13.3154 14.6416L13.3008 14.501V5.50098C13.3008 5.11438 13.6144 4.80078 14.001 4.80078Z" fill="#2D2D2D"/>
<path d="M7.00098 4.80078C7.38758 4.80078 7.70117 5.11438 7.70117 5.50098V14.501L7.68652 14.6416C7.62131 14.9607 7.3393 15.2012 7.00098 15.2012C6.66265 15.2012 6.38064 14.9607 6.31543 14.6416L6.30078 14.501V5.50098C6.30078 5.11438 6.61438 4.80078 7.00098 4.80078ZM14.001 4.80078C14.3876 4.80078 14.7012 5.11438 14.7012 5.50098V14.501L14.6865 14.6416C14.6213 14.9607 14.3393 15.2012 14.001 15.2012C13.6626 15.2012 13.3806 14.9607 13.3154 14.6416L13.3008 14.501V5.50098C13.3008 5.11438 13.6144 4.80078 14.001 4.80078Z" fill="black" fill-opacity="0.2"/>
<path d="M7.00098 4.80078C7.38758 4.80078 7.70117 5.11438 7.70117 5.50098V14.501L7.68652 14.6416C7.62131 14.9607 7.3393 15.2012 7.00098 15.2012C6.66265 15.2012 6.38064 14.9607 6.31543 14.6416L6.30078 14.501V5.50098C6.30078 5.11438 6.61438 4.80078 7.00098 4.80078ZM14.001 4.80078C14.3876 4.80078 14.7012 5.11438 14.7012 5.50098V14.501L14.6865 14.6416C14.6213 14.9607 14.3393 15.2012 14.001 15.2012C13.6626 15.2012 13.3806 14.9607 13.3154 14.6416L13.3008 14.501V5.50098C13.3008 5.11438 13.6144 4.80078 14.001 4.80078Z" fill="black" fill-opacity="0.2"/>
</svg>
