<svg width="20" height="20" viewBox="0 0 20 20" fill="none" xmlns="http://www.w3.org/2000/svg">
<path d="M6.50098 4.80078C6.88758 4.80078 7.20117 5.11438 7.20117 5.50098V14.501L7.18652 14.6416C7.12131 14.9607 6.8393 15.2012 6.50098 15.2012C6.16265 15.2012 5.88064 14.9607 5.81543 14.6416L5.80078 14.501V5.50098C5.80078 5.11438 6.11438 4.80078 6.50098 4.80078ZM13.501 4.80078C13.8876 4.80078 14.2012 5.11438 14.2012 5.50098V14.501L14.1865 14.6416C14.1213 14.9607 13.8393 15.2012 13.501 15.2012C13.1626 15.2012 12.8806 14.9607 12.8154 14.6416L12.8008 14.501V5.50098C12.8008 5.11438 13.1144 4.80078 13.501 4.80078Z" fill="white"/>
</svg>
