<svg width="20" height="20" viewBox="0 0 20 20" fill="none" xmlns="http://www.w3.org/2000/svg">
<path d="M6.5 4.7998C6.8866 4.7998 7.2002 5.1134 7.2002 5.5V14.5L7.18555 14.6406C7.12033 14.9597 6.83833 15.2002 6.5 15.2002C6.16167 15.2002 5.87967 14.9597 5.81445 14.6406L5.7998 14.5V5.5C5.7998 5.1134 6.1134 4.7998 6.5 4.7998ZM13.5 4.7998C13.8866 4.7998 14.2002 5.1134 14.2002 5.5V14.5L14.1855 14.6406C14.1203 14.9597 13.8383 15.2002 13.5 15.2002C13.1617 15.2002 12.8797 14.9597 12.8145 14.6406L12.7998 14.5V5.5C12.7998 5.1134 13.1134 4.7998 13.5 4.7998Z" fill="#2D2D2D"/>
<path d="M6.5 4.7998C6.8866 4.7998 7.2002 5.1134 7.2002 5.5V14.5L7.18555 14.6406C7.12033 14.9597 6.83833 15.2002 6.5 15.2002C6.16167 15.2002 5.87967 14.9597 5.81445 14.6406L5.7998 14.5V5.5C5.7998 5.1134 6.1134 4.7998 6.5 4.7998ZM13.5 4.7998C13.8866 4.7998 14.2002 5.1134 14.2002 5.5V14.5L14.1855 14.6406C14.1203 14.9597 13.8383 15.2002 13.5 15.2002C13.1617 15.2002 12.8797 14.9597 12.8145 14.6406L12.7998 14.5V5.5C12.7998 5.1134 13.1134 4.7998 13.5 4.7998Z" fill="black" fill-opacity="0.2"/>
<path d="M6.5 4.7998C6.8866 4.7998 7.2002 5.1134 7.2002 5.5V14.5L7.18555 14.6406C7.12033 14.9597 6.83833 15.2002 6.5 15.2002C6.16167 15.2002 5.87967 14.9597 5.81445 14.6406L5.7998 14.5V5.5C5.7998 5.1134 6.1134 4.7998 6.5 4.7998ZM13.5 4.7998C13.8866 4.7998 14.2002 5.1134 14.2002 5.5V14.5L14.1855 14.6406C14.1203 14.9597 13.8383 15.2002 13.5 15.2002C13.1617 15.2002 12.8797 14.9597 12.8145 14.6406L12.7998 14.5V5.5C12.7998 5.1134 13.1134 4.7998 13.5 4.7998Z" fill="black" fill-opacity="0.2"/>
</svg>
