<svg width="70" height="48" viewBox="0 0 70 48" fill="none" xmlns="http://www.w3.org/2000/svg">
<path opacity="0.16" d="M61.4193 0.640625V39.6084H70.0036V47.3503H42.25V39.6084H51.6733V10.3826L42.25 16.7697V7.67288L52.3833 0.640625H61.4193Z" fill="white"/>
<path opacity="0.16" d="M16.9749 48C6.32523 48 0 39.6774 0 25.7419V22.2581C0 8.32258 6.32523 0 16.9749 0C27.6245 0 33.9497 8.32258 33.9497 22.2581V25.7419C33.9497 39.6774 27.6245 48 16.9749 48ZM16.9749 40C22.1383 40 24.8491 35.0968 24.8491 25.7419V22.2581C24.8491 12.9032 22.1383 8 16.9749 8C11.8114 8 9.10059 12.9032 9.10059 22.2581V25.7419C9.10059 35.0968 11.8114 40 16.9749 40Z" fill="white"/>
</svg>
