<svg width="72" height="48" viewBox="0 0 72 48" fill="none" xmlns="http://www.w3.org/2000/svg">
<g opacity="0.12">
<path d="M40.9251 47.3548V40.5161L55.9777 24.9032C59.8539 20.7742 62.438 18.3226 62.5026 14.4516C62.5026 10.129 59.5309 7.74194 55.7839 7.74194C51.9723 7.74194 49.2589 10.3226 49.2589 14.9677H40.6021C40.5375 5.93548 46.7394 0 55.9777 0C65.0221 0 71.4179 5.6129 71.4179 13.8065C71.4179 19.0323 69.2214 23.2903 60.3707 32.1936L53.7812 39.0968V39.3548H71.9993V47.3548H40.9251Z" fill="white"/>
<path d="M16.9907 48C6.33113 48 0 39.6774 0 25.7419V22.2581C0 8.32258 6.33113 0 16.9907 0C27.6502 0 33.9814 8.32258 33.9814 22.2581V25.7419C33.9814 39.6774 27.6502 48 16.9907 48ZM16.9907 40C22.159 40 24.8723 35.0968 24.8723 25.7419V22.2581C24.8723 12.9032 22.159 8 16.9907 8C11.8224 8 9.10908 12.9032 9.10908 22.2581V25.7419C9.10908 35.0968 11.8224 40 16.9907 40Z" fill="white"/>
</g>
</svg>
