<svg width="73" height="48" viewBox="0 0 73 48" fill="none" xmlns="http://www.w3.org/2000/svg">
<g opacity="0.16">
<path d="M48.9157 34.189C49.1104 37.9309 52.2913 39.9309 56.2511 39.9955C60.3407 39.9309 63.4567 37.6084 63.4567 33.3503C63.4567 29.2858 60.6653 26.5116 55.0826 26.5116H50.1491V19.9309L59.6916 9.09224V8.57611H41.775V0.640625H71.5061V7.47933L60.0811 20.1245V20.7697C68.9744 21.9309 72.9992 27.8664 72.9992 33.9955C72.9992 42.2535 65.8585 47.9955 56.2511 47.9955C46.7086 47.9955 39.8925 42.4471 39.6328 34.189H48.9157Z" fill="white"/>
<path d="M17.0727 48C6.36168 48 0 39.6774 0 25.7419V22.2581C0 8.32258 6.36168 0 17.0727 0C27.7837 0 34.1454 8.32258 34.1454 22.2581V25.7419C34.1454 39.6774 27.7837 48 17.0727 48ZM17.0727 40C22.2659 40 24.9923 35.0968 24.9923 25.7419V22.2581C24.9923 12.9032 22.2659 8 17.0727 8C11.8795 8 9.15303 12.9032 9.15303 22.2581V25.7419C9.15303 35.0968 11.8795 40 17.0727 40Z" fill="white"/>
</g>
</svg>
