<svg width="20" height="20" viewBox="0 0 20 20" fill="none" xmlns="http://www.w3.org/2000/svg">
<path d="M3.2002 15.7998H16.7998V13.5H18.2002V16.5C18.2002 16.8865 17.8865 17.2001 17.5 17.2002H2.5C2.1134 17.2002 1.7998 16.8866 1.7998 16.5V13.5H3.2002V15.7998ZM14.9248 7.09473L13.9355 8.08398L10.6992 4.84766V13.9385H9.29883V4.84766L6.0625 8.08496L5.07227 7.09473L9.99902 2.16797L14.9248 7.09473Z" fill="#2D2D2D"/>
<path d="M3.2002 15.7998H16.7998V13.5H18.2002V16.5C18.2002 16.8865 17.8865 17.2001 17.5 17.2002H2.5C2.1134 17.2002 1.7998 16.8866 1.7998 16.5V13.5H3.2002V15.7998ZM14.9248 7.09473L13.9355 8.08398L10.6992 4.84766V13.9385H9.29883V4.84766L6.0625 8.08496L5.07227 7.09473L9.99902 2.16797L14.9248 7.09473Z" fill="black" fill-opacity="0.2"/>
<path d="M3.2002 15.7998H16.7998V13.5H18.2002V16.5C18.2002 16.8865 17.8865 17.2001 17.5 17.2002H2.5C2.1134 17.2002 1.7998 16.8866 1.7998 16.5V13.5H3.2002V15.7998ZM14.9248 7.09473L13.9355 8.08398L10.6992 4.84766V13.9385H9.29883V4.84766L6.0625 8.08496L5.07227 7.09473L9.99902 2.16797L14.9248 7.09473Z" fill="black" fill-opacity="0.2"/>
</svg>
