<svg width="20" height="20" viewBox="0 0 20 20" fill="none" xmlns="http://www.w3.org/2000/svg">
<path d="M5.87109 7.28516C5.59611 7.43552 5.33675 7.5965 5.09473 7.76367C4.46478 8.1988 3.9715 8.66649 3.64355 9.0918C3.29854 9.53932 3.2002 9.85551 3.2002 10C3.20028 10.1446 3.29868 10.4609 3.64355 10.9082C3.9715 11.3334 4.46489 11.8013 5.09473 12.2363C6.356 13.1075 8.09474 13.7998 10 13.7998C10.7326 13.7998 11.4399 13.695 12.1055 13.5195L13.2266 14.6406C12.2407 14.9848 11.1504 15.2002 10 15.2002C7.7634 15.2002 5.75198 14.3923 4.29883 13.3887C3.57174 12.8864 2.96623 12.3226 2.53516 11.7637C2.12136 11.227 1.79987 10.6054 1.7998 10C1.7998 9.39454 2.12132 8.77302 2.53516 8.23633C2.96624 7.67733 3.57164 7.11363 4.29883 6.61133C4.47313 6.49093 4.65493 6.37249 4.84473 6.25879L5.87109 7.28516ZM10 4.7998C12.2366 4.79985 14.248 5.60761 15.7012 6.61133C16.4283 7.11359 17.0338 7.67739 17.4648 8.23633C17.8786 8.77298 18.2002 9.39461 18.2002 10C18.2001 10.6054 17.8786 11.227 17.4648 11.7637C17.0338 12.3226 16.4283 12.8864 15.7012 13.3887C15.5268 13.5091 15.3442 13.6265 15.1543 13.7402L14.1279 12.7139C14.403 12.5635 14.6632 12.4036 14.9053 12.2363C15.5352 11.8012 16.0285 11.3335 16.3564 10.9082C16.7013 10.4609 16.7997 10.1446 16.7998 10C16.7998 9.85553 16.7013 9.53922 16.3564 9.0918C16.0285 8.66654 15.5351 8.19876 14.9053 7.76367C13.644 6.89248 11.9053 6.20024 10 6.2002C9.26698 6.2002 8.55855 6.30283 7.89258 6.47852L6.77246 5.3584C7.75848 5.01416 8.84938 4.7998 10 4.7998ZM7.98535 9.39941C7.92172 9.59011 7.8877 9.79224 7.8877 10C7.88781 11.0778 8.80616 12 10 12C10.1812 12 10.3552 11.9754 10.5215 11.9355L11.6074 13.0215C11.1232 13.2632 10.5761 13.4004 10 13.4004C8.08737 13.4004 6.48741 11.9043 6.4873 10C6.4873 9.39523 6.64821 8.83131 6.92969 8.34375L7.98535 9.39941ZM10 6.59961C11.9126 6.59971 13.5127 8.09564 13.5127 10C13.5127 10.6046 13.3507 11.1678 13.0693 11.6553L12.0137 10.5996C12.0772 10.4091 12.1123 10.2076 12.1123 10C12.1123 8.92215 11.1938 8.0001 10 8C9.8186 8 9.64396 8.02359 9.47754 8.06348L8.3916 6.97754C8.8759 6.73569 9.42373 6.59961 10 6.59961Z" fill="#2D2D2D"/>
<path d="M5.87109 7.28516C5.59611 7.43552 5.33675 7.5965 5.09473 7.76367C4.46478 8.1988 3.9715 8.66649 3.64355 9.0918C3.29854 9.53932 3.2002 9.85551 3.2002 10C3.20028 10.1446 3.29868 10.4609 3.64355 10.9082C3.9715 11.3334 4.46489 11.8013 5.09473 12.2363C6.356 13.1075 8.09474 13.7998 10 13.7998C10.7326 13.7998 11.4399 13.695 12.1055 13.5195L13.2266 14.6406C12.2407 14.9848 11.1504 15.2002 10 15.2002C7.7634 15.2002 5.75198 14.3923 4.29883 13.3887C3.57174 12.8864 2.96623 12.3226 2.53516 11.7637C2.12136 11.227 1.79987 10.6054 1.7998 10C1.7998 9.39454 2.12132 8.77302 2.53516 8.23633C2.96624 7.67733 3.57164 7.11363 4.29883 6.61133C4.47313 6.49093 4.65493 6.37249 4.84473 6.25879L5.87109 7.28516ZM10 4.7998C12.2366 4.79985 14.248 5.60761 15.7012 6.61133C16.4283 7.11359 17.0338 7.67739 17.4648 8.23633C17.8786 8.77298 18.2002 9.39461 18.2002 10C18.2001 10.6054 17.8786 11.227 17.4648 11.7637C17.0338 12.3226 16.4283 12.8864 15.7012 13.3887C15.5268 13.5091 15.3442 13.6265 15.1543 13.7402L14.1279 12.7139C14.403 12.5635 14.6632 12.4036 14.9053 12.2363C15.5352 11.8012 16.0285 11.3335 16.3564 10.9082C16.7013 10.4609 16.7997 10.1446 16.7998 10C16.7998 9.85553 16.7013 9.53922 16.3564 9.0918C16.0285 8.66654 15.5351 8.19876 14.9053 7.76367C13.644 6.89248 11.9053 6.20024 10 6.2002C9.26698 6.2002 8.55855 6.30283 7.89258 6.47852L6.77246 5.3584C7.75848 5.01416 8.84938 4.7998 10 4.7998ZM7.98535 9.39941C7.92172 9.59011 7.8877 9.79224 7.8877 10C7.88781 11.0778 8.80616 12 10 12C10.1812 12 10.3552 11.9754 10.5215 11.9355L11.6074 13.0215C11.1232 13.2632 10.5761 13.4004 10 13.4004C8.08737 13.4004 6.48741 11.9043 6.4873 10C6.4873 9.39523 6.64821 8.83131 6.92969 8.34375L7.98535 9.39941ZM10 6.59961C11.9126 6.59971 13.5127 8.09564 13.5127 10C13.5127 10.6046 13.3507 11.1678 13.0693 11.6553L12.0137 10.5996C12.0772 10.4091 12.1123 10.2076 12.1123 10C12.1123 8.92215 11.1938 8.0001 10 8C9.8186 8 9.64396 8.02359 9.47754 8.06348L8.3916 6.97754C8.8759 6.73569 9.42373 6.59961 10 6.59961Z" fill="black" fill-opacity="0.2"/>
<path d="M5.87109 7.28516C5.59611 7.43552 5.33675 7.5965 5.09473 7.76367C4.46478 8.1988 3.9715 8.66649 3.64355 9.0918C3.29854 9.53932 3.2002 9.85551 3.2002 10C3.20028 10.1446 3.29868 10.4609 3.64355 10.9082C3.9715 11.3334 4.46489 11.8013 5.09473 12.2363C6.356 13.1075 8.09474 13.7998 10 13.7998C10.7326 13.7998 11.4399 13.695 12.1055 13.5195L13.2266 14.6406C12.2407 14.9848 11.1504 15.2002 10 15.2002C7.7634 15.2002 5.75198 14.3923 4.29883 13.3887C3.57174 12.8864 2.96623 12.3226 2.53516 11.7637C2.12136 11.227 1.79987 10.6054 1.7998 10C1.7998 9.39454 2.12132 8.77302 2.53516 8.23633C2.96624 7.67733 3.57164 7.11363 4.29883 6.61133C4.47313 6.49093 4.65493 6.37249 4.84473 6.25879L5.87109 7.28516ZM10 4.7998C12.2366 4.79985 14.248 5.60761 15.7012 6.61133C16.4283 7.11359 17.0338 7.67739 17.4648 8.23633C17.8786 8.77298 18.2002 9.39461 18.2002 10C18.2001 10.6054 17.8786 11.227 17.4648 11.7637C17.0338 12.3226 16.4283 12.8864 15.7012 13.3887C15.5268 13.5091 15.3442 13.6265 15.1543 13.7402L14.1279 12.7139C14.403 12.5635 14.6632 12.4036 14.9053 12.2363C15.5352 11.8012 16.0285 11.3335 16.3564 10.9082C16.7013 10.4609 16.7997 10.1446 16.7998 10C16.7998 9.85553 16.7013 9.53922 16.3564 9.0918C16.0285 8.66654 15.5351 8.19876 14.9053 7.76367C13.644 6.89248 11.9053 6.20024 10 6.2002C9.26698 6.2002 8.55855 6.30283 7.89258 6.47852L6.77246 5.3584C7.75848 5.01416 8.84938 4.7998 10 4.7998ZM7.98535 9.39941C7.92172 9.59011 7.8877 9.79224 7.8877 10C7.88781 11.0778 8.80616 12 10 12C10.1812 12 10.3552 11.9754 10.5215 11.9355L11.6074 13.0215C11.1232 13.2632 10.5761 13.4004 10 13.4004C8.08737 13.4004 6.48741 11.9043 6.4873 10C6.4873 9.39523 6.64821 8.83131 6.92969 8.34375L7.98535 9.39941ZM10 6.59961C11.9126 6.59971 13.5127 8.09564 13.5127 10C13.5127 10.6046 13.3507 11.1678 13.0693 11.6553L12.0137 10.5996C12.0772 10.4091 12.1123 10.2076 12.1123 10C12.1123 8.92215 11.1938 8.0001 10 8C9.8186 8 9.64396 8.02359 9.47754 8.06348L8.3916 6.97754C8.8759 6.73569 9.42373 6.59961 10 6.59961Z" fill="black" fill-opacity="0.2"/>
<path d="M4 4L16 16" stroke="#2D2D2D" stroke-width="1.4"/>
<path d="M4 4L16 16" stroke="black" stroke-opacity="0.2" stroke-width="1.4"/>
<path d="M4 4L16 16" stroke="black" stroke-opacity="0.2" stroke-width="1.4"/>
</svg>
