<svg width="16" height="16" viewBox="0 0 16 16" fill="none" xmlns="http://www.w3.org/2000/svg">
<g clip-path="url(#clip0_3268_76470)">
<path d="M1.91219 4.49426C1.26834 4.49426 0.746094 5.01652 0.746094 5.66102V10.336C0.746094 10.9802 1.26806 11.5027 1.91219 11.5027H3.54451L7.74213 15.0003V1L3.54451 4.49426H1.91219ZM6.57603 3.48965V12.5084L3.967 10.3373H1.91219V5.66238H3.96728L6.57631 3.48938L6.57603 3.48965Z" fill="#2D2D2D"/>
<path d="M12.4082 7.99953C12.4079 6.38816 11.1038 5.08113 9.49307 5.07812H8.91016V6.24488H9.49307C10.4608 6.24488 11.2451 7.02965 11.2451 7.99789C11.2451 8.96613 10.4608 9.7509 9.49307 9.7509H8.91016V10.9177H9.49307C11.1022 10.9144 12.4054 9.60981 12.4082 7.9998V7.99953Z" fill="#2D2D2D"/>
<path d="M9.49307 2.74156H8.91016V3.90832H9.49307C11.7509 3.90914 13.5806 5.7409 13.5797 8.00004C13.5789 10.2581 11.7498 12.0882 9.49307 12.089H8.91016V13.2558H9.49307C12.3959 13.2552 14.7486 10.9007 14.748 7.99621C14.7475 5.09258 12.3951 2.73883 9.49307 2.73828V2.74184V2.74156Z" fill="#2D2D2D"/>
</g>
<defs>
<clipPath id="clip0_3268_76470">
<rect width="14" height="14" fill="white" transform="translate(0.746094 1)"/>
</clipPath>
</defs>
</svg>
